<svg xmlns="http://www.w3.org/2000/svg" id="Layer_1" viewBox="0 0 402 121.8"><style>.st0{opacity:0.5;fill:#FF314A;} .st1{opacity:0.5;fill:#FAB815;} .st2{opacity:0.5;fill:#42C7BB;}</style><path d="M341.6 71.4l-2.2-.7.8 2.6 1.3-.4v-1c0-.2 0-.4.1-.5zm8.3-4.4l-1.7 2.2c.2.1.3.3.4.5l2.7-1 .6 1.6-2.6.9c0 .2.1.3.1.5v.1l2.5.8-.5 1.6-1.9-.6.3 4h2.7v.8l.3 5.3 4.6 2.3.7.4-.4.7-4.2 8.1.6 12.8v.8h-2.2l.5 8.1 4.4-.1v1.7l-20.8.5v-1.7l4.4-.1.1-8.2h-2.1v-.8l.2-26.6-2-6.4-.2-.8.8-.2 1.5-.5-4.3-13.3 1.6-.5 2.8 8.9 3.4 1c.1-.2.2-.4.4-.5l-1.8-2.1 1.2-1.1 2 2.2c.2-.1.4-.1.6-.2l-.1-2.8h1.6l.1 2.8c.2 0 .4.1.6.2l1.8-2.3 1.3 1zm-1.8 10.6l-.5-5.8c0-.6-.3-1.1-.7-1.5-.9-.8-2.3-.8-3.2.1-.4.4-.6 1-.6 1.6l-.1 1.6 1.3 4.1 3.8-.1zm2.8 1.6l-7 .2h-.6l-.2-.6-1.4-4.2-3.3 1.1 1.9 5.8-.3 26.1h2.1v.8l-.1 8.6 4.4-.1 4.5-.1-.5-8.7v-.8h2.2l-.6-12.6 4-7.6-4.6-2.4-.5-5.5z" class="st0"/><path d="M49 117.3H10.1c-.1 0-.2-.1-.2-.2v-3.2c0-.1.1-.2.2-.2h3.2v-1.1h-1.2c-.1 0-.2-.1-.2-.2v-1.2c0-.1.1-.2.2-.2h.2v-1.2c0-.1.1-.2.2-.2h28.4c.1 0 .2.1.2.2v.6H46v-.6c0-.1.1-.2.2-.2h28.4c.1 0 .2.1.2.2v1.2h.2c.1 0 .2.1.2.2v1.2c0 .1-.1.2-.2.2h-1.1v1.1h3.2c.1 0 .2.1.2.2v3.2c0 .1-.1.2-.2.2H49zm-3-.5v-.8h-4.8v.9H46zm0-1.3v-.9h-4.8v.9H46zm0-1.3v-.9h-4.8v.9H46zm0-1.4v-.8h-4.8v.8H46zm0-1.3v-.8h-4.8v.8H46zm-32.5 2.6h-3.2v2.7h27.6v-2.7H13.5zm24.9 0v2.7h2.3v-2.7h-2.3zm-24.6-1.6v1.1h26.9v-1.1H13.8zm-1.4-.5h28.3v-.7H12.4v.7zm.4-2.2v1h27.9v-1H12.8zm33.7 1h27.9v-1H46.5v1zm0 1.2h28.3v-.7H46.5v.7zm0 1.6h26.9v-1.1H46.5v1.1zm2.8.5v2.7h27.6v-2.7H49.3zm-2.8 2.7h2.3v-2.7h-2.3v2.7z" class="st1"/><path d="M35.3 109.8h-.4c-.1 0-.2-.1-.2-.2v-.1c2-2.6 4.5-4.8 7.5-6.3.3-.2.7-.3.9-.4l.5-.2h.2c2.1.9 4 2.1 5.8 3.6.6.5 1.1 1 1.6 1.5l1.5 1.8s.1.1 0 .2c0 .1-.1.2-.2.2h-.4c-.1 0-.1 0-.2-.1-.8-.9-1.8-1.7-2.8-2.2l-.7-.3c-1.5-.6-3.1-1-4.7-.9-2.3 0-4.5.6-6.4 1.9-.3.2-.7.5-1 .7-.3.3-.6.5-.8.8h-.2zm.7-1.3c.3-.3.6-.5 1-.7 2-1.3 4.3-2 6.6-2 1.7 0 3.3.3 4.8 1l.7.3c.7.4 1.4.8 2 1.4l-.5-.5-1.5-1.5c-1.7-1.4-3.5-2.6-5.5-3.5l-.4.2c-.2.1-.5.2-.9.4-2.3 1.3-4.5 2.9-6.3 4.9z" class="st1"/><path d="M51.9 109.8h.5c.1-.1.1-.2 0-.3-2-2.6-4.5-4.8-7.5-6.3-.4-.2-.7-.3-.9-.4l-.5-.2h-.2c-2.1.9-4 2.1-5.8 3.6-.6.5-1.1 1-1.6 1.5l-1.5 1.8c-.1.1-.1.2 0 .3 0 0 .1.1.2.1h.4c.1 0 .1 0 .2-.1.8-.9 1.8-1.7 2.8-2.2l.7-.3c1.5-.6 3.1-1 4.7-.9 2.3 0 4.5.6 6.4 1.9.3.2.7.5 1 .7.3.3.6.5.8.8h.3zm-.7-1.3c-.3-.3-.6-.5-1-.7-2-1.3-4.3-2-6.6-2-1.7 0-3.3.3-4.8 1-.2.1-.5.2-.7.3-.7.4-1.4.8-2 1.4l.5-.5 1.5-1.5c1.7-1.4 3.5-2.6 5.5-3.5l.4.2c.2.1.5.2.9.4 2.3 1.3 4.5 2.9 6.3 4.9z" class="st1"/><path d="M34.5 109.4h.2c.4-.6.9-1.2 1.4-1.7.5-.5 1-1 1.6-1.5 1.7-1.5 3.7-2.7 5.8-3.6h.2l.5.2c.2.1.5.2.9.4 2.9 1.5 5.4 3.6 7.4 6.2h.2c-2.3-3.2-5.4-5.8-9.1-7.4-3.6 1.6-6.8 4.2-9.1 7.4zm.3.4h-.9c-.1-.1-.1-.2-.1-.3 2.4-3.5 5.7-6.3 9.6-8h.2c3.9 1.7 7.2 4.5 9.6 8v.1c0 .1-.1.2-.2.2h-.8c-.1 0-.1 0-.2-.1-2-2.6-4.5-4.7-7.3-6.1-.3-.2-.6-.3-.9-.4l-.4-.2c-2 .9-3.9 2.1-5.5 3.5-.5.5-1 .9-1.5 1.5-.5.5-1 1.1-1.5 1.7.1.1 0 .2-.1.1zm13.1-29.1c-.1-.3-.2-.6-.3-1-.3-.9-.6-1.8-1-2.6-.1-.1 0-.3.1-.3.1-.1.2 0 .3 0 2.4 1.8 4.7 3.8 6.7 6s3.7 4.6 5.2 7.2v.1L59 102c0 .1-.1.2-.2.3-.1 0-.2-.1-.3-.2-.2-.5-.3-1.1-.5-1.6s-.4-1.1-.6-1.7c-1.2-3-2.8-5.7-4.8-8.3v-.1c-.1-.4-.3-.9-.5-1.4-.2-.5-.3-.9-.5-1.4-1-2.3-2.2-4.7-3.7-6.9zm.1-1.1l.3.9c1.4 2.2 2.7 4.5 3.6 7 .2.5.4.9.5 1.4.2.4.3.9.5 1.4 2 2.5 3.6 5.4 4.8 8.3.2.6.4 1.1.6 1.7v.1l-.1-10.2c-1.5-2.5-3.2-4.9-5.2-7.1-1.8-2-3.7-3.8-5.8-5.4.4.7.6 1.3.8 1.9zm-8.8 1.1c.1-.3.2-.6.3-1 .3-.9.6-1.8 1.1-2.6.1-.1 0-.3-.1-.3-.1-.1-.2 0-.3 0-2.4 1.8-4.7 3.8-6.7 6s-3.7 4.6-5.2 7.2v.1l-.1 11.9c0 .1.1.2.2.3.1 0 .2-.1.3-.2.1-.5.3-1.1.5-1.6s.4-1.1.6-1.7c1.2-3 2.8-5.7 4.8-8.3v-.1c.1-.4.3-.9.5-1.4.2-.5.3-.9.5-1.4 1-2.3 2.2-4.7 3.6-6.9zm0-1.1l-.3.9c-1.4 2.2-2.7 4.5-3.6 7-.3.5-.4 1-.6 1.5s-.3.9-.5 1.4c-2 2.5-3.6 5.4-4.8 8.3-.2.6-.4 1.1-.6 1.7v.1l.1-10.2c1.5-2.5 3.2-4.9 5.1-7 1.8-2 3.7-3.8 5.8-5.4-.2.5-.4 1.1-.6 1.7z" class="st1"/><path d="M43.3 101.7v-3.3c0-9.8 0-19.8 1.5-21.6.1-.1.2-.1.3 0 2 2.1 3.9 11.9 3.9 11.9v.4c-.4.6-.7 1.2-1 1.9-.3.6-.6 1.2-.9 1.9-1.3 2.9-2.1 6-2.6 9.2 0 .1-.1.2-.3.2h-.1l-.3-.1-.3-.1c0-.2-.1-.3-.2-.4zm.5-3.3v3.2l.2.1c.5-3.1 1.3-6.1 2.6-9 .3-.7.6-1.3.9-1.9.3-.6.6-1.2 1-1.9l.1-.2c-.2-.9-1.8-9.1-3.5-11.4-1.4 2.2-1.3 11.7-1.3 21.1zm-.5 3.3z" class="st1"/><path d="M43.8 101.7v-3.3c0-9.8 0-19.8-1.5-21.6-.1-.1-.2-.1-.3 0-2 2.1-3.9 11.9-3.9 11.9v.2l.1.2c.4.6.7 1.2 1 1.9.3.6.6 1.2.9 1.9 1.3 2.9 2.1 6 2.6 9.2 0 .1.1.2.3.2l.3-.1.3-.1c.1-.2.2-.3.2-.4zm-.5-3.3v3.2l-.2.1c-.5-3.1-1.3-6.1-2.6-9-.3-.7-.6-1.3-.9-1.9s-.6-1.2-1-1.9l-.1-.2c.2-.9 1.8-9.1 3.5-11.4 1.4 2.2 1.4 11.7 1.3 21.1zm.5 3.3zm2.5-23.8l1.2 1.5c.4.5.8 1.1 1.2 1.6 1.8 2.9 3.3 6.1 4.3 9.4.1.1 0 .3-.1.3s-.3 0-.3-.1l-.4-.5-.4-.5c-.6-.7-1.3-1.4-1.9-2.1l-.3.5-.5.8-.1.2v.1c-.1.1-.2.2-.3.1-.1-.1-.2-.2-.1-.3v-.1c0-.2-.2-.8-.3-1.7l-.3-.7-.2-.8-.6-2.4c-.2-1-.4-1.9-.6-2.8-.2-.7-.4-1.4-.8-2.1-.1-.1 0-.3.1-.3s.2-.1.4-.1zm.9 1.8l-.3-.4.3.9c.2.9.5 1.8.6 2.8s.4 1.7.6 2.4l.2.8.2.8c.1.5.2.9.2 1.2l.2-.3.5-.8c.1-.1.2-.2.3-.1 0 0 .1 0 .1.1.8.7 1.5 1.5 2.2 2.3-1-2.8-2.3-5.5-3.8-8.1-.6-.6-1-1.1-1.3-1.6z" class="st1"/><path d="M40.9 77.9c-.4.5-.9 1-1.2 1.5-.4.5-.8 1.1-1.2 1.6-1.8 2.9-3.3 6.1-4.3 9.4-.1.1 0 .3.1.3s.3 0 .3-.1l.4-.5.4-.5c.6-.7 1.3-1.4 1.9-2.1l.3.5.5.8.1.1v.1c.1.1.2.2.3.1.1-.1.2-.2.1-.3v-.1c0-.2.2-.8.3-1.7l.2-.8.2-.8.6-2.4c.2-1 .4-1.9.6-2.8.2-.7.4-1.4.8-2.1.1-.1 0-.3-.1-.3s-.2.1-.3.1zm-.9 1.8l.3-.4-.3.9c-.2.9-.5 1.8-.6 2.8s-.4 1.7-.6 2.4l-.2.8-.2.8c-.1.5-.2.9-.2 1.2l-.2-.3-.5-.8c-.1-.1-.2-.1-.3 0-.8.7-1.5 1.5-2.2 2.3 1-2.8 2.3-5.5 3.8-8.1.5-.6.8-1.1 1.2-1.6zm4 22.3c.1-.7.2-1.3.3-2 .1-.7.3-1.3.5-2 1-3.9 2.6-7.5 4.8-10.9.1-.1.2-.1.3-.1l.1.1c2.7 3.8 4 8.7 4.7 12.9.5 3.2.7 6.4.7 9.6 0 .1-.1.2-.2.2l-2.2-.2c-.1 0-.1-.1-.2-.1l-.2-.2-.2-.2c-1.2-1.7-2.6-3.1-4.3-4.4-1.1-.9-2.4-1.6-3.6-2.3h-.2l-.3-.1c.1 0 0-.1 0-.3 0 .1 0 .1 0 0zm.8-1.9l-.3 1.8.1.1h.2c1.3.7 2.5 1.4 3.7 2.3 1.7 1.3 3.1 2.8 4.4 4.5l.1.2.3.4H55c0-3.1-.2-6.3-.7-9.4-.6-4.4-2.1-8.7-4.5-12.4-2 3.2-3.6 6.7-4.5 10.4-.2.7-.4 1.4-.5 2.1z" class="st1"/><path d="M43.2 102c-.1-.7-.2-1.3-.3-2-.1-.7-.3-1.3-.5-2-1-3.9-2.6-7.5-4.8-10.9-.1-.1-.2-.1-.3-.1 0 0-.1 0-.1.1-2.7 3.8-4 8.7-4.7 12.9-.5 3.2-.7 6.4-.7 9.6 0 .1.1.2.2.2l2.2-.2c.1 0 .1-.1.2-.1l.2-.2.2-.2c1.2-1.7 2.7-3.2 4.3-4.4 1.1-.9 2.4-1.6 3.6-2.3h.2l.3-.1c-.1 0 0-.1 0-.3zm-.8-1.9l.3 1.8-.1.1h-.2c-1.3.7-2.5 1.4-3.7 2.3-1.7 1.3-3.1 2.8-4.4 4.5l-.2.2-.3.4h-1.7c0-3.1.2-6.3.7-9.4.6-4.4 2.1-8.7 4.5-12.4 2 3.2 3.6 6.7 4.5 10.4.3.7.4 1.4.6 2.1zM50 87l1.8 1.8c.6.6 1.1 1.3 1.6 2 2.5 3.4 4.4 7.1 5.6 11.2v3.8c0 .1 0 .1-.1.2-.6.5-1.1 1.1-1.5 1.7-.4.6-.8 1.3-1.2 2 0 .1-.1.1-.2.1h-.8c-.1 0-.2-.1-.2-.2.1-3.2-.2-6.4-.7-9.5-.7-4.2-2-9-4.7-12.7-.1-.1-.1-.3 0-.4.1-.1.3-.1.4 0zm1.4 2.2l-.2-.2c1.8 3.5 3 7.2 3.6 11.1.5 3.1.7 6.2.7 9.3h.4c.3-.7.7-1.3 1.1-1.9.4-.6 1-1.2 1.5-1.7v-3.6c-1.2-4-3-7.7-5.5-11-.5-.7-1.1-1.4-1.6-2z" class="st1"/><path d="M37.2 87l-1.8 1.8c-.6.6-1.1 1.3-1.6 2-2.5 3.4-4.4 7.1-5.6 11.2v3.8c0 .1 0 .1.1.2.6.5 1.1 1.1 1.5 1.7.4.6.8 1.3 1.1 2 0 .1.1.1.2.1h.9c.1 0 .2-.1.2-.2-.1-3.2.2-6.4.7-9.5.7-4.2 2-9 4.7-12.7.1-.1.1-.2 0-.3-.2-.1-.3-.1-.4-.1zm-1.4 2.2l.2-.2c-1.8 3.5-3 7.2-3.6 11.1-.5 3.1-.7 6.2-.7 9.3h-.4c-.3-.7-.7-1.3-1.1-1.9-.4-.6-1-1.2-1.5-1.7v-3.6c1.2-4 3-7.7 5.5-11 .5-.7 1.1-1.4 1.6-2zm42.8 14.9c-.6.8-1.5 2-2.3 3.1-.6.8-1.1 1.6-1.6 2.5 0 .1-.1.2-.2.2h-1.2c-.1 0-.2-.1-.2-.2v-.1l.2-.4.3-.5c.5-.9 1.1-1.7 1.8-2.4.3-.3.6-.7 1-1s.7-.7 1.1-1h.1l.3-.1.3-.1c.2-.2.3-.1.4 0-.1.1-.1.2-.1.2l.1-.2zm-2.6 2.8c.6-.8 1.2-1.7 1.7-2.4l-.8.8-1 1c-.7.7-1.2 1.5-1.8 2.4l-.3.5-.1.1.6.2c.6-.9 1.1-1.8 1.7-2.6zm-67.4-2.8c.6.8 1.5 2 2.3 3.1.6.8 1.1 1.6 1.6 2.5 0 .1.1.2.2.2h1.2c.1 0 .2-.1.2-.2v-.1l-.3-.5-.3-.5c-.5-.9-1.1-1.7-1.8-2.4-.3-.3-.6-.7-1-1-.4-.3-.7-.7-1.1-1l-.4-.2-.4-.1s-.2.1-.2.2 0 .2.1.2l-.1-.2zm2.6 2.8c-.6-.8-1.2-1.7-1.7-2.4l.8.8 1 1c.7.7 1.2 1.5 1.8 2.4l.3.5.1.1-.6.2c-.6-.9-1.1-1.8-1.7-2.6z" class="st1"/><path d="M73.2 109.4c.6-1.2 1.4-2.3 2.4-3.3.9-1 1.9-2 3-2.9h-.2c-1.8 0-3.6.1-5.3.5 0 .1 0 .3.1.4s.1.6.1.8v.8c0 1.3 0 2.5-.2 3.8l.1-.1zm2.7-3.1c-.9 1-1.8 2.2-2.4 3.4 0 .1-.1.1-.2.1h-.6c-.1 0-.2-.1-.2-.3.2-1.3.3-2.6.3-3.9v-.8c0-.3 0-.5-.1-.8s-.1-.4-.1-.6c0-.1 0-.2.2-.3 1.8-.4 3.7-.6 5.6-.5h.9c.1 0 .2.1.2.2s0 .1-.1.2c-1.2 1.1-2.4 2.2-3.5 3.3zM14 109.4c-.7-1.2-1.5-2.3-2.4-3.3-.9-1-1.9-2-3-2.9h.2c1.8 0 3.6.1 5.3.5 0 .1 0 .3-.1.4s-.1.6-.1.8v.8c0 1.3 0 2.5.2 3.8l-.1-.1zm-2.7-3.1c.9 1 1.8 2.2 2.4 3.4 0 .1.1.1.2.1h.6c.1 0 .2-.1.2-.3-.2-1.3-.3-2.6-.3-3.9v-.8c0-.3 0-.5.1-.8s.1-.4.1-.6c0-.1 0-.2-.2-.3-1.8-.4-3.7-.6-5.6-.5H8c-.1 0-.2.1-.2.2s0 .2.1.2c1.1 1.1 2.3 2.2 3.4 3.3z" class="st1"/><path d="M62.6 89.4c.9.6 1.9 1.2 2.7 1.9.9.7 1.7 1.4 2.5 2.2 4.4 4.1 6.3 10.2 5.2 16.1 0 .1-.1.2-.2.2h-1c-.1 0-.2-.1-.2-.2l-.1-.4-.1-.5c-.1-.2-.2-.5-.2-.7l-.1-.2v-.1c-.1-.4-.2-.8-.2-1.2-.3-2.2-.8-4.3-1.5-6.3l-.2-.5-.2-.6c-.4-.9-.9-1.8-1.5-2.7l-.2-.3-.2-.3c-.4-.5-.7-1-1.1-1.5l-.2-.3-.2-.3c-.4-.5-.9-1-1.3-1.5l-.3-.5-.3-.4c-.3-.5-.7-1-1.1-1.4-.1-.1-.1-.2-.1-.3.1-.1.2-.1.3-.1l-.2-.1zm2.4 2.3c-.4-.3-.9-.7-1.4-1l.2.2.3.5.3.5c.5.5.9 1 1.3 1.5l.2.3.2.3c.3.5.7 1 1.1 1.5l.2.3.2.3c.6.9 1.1 1.8 1.5 2.8l.2.5.2.5c.8 2.5 1.4 5 1.7 7.6v.2l.1.2c0 .2.1.4.2.6l.1.5.1.3h.6c1-5.7-.9-11.5-5.1-15.5-.6-.7-1.4-1.4-2.2-2.1zm-40.4-2.3c-.9.6-1.9 1.2-2.7 1.9-.9.7-1.7 1.4-2.5 2.2-4.3 4.1-6.3 10.2-5.2 16.1 0 .1.1.2.2.2h.9c.1 0 .2-.1.2-.2l.1-.4.1-.5c.1-.2.1-.5.2-.7l.1-.2v-.1c.1-.4.2-.8.2-1.2.3-2.2.8-4.3 1.5-6.3l.2-.5.2-.5c.4-.9.9-1.8 1.5-2.7l.2-.3.2-.3c.4-.5.7-1 1.1-1.5l.2-.3.2-.3c.4-.5.9-1 1.3-1.5l.4-.5.3-.4c.3-.5.7-1 1.1-1.4.1-.1.1-.2.1-.3s-.2-.1-.3-.1l.2-.2zm-2.5 2.3c.4-.3.9-.7 1.4-1l-.1.2-.4.5-.3.5c-.5.5-.9 1-1.4 1.5l-.2.3-.2.3c-.4.5-.7 1-1.1 1.5l-.2.3-.2.3c-.6.9-1.1 1.8-1.5 2.8l-.2.5-.2.5c-.8 2.5-1.4 5-1.6 7.6v.2l-.1.2c0 .2-.1.4-.2.6l-.1.5-.1.3h-.6c-1-5.7.9-11.5 5.1-15.5.6-.7 1.4-1.4 2.2-2.1z" class="st1"/><path d="M58.5 105.8l-.2-18.1c0-.1.1-.2.2-.2h.1c1.6.8 3 1.8 4.4 3 1.2 1.1 2.3 2.2 3.3 3.5l.2.3.2.3c.4.5.7 1 1.1 1.6l.3.5.3.5c.5.9.9 1.8 1.3 2.7.8 2.5 1.4 5 1.7 7.6 0 .1-.1.2-.2.3-.1 0-.2-.1-.3-.2-.2-.9-.5-1.7-.9-2.6-.3-.8-.7-1.5-1.1-2.3l-.2-.3-.2-.3-.1-.1-1 .2h-.3l-.9.2h-.4c-.3.1-.7.2-1.1.3l-.7.2-.8.3c-1.6.7-3.1 1.6-4.4 2.8-.1.1-.2.1-.3 0v-.2zm.3-17.7l.2 17.2c1.2-1 2.6-1.8 4-2.4l.8-.3.8-.3 1.2-.3h.4l.9-.2h.4l1.2-.2h.2l.2.2c.1.1.2.2.2.3l.2.3c.5.8.9 1.6 1.2 2.4l.1.2c-.3-1.7-.7-3.4-1.3-5-.4-.9-.8-1.8-1.3-2.7l-.4-.3-.3-.5c-.3-.5-.7-1-1.1-1.6l-.2-.3-.2-.3c-1-1.2-2-2.4-3.2-3.4-1.3-1.1-2.6-2-4-2.8zm-30.1 17.7l.2-18.1c0-.1-.1-.2-.2-.2h-.1c-1.6.8-3 1.8-4.4 3-1.2 1.1-2.3 2.2-3.3 3.5l-.2.3-.2.3c-.4.5-.7 1-1.1 1.6l-.4.4-.3.5c-.5.9-.9 1.8-1.4 2.7-.8 2.5-1.4 5-1.6 7.6 0 .1.1.2.2.3.1 0 .2-.1.3-.2.2-.9.5-1.7.8-2.5.3-.8.7-1.6 1.2-2.3l.2-.3.2-.3.1-.1 1 .2h.3l.9.2h.4c.4.1.7.2 1.1.3l.7.2.8.3c1.6.7 3 1.6 4.3 2.8.1.1.2.1.3 0 .2 0 .2-.1.2-.2zm-.3-17.7l-.2 17.2c-1.2-1-2.6-1.8-4-2.4l-.8-.3-.8-.3-1.2-.3H21l-.9-.2h-.2l-1.2-.2h-.2l-.2.2-.2.3-.2.3c-.5.8-.9 1.6-1.2 2.4l-.1.2c.3-1.7.7-3.4 1.3-5 .4-.9.8-1.8 1.3-2.7l.3-.5.3-.5c.4-.5.7-1 1.1-1.6l.2-.3.2-.3c1-1.2 2-2.4 3.2-3.4 1.2-.9 2.5-1.8 3.9-2.6z" class="st1"/><path d="M58.9 106c-.6.5-1.1 1.1-1.5 1.7-.4.5-.7 1.1-1 1.7h.6c.7-.8 1.5-1.6 2.3-2.4.8-.8 1.7-1.5 2.7-2.1.2-.2.5-.3.8-.5l.9-.5c1-.6 2.2-1.2 3.3-1.7l-.7.1h-.5c-.3.1-.7.2-1.1.3l-.7.2-.8.3c-1.6.9-3 1.8-4.3 2.9zm-1.9 1.4c.5-.7 1-1.3 1.6-1.8 1.3-1.1 2.8-2 4.3-2.7l.8-.3.8-.3 1.2-.3h.4l.9-.2h.4l1.2-.2c.1 0 .2.1.3.2 0 .1 0 .2-.1.2-1.7.7-3.3 1.5-4.9 2.4l-.8.5-.7.5c-.9.6-1.8 1.3-2.6 2.1-.8.7-1.6 1.5-2.3 2.4 0 0-.1.1-.2.1h-1c-.1 0-.2-.1-.3-.2v-.1c.1-.8.5-1.6 1-2.3zM28.3 106c.6.5 1.1 1.1 1.5 1.7.4.5.7 1.1 1 1.7h-.6c-.7-.8-1.5-1.6-2.3-2.4-.8-.8-1.7-1.5-2.7-2.1-.2-.2-.5-.3-.8-.5l-.9-.5c-1-.6-2.2-1.2-3.3-1.7l.7.1h.4c.4.1.7.2 1.1.3l.7.2.8.3c1.7.9 3.1 1.8 4.4 2.9zm1.9 1.5c-.5-.7-1-1.3-1.6-1.8-1.3-1.1-2.8-2-4.3-2.7l-.8-.3-.8-.3-1.2-.3h-.4l-.9-.2h-.3l-1.2-.2c-.1 0-.2.1-.3.2 0 .1 0 .2.1.2 1.7.7 3.3 1.5 4.9 2.4l.9.5.7.5c.9.6 1.8 1.3 2.6 2.1.8.7 1.6 1.5 2.4 2.4 0 0 .1.1.2.1h1.1c.1-.1.2-.2.1-.3-.3-.9-.7-1.6-1.2-2.3z" class="st1"/><path d="M71.6 109.6h-2.3c-.1 0-.1 0-.2-.1-.4-.3-.7-.6-1.1-.9-.4-.3-.8-.5-1.2-.7-1.5-.8-3.1-1.3-4.8-1.6-.1 0-.2-.1-.2-.2s0-.1.1-.2l.5-.3.2-.1.2-.1.1-.1.3-.2c.8-.5 1.7-1 2.5-1.4.9-.4 1.7-.8 2.6-1.2.1 0 .2 0 .3.1l.3.3.3.4c.3.5.6.9.9 1.4.3.5.5 1 .7 1.5l.2.4.2.4c.3.7.5 1.5.7 2.2-.2.3-.3.4-.3.4-.1.1-.1.1 0 0zm-1.8 0l1.6.1c-.2-.6-.5-1.8-.8-2.4l-.2-.4-.2-.4c-.2-.5-.5-1-.7-1.5-.3-.5-.6-.9-.9-1.4l-.3-.4-.2-.2c-.8.3-1.6.7-2.4 1.1-.8.4-1.7.9-2.5 1.3l-.3.2-.1.1-.2.1-.2.1c1.5.3 3 .8 4.4 1.5.4.2.9.5 1.3.8.5.3 1.3 1 1.7 1.4zm-54.2 0H18c.1 0 .1 0 .2-.1.4-.3.7-.6 1.1-.9.4-.3.8-.5 1.2-.7 1.5-.8 3.1-1.3 4.8-1.6.1 0 .2-.1.2-.2s0-.1-.1-.2l-.5-.3-.2-.1-.2-.1-.1-.1-.4-.3c-.8-.5-1.7-1-2.5-1.4-.9-.4-1.7-.8-2.6-1.2-.1 0-.2 0-.3.1l-.3.3-.3.4c-.3.5-.6.9-.9 1.4-.3.5-.5 1-.7 1.5l-.2.4-.2.4c-.3.7-.5 1.5-.7 2.2.1.3.1.5.3.5zm1.8 0l-1.6.1c.2-.6.5-1.8.8-2.4l.2-.4.2-.4c.2-.5.5-1 .7-1.5.3-.5.6-.9.9-1.4l.3-.4.2-.2c.8.3 1.6.7 2.4 1.1.8.4 1.7.9 2.5 1.3l.3.2.1.1.2.1.2.1c-1.5.3-3 .8-4.4 1.5-.4.2-.9.5-1.3.8-.5.3-1.3 1-1.7 1.4z" class="st1"/><path d="M68.7 101.6c.9 1.1 1.5 2.4 2 3.7.5 1.4.9 2.8 1.3 4.2 0 .1 0 .2-.2.3h-.2c-.1 0-.2-.1-.2-.2-.2-.6-.3-1.1-.5-1.6s-.4-1.1-.6-1.6l-.9-1.8c-.3-.6-.7-1.1-1.1-1.6-1.1.4-2.2.9-3.3 1.5-1 .5-2 1.1-2.9 1.8-.8.5-1.5 1.1-2.2 1.7-.7.6-1.3 1.2-1.9 1.8 0 0-.1.1-.2.1H57c-.1 0-.2-.1-.2-.2s0-.1.1-.2c.7-.9 1.5-1.7 2.4-2.4.8-.8 1.7-1.5 2.7-2.1.2-.2.5-.3.8-.5l.9-.5c1.6-.9 3.2-1.7 4.9-2.4 0-.1.1-.1.1 0zm1.4 3.3c-.4-1-1-2-1.6-2.9-1.6.7-3.2 1.5-4.7 2.3l-.8.5-.7.5c-.9.6-1.8 1.3-2.6 2.1-.7.6-1.3 1.3-2 2h.2c.6-.6 1.2-1.2 1.9-1.8.7-.6 1.4-1.2 2.2-1.7 1-.7 2-1.3 3-1.8 1.1-.6 2.2-1.1 3.4-1.5l.1-.1c.1 0 .2 0 .3.1l.1.1c.4.5.8 1.1 1.2 1.7v.5zm-51.7-3.3c-.9 1.1-1.5 2.4-2 3.7-.5 1.4-.9 2.8-1.3 4.2 0 .1 0 .2.2.3h.2c.1 0 .2-.1.2-.2.1-.6.3-1.1.5-1.6s.4-1.1.6-1.6l.9-1.8c.3-.6.7-1.1 1.1-1.6 1.1.4 2.2.9 3.3 1.5 1 .5 2 1.1 2.9 1.8.8.5 1.5 1.1 2.2 1.7.7.6 1.3 1.2 1.9 1.8 0 0 .1.1.2.1h.8c.1 0 .2-.1.2-.2s0-.1-.1-.2c-.7-.9-1.5-1.7-2.4-2.4-.8-.8-1.7-1.5-2.7-2.1-.2-.2-.5-.3-.8-.5l-.9-.5c-1.6-.9-3.2-1.7-4.9-2.4.1-.1 0-.1-.1 0zm-1.3 3.3c.4-1 1-2 1.6-2.9 1.6.7 3.2 1.5 4.7 2.3l.9.5.7.5c.9.6 1.8 1.3 2.6 2.1.7.6 1.3 1.3 2 2h-.1c-.6-.6-1.2-1.2-1.9-1.8-.7-.6-1.4-1.2-2.2-1.7-1-.7-2-1.3-3-1.8-1.1-.6-2.2-1.1-3.3-1.5l-.1-.1c-.1 0-.2 0-.3.1l-.1.1c-.4.5-.8 1.1-1.2 1.7l-.3.5z" class="st1"/><path d="M131.5 81.4v1.7c.1 0 .2.1.2.1.3.2.6.4.8.7.2.2.3.4.3.7v.7h.7v.7l-.1.1-.5.4v1.8h.6v.7l-.1.1-.4.5.2 7.8h.6v.6l-.1.1-.5.5.2 6.7h.7v.8l-.1.1-.6.6.1 5.1h2.5V88.3h.2l5.8-1.1.8-.2h2.5v-2.6h-.7l-.1-.1-.7-1.5 1.4-.5c.1-1.1.4-2.1.9-3 .5-.9 1.3-1.5 2.2-1.9.3-.1.5-.3.7-.6.2-.3.4-.5.7-.6h.2v-.5c-.1 0-.2-.1-.3-.2-.3-.3-.3-.7 0-1 .1-.1.2-.1.3-.2v-.9c0-.2.1-.2.2-.2s.2.1.2.2v.9c.1 0 .2.1.3.2.3.3.3.7 0 1-.1.1-.2.1-.3.2v.5c.3.1.6.3.8.5.2.2.3.3.6.4.6.3 1.1.6 1.6 1.1l.2.2c-1-2.7-.9-5.6.3-8.2 1.4-3.3 3.9-6 7-7.8-.3-.3-.3-.5-.2-.8s.9-.5 1.4-.7c.6-.2 1.2-.5 1.7-.9.4-.3.7-.6 1-1 .1-.1.2-.2.4-.3l.2-.2c0-.3.1-.6.3-.8.2-.2.4-.4.7-.5l.3-.1V57c-.1 0-.2-.1-.3-.2-.3-.3-.3-.8 0-1.1.1-.1.2-.1.3-.2v-.3c-.1 0-.2-.1-.3-.2-.3-.3-.3-.7 0-1 .1-.1.3-.2.5-.2v-.9c0-.1.1-.2.2-.2s.2.1.2.2V54c.1 0 .2.1.3.2.3.3.3.7 0 1-.1.1-.2.1-.3.2v.3c.1 0 .2.1.3.2.3.3.3.8 0 1.1-.1.1-.2.2-.3.2v.1c.1 0 .2 0 .2.1l-.2.2h-.3v.1l-.5.1c-.1.1-.3.2-.4.3-.1.1-.2.3-.2.5.3.1.7.1 1 .1v.4c-.4 0-.9-.1-1.3-.2l-.1.1-.3.3c-.3.4-.7.8-1.1 1.1-.3.3-.6.5-1 .7l-.9.3c-.4.1-.8.2-1.2.5l.3.3.1.1c1.8.3 3.6.5 5.4.4v.4c-1.9.1-3.8-.1-5.6-.5-3.1 1.7-5.6 4.4-7.1 7.7-1.3 2.8-1.3 6 .1 8.7h12.6v.5h-12.6V87h12.6v.5H143V112h2.5v-5.2c0-2 1.3-2.7 2.3-3.2.3-.1.6-.3.8-.5l.1-.1.1.1c.3.2.5.3.8.5 1.1.6 2.3 1.2 2.3 3.2v5.2h7V98.6c0-4.8 2.9-6.4 5.2-7.7.6-.3 1.2-.7 1.8-1.1l.5-.4v.6l-.1.1c-.6.5-1.3.9-2 1.2-2.3 1.3-5 2.7-5 7.3V112h7.1v.5H127v7.1h40.2v.5h-40.7v-8h2.5l.1-5.1-.6-.6-.1-.1v-.8h.7l.2-6.7-.5-.5-.1-.1v-.8h.6l.2-7.8-.5-.5-.1-.1v-.7h.6v-1.9l-.4-.3-.1-.1v-.8h.7v-.7c0-.2.1-.4.3-.6l.6-.6c.1-.1.3-.2.5-.3v-1.7c0-.2.1-.2.2-.2s.2.2.2.3zM167 56.2c-.1.1-.1.3 0 .5.1.1.3.1.5 0s.1-.3 0-.5c-.2-.1-.4-.1-.5 0zm0-1.7c-.1.1-.1.3 0 .4.1.1.3.1.4 0 .1-.1.1-.3 0-.4-.1-.1-.3-.1-.4 0zm-18 57.4h3.1v-5.2c0-1.8-1.1-2.3-2.1-2.8-.3-.1-.5-.3-.7-.4-.2.1-.5.3-.7.4-1 .5-2.1 1.1-2.1 2.8v5.2h2.5zm-9.8 0h2.4v-5.2c.1-1.1-.4-2.2-1.4-2.8-.1-.1-.3-.2-.4-.3-.1.1-.3.2-.4.3-1 .6-1.5 1.7-1.4 2.8v5.2h1.2zm-2.5 0h.9v-5.2c-.1-1.3.5-2.5 1.6-3.2.2-.1.4-.3.5-.4l.2-.2.2.2c.2.2.3.3.5.4 1.1.7 1.7 1.9 1.6 3.2v5.2h.9V87.5l-.8.2-5.6 1.1v23.1zm-7.3 0h3.8l-.1-4.8h-3.6l-.1 4.8zm.7-25.2v1.6h2.4v-1.6h-2.4zm2.4-.5l.6-.4h-3.6l.4.4.1.1 2.5-.1zm21.6.8v-2.6h-8.2V87h8.2zm0-3v-1.2h-8.4l-1.1.3.4.9h9.1zm0-1.7v-2.5c-.2-.4-.5-.8-.9-1.1-.4-.4-.9-.7-1.5-1-.3-.1-.5-.3-.7-.5-.6-.6-.9-.6-1.5 0-.2.3-.5.5-.9.7-.8.3-1.5.9-1.9 1.7-.5.8-.8 1.8-.9 2.7h8.3zM130 89.8l-.2 7.5h3l-.2-7.5H130zm2.6-.5l.5-.5h-3.7l.5.5.1.1h2.6v-.1zm-2.8 9.7l-.2 6.4h3.4l-.2-6.4h-3zm3.1-.5l.6-.6v-.1h-4.2v.1l.5.5.1.1h3zm-3.3 8.2h3.5l.1-.1.6-.6v-.1H129v.2l.6.6zm.6-21.4h2.2v-.6c0-.2-.1-.3-.2-.4-.2-.2-.4-.4-.7-.6-.1-.1-.2-.1-.3-.1-.1 0-.2.1-.3.2l-.5.5c-.1.1-.2.2-.2.4v.6zm19.9-10.5c-.1.1-.1.1-.1.2s0 .1.1.2.1.1.2.1.1 0 .2-.1.1-.3 0-.4c-.1-.1-.2-.1-.4 0zm-3.8 26.1h6.3v-5.6c0-2-1.3-2.7-2.3-3.2-.3-.1-.5-.3-.8-.5l-.1-.1-.1.1c-.3.2-.5.3-.8.5-1.1.6-2.3 1.2-2.3 3.2v5.6h.1zm3-.4h2.8v-5.2c0-1.8-1.1-2.3-2.1-2.8-.3-.1-.5-.3-.7-.4-.2.1-.5.3-.7.4-1 .5-2.1 1.1-2.1 2.8v5.2h2.8zm-11.5.4h4.3v-5.6c.1-1.3-.5-2.6-1.6-3.2-.2-.1-.4-.3-.5-.4l-.2-.2-.2.2c-.2.2-.3.3-.5.4-1.1.7-1.7 1.9-1.6 3.2v5.6h.3zm3.9-.4v-5.2c.1-1.1-.4-2.2-1.4-2.8-.1-.1-.3-.2-.4-.3-.1.1-.3.2-.4.3-1 .6-1.5 1.7-1.4 2.8v5.2h3.6z" class="st0"/><path d="M202.7 81.4c0-.2.1-.2.2-.2s.2.1.2.2v1.7c.2.1.3.2.5.3l.6.6.3.6v.7h.7v.8l-.1.1-.4.3v1.8h.6v.7l-.1.1-.5.5.2 7.8h.6v.6l-.1.1-.5.5.2 6.7h.7v.8l-.1.1-.6.6.1 5.1h2.5v8h-40.6v-.5h40.2v-7.1h-40.2v-.5h7.1V98.6c0-4.6-2.7-6-5-7.3-.7-.3-1.4-.8-2-1.2l-.1-.1v-.6l.5.4c.6.4 1.2.8 1.8 1.1 2.4 1.3 5.2 2.9 5.2 7.7V112h7v-5.2c0-2 1.3-2.7 2.3-3.2.3-.1.6-.3.8-.5l.2-.1.1.1c.3.2.5.3.8.5 1.1.6 2.3 1.2 2.3 3.2v5.2h2.6V87.5H167V87h12.6v-7.4H167v-.5h12.6c1.4-2.7 1.4-6 .1-8.7-1.5-3.3-3.9-6-7.1-7.7-1.8.4-3.7.5-5.6.5v-.4c1.8.1 3.6-.1 5.4-.4l.1-.1c.3-.2.4-.3.3-.3-.3-.2-.7-.4-1.2-.5l-.9-.3c-.4-.2-.7-.4-1-.7-.4-.3-.8-.7-1.1-1.1l-.3-.3-.1-.1c-.4.1-.9.2-1.3.2v-.4c.3 0 .7-.1 1-.1 0-.2-.1-.4-.2-.5-.1-.1-.2-.2-.4-.3l-.5-.1v-.1h-.3l-.2-.2c.1 0 .2 0 .2-.1v-.1c-.1 0-.2-.1-.3-.2-.3-.3-.3-.8 0-1.1.1-.1.2-.2.3-.2v-.3c-.1 0-.2-.1-.3-.2-.3-.3-.3-.7 0-1 .1-.1.2-.1.3-.2v-.9c0-.1.1-.2.2-.2s.2.1.2.2v.8c.4.1.6.5.5.9 0 .1-.1.2-.2.3-.1.1-.2.1-.3.2v.3c.4.1.6.6.5 1 0 .1-.1.2-.2.3-.1.1-.2.2-.3.2v.1l.3.1c.3.1.5.2.7.5.2.2.3.5.3.8l.2.2c.1.1.2.2.4.3.3.4.6.7 1 1 .5.4 1.1.7 1.7.8.6.2 1.2.3 1.4.7s.1.5-.2.8c3.1 1.8 5.6 4.5 7 7.8 1.2 2.6 1.3 5.6.3 8.2l.2-.2c.5-.4 1-.8 1.6-1.1.2-.1.4-.3.6-.4.2-.3.5-.5.8-.5v-.5c-.1 0-.2-.1-.3-.2-.3-.3-.3-.7 0-1 .1-.1.2-.1.3-.2v-.9c0-.2.1-.2.2-.2s.2.1.2.2v.9c.4.1.6.5.5.9 0 .1-.1.2-.2.3-.1.1-.2.1-.3.2v.5h.2c.3.1.5.3.7.6.2.2.4.4.7.6.9.4 1.7 1.1 2.2 1.9.5.9.9 1.9.9 3l1.4.5-.7 1.6-.1.1h-.7V87h2.5l.8.2 5.8 1.1h.2v23.6h2.5l.1-5.1-.6-.6-.1-.1v-.8h.7l.2-6.7-.5-.5-.1-.1v-.8h.7l.2-7.8-.4-.5-.1-.1v-.7h.6v-1.8l-.5-.4-.1-.1v-.7h.7v-.7c0-.3.2-.5.3-.7.2-.3.5-.5.8-.7.1-.1.2-.1.2-.1l.6-1.5zm-35.4-25.2c-.1-.1-.3-.1-.5 0-.1.1-.1.3 0 .5s.3.1.5 0 .2-.4 0-.5zm0-1.7c-.1-.1-.3-.1-.4 0-.1.1-.1.3 0 .4.1.1.3.1.4 0 .1-.1.1-.3 0-.4zm18 57.4h2.5v-5.2c0-1.8-1.1-2.3-2.1-2.8-.3-.1-.5-.3-.7-.4-.2.1-.5.3-.7.4-1 .5-2.1 1.1-2.1 2.8v5.2h3.1zm9.8 0h1.2v-5.2c.1-1.1-.4-2.2-1.4-2.8-.1-.1-.3-.2-.4-.3-.1.1-.3.2-.4.3-1 .6-1.5 1.7-1.4 2.8v5.2h2.4zm2.6 0V88.7l-5.7-1.1-.8-.2v24.5h.9v-5.2c-.1-1.3.5-2.5 1.6-3.2.2-.1.4-.3.5-.4l.2-.2.2.2c.2.2.3.3.5.4 1.1.7 1.7 1.9 1.6 3.2v5.2h1zm7.2 0l-.1-4.8h-3.6l-.1 4.8h3.8zm-.7-25.2h-2.4v1.6h2.4v-1.6zm-2.4-.5h2.4l.1-.1.4-.4h-3.6l.7.5zm-21.6.8h8.2v-2.6h-8.2V87zm0-3h9.1l.4-.9-1.1-.3h-8.4V84zm0-1.7h8.2c-.1-1-.4-1.9-.9-2.7-.4-.8-1.1-1.4-1.9-1.7-.3-.2-.6-.4-.9-.7-.5-.6-.9-.6-1.5 0-.2.2-.4.4-.7.5-.5.3-1 .6-1.5 1-.4.3-.7.7-.9 1.1l.1 2.5zm24.1 7.5h-2.6l-.2 7.5h3l-.2-7.5zm-2.6-.5h2.6l.1-.1.5-.5h-3.7l.5.6zm2.8 9.7h-3.1l-.2 6.4h3.5l-.2-6.4zm-3.1-.5h3.1l.1-.1.5-.5v-.1h-4.2v.1l.5.6zm3.3 8.2l.6-.7v-.1h-4.8v.1l.6.6.1.1h3.5zm-.6-21.4v-.6c0-.1-.1-.3-.2-.4-.1-.2-.3-.4-.5-.5-.1-.1-.2-.2-.3-.2-.1 0-.2 0-.3.1-.3.2-.5.4-.7.6-.1.1-.2.2-.2.4v.6h2.2zm-20-10.5c-.1-.1-.3-.1-.4 0-.1.1-.1.3 0 .4.1.1.1.1.2.1s.1 0 .2-.1.1-.1.1-.2 0-.1-.1-.2zm3.9 26.1h.2v-5.6c0-2-1.3-2.7-2.3-3.2-.3-.1-.6-.3-.8-.5l-.1-.1-.1.1c-.3.2-.5.3-.8.4-1.1.6-2.3 1.2-2.3 3.2v5.6l6.2.1zm-3.1-.4h2.8v-5.2c0-1.8-1.1-2.3-2.1-2.8-.2-.1-.5-.3-.7-.4-.2.1-.5.3-.7.4-1 .5-2.1 1.1-2.1 2.8v5.2h2.8zm11.5.4h.2v-5.6c.1-1.3-.4-2.5-1.5-3.2-.2-.1-.4-.3-.5-.4l-.2-.2-.2.2c-.2.2-.3.3-.5.4-1.1.7-1.7 1.9-1.6 3.2v5.6h4.3zm-2-.4h1.8v-5.2c.1-1.1-.4-2.2-1.4-2.8-.1-.1-.3-.2-.4-.3-.1.1-.3.2-.4.3-1 .6-1.5 1.7-1.4 2.8v5.2h1.8z" class="st0"/><path d="M315.9 57.7c0-.1.1-.2.2-.2s.2.1.2.2v.7c.4.1.6.5.4.9 0 .1-.1.2-.2.3-.1.1-.2.1-.3.2v.3c.2 0 .3.1.5.3.4.4.4 1 0 1.4-.1.1-.3.2-.5.3v.4c.1 0 .2.1.3.2.3.3.3.8 0 1.1-.1.1-.2.1-.3.2v.6h3.6V64c-.1 0-.2-.1-.3-.2-.3-.3-.3-.8 0-1.1.1-.1.2-.2.3-.2v-.4c-.2 0-.4-.1-.5-.3-.4-.4-.4-1 0-1.4.1-.1.3-.2.5-.3v-.3c-.1 0-.2-.1-.3-.2-.3-.3-.3-.7 0-1 .1-.1.2-.1.3-.2v-.7c0-.1.1-.2.2-.2s.2.1.2.2v.7c.4.1.6.5.4.9 0 .1-.1.2-.2.3-.1.1-.2.1-.3.2v.3c.2 0 .3.1.5.3.4.4.4 1 0 1.4-.1.1-.3.2-.5.3v.4c.1 0 .2.1.3.2.3.3.3.8 0 1.1-.1.1-.2.1-.3.2v.6h1.7V62c0-.8.1-1.5.3-2.3.1-.7.4-1.1.7-1.1s.5.5.7 1.1c.2.7.2 1.5.3 2.3v2.6h.8v.2c.4 1.1.6 2.3.5 3.5 0 1.2-.2 2.3-.7 3.4v.1h-1.2v.8h-.2l.7 4.8h.2v.2l.8 5.8h.2v.2l.9 5.5h.5v.2l1 6h.4V95l1 6.9h.6v.2l.3 2.1-.4-.1-.3-1.8h-15.7l-.7 1.7h1.2l-.2.3-.9 1.5.6 3.2h11.7l.2.4h-11.8l.3 1.8h2.5l.1.1.8 1.5v1.8h-1v3.7h10.3v.4H289v-.4h10.2v-3.7h-1v-1.8l.9-1.5.1-.1h2.1l.3-1.8H287v-.4h14.7l.6-3.2-.9-1.5-.2-.3h1.2l-.7-1.7H287v-.4h15.4l.8-4.5-.7-1.2-.2-.3h1l-.4-.7H288l-.9 5.6V98l.5-3.1v-.2h.5l1-6v-.2h.5l.9-5.5v-.2h.3l.8-5.8v-.2h.2l.7-4.8h-.4v-.8h-1.2v-.1c-.4-1.1-.6-2.2-.6-3.4 0-1.2.2-2.3.5-3.5V64h.9v-2.6c0-.8.1-1.5.3-2.3.1-.7.4-1.1.7-1.1s.5.5.7 1.1c.2.7.2 1.5.3 2.3V64h2.1v-.6c-.1 0-.2-.1-.3-.2-.3-.3-.3-.8 0-1.1.1-.1.2-.2.3-.2v-.4c-.2 0-.4-.1-.5-.3-.4-.4-.4-1 0-1.4.1-.1.3-.2.5-.3v-.3c-.4-.1-.6-.5-.4-.9 0-.1.1-.2.2-.3.1-.1.2-.1.3-.2v-.7c0-.1.1-.2.2-.2s.2.1.2.2v.7c.4.1.6.5.4.9 0 .1-.1.2-.2.3-.1.1-.2.1-.3.2v.3c.2 0 .3.1.5.3.4.4.4 1 0 1.4-.1.1-.3.2-.5.3v.4c.1 0 .2.1.3.2.3.3.3.8 0 1.1-.1.1-.2.1-.3.2v.6h3.6v-.6c-.1 0-.2-.1-.3-.2-.3-.3-.3-.8 0-1.1.1-.1.2-.2.3-.2v-.4c-.2 0-.4-.1-.5-.3-.4-.4-.4-1 0-1.4.1-.1.3-.2.5-.3v-.3c-.1 0-.2-.1-.3-.2-.3-.3-.3-.7 0-1 .1-.1.2-.1.3-.2v-.7c0-.1.1-.2.2-.2s.2.1.2.2v.7c.3.1.5.4.5.7 0 .2-.1.4-.2.5-.1.1-.2.1-.3.2v.3c.2 0 .3.1.5.3.4.4.4 1 0 1.4-.1.1-.3.2-.5.3v.4c.1 0 .2.1.3.2.3.3.3.8 0 1.1-.1.1-.2.1-.3.2v.6h3.6v-.6c-.1 0-.2-.1-.3-.2-.3-.3-.3-.8 0-1.1.1-.1.2-.2.3-.2v-.4c-.2 0-.4-.1-.5-.3-.4-.4-.4-1 0-1.4.1-.1.3-.2.5-.3v-.3c-.1 0-.2-.1-.3-.2-.3-.3-.3-.7 0-1 .1-.1.2-.1.3-.2v-.7c0-.1.1-.2.2-.2s.2.1.2.2v.7c.4.1.6.5.4.9 0 .1-.1.2-.2.3-.1.1-.2.1-.3.2v.3c.2 0 .3.1.5.3.4.4.4 1 0 1.4-.1.1-.3.2-.5.3v.4c.4.1.6.6.5.9 0 .1-.1.2-.2.3-.1.1-.2.1-.3.2v.6h3.6v-.6c-.1 0-.2-.1-.3-.2-.3-.3-.3-.8 0-1.1.1-.1.2-.2.3-.2v-.4c-.2 0-.4-.1-.5-.3-.4-.4-.4-1 0-1.4.1-.1.3-.2.5-.3v-.3c-.4-.1-.6-.5-.4-.9 0-.1.1-.2.2-.3.1-.1.2-.1.3-.2V57c0-.1.1-.2.2-.2s.2.1.2.2v.7c.4.1.6.5.4.9 0 .1-.1.2-.2.3-.1.1-.2.1-.3.2v.3c.2 0 .3.1.5.3.4.4.4 1 0 1.4-.1.1-.3.2-.5.3v.4c.1 0 .2.1.3.2.3.3.3.8 0 1.1-.1.1-.2.1-.3.2v.6h3.6v-.6c-.1 0-.2-.1-.3-.2-.3-.3-.3-.8 0-1 .1-.1.2-.2.3-.2v-.4c-.2 0-.4-.1-.5-.3-.4-.4-.4-1 0-1.4.1-.1.3-.2.5-.3v-.3c-.1 0-.2-.1-.3-.2-.3-.3-.3-.7 0-1 .1-.1.2-.1.3-.2v-.7c0-.1.1-.2.2-.2s.2.1.2.2v.7c.4.1.6.5.4.9 0 .1-.1.2-.2.3-.1.1-.2.1-.3.2v.3c.2 0 .3.1.5.3.4.4.4 1 0 1.4-.1.1-.3.2-.5.3v.4c.1 0 .2.1.3.2.3.3.3.8 0 1.1-.1.1-.2.1-.3.2v.6h3.6v-.6c-.1 0-.2-.1-.3-.2-.3-.3-.3-.8 0-1.1.1-.1.2-.2.3-.2v-.4c-.2 0-.4-.1-.5-.3-.4-.4-.4-1 0-1.4.1-.1.3-.2.5-.3v-.3c-.4-.1-.6-.5-.4-.9 0-.1.1-.2.2-.3.1-.1.2-.1.3-.2v-.7l.2.6zm-17.3 55.8v.9h18.2v-.9h-18.2zm18.2-.4l-.7-1.4h-16.6l-.8 1.4h18.1zm-4 5.3v-2.2h-1.1v2.2h1.1zm-9 0v-2.2h-1.1v2.2h1.1zm4.9-16h-6.5l.7 1.7h9.4l.7-1.7h-4.3zm-2-.4h2v-3.4h-2v3.4zm-.1-25v-2.7h2.2V77h2.5l-.6-3.1h-5.9l-.6 3.1h2.4zm1.8 0v-2.3H307V77h1.4zm-3.6-3.6h6l.3-.4h-6.7l.3.4h.1zm17.6-1.2h-11.1l-.2.4h.7l-.2.3-.5.8.6 3.2h11.5l-.8-4.7zm-18.1.4l-.2-.4h-11l-.8 4.8h11.5l.6-3.2-.5-.8-.2-.3.6-.1zm6.6-.4h-6.3l.2.4h5.9l.2-.4zm-4.4 10.7v-3.1h2.3V83h2.6l-.6-3.6h-6.4l-.6 3.6 2.7-.1zm2 0v-2.7H307v2.7h1.5zm-3.9-4h6.4l.3-.5H304l.3.5h.3zm19.7 4l-.8-5.5h-11.9l-.3.5h.8l-.2.3-.6 1 .6 3.7h12.4zm-32.4-5.5l-.8 5.5h12.3l.6-3.7-.6-1-.2-.3h.8l-.3-.5h-11.8zm19.2 0h-6.9l.3.5h6.3l.3-.5zm-4.6 11.2v-3h2.5v3h2.9l-.7-3.4h-6.9l-.7 3.4h2.9zm2 0V86h-1.6v2.6h1.6zm-4.1-3.8h6.9l.3-.5h-7.8l.3.5h.3zm21.1 3.8l-.9-5.3h-12.8l-.3.5h.8l-.2.3-.6.9.7 3.6h13.3zm-13.1-4.8zm-21.6-.5l-.9 5.3h13.2l.7-3.6-.6-.9-.2-.3h.8l-.3-.5h-12.7zm20.6 0H304l.3.5h6.8l.3-.5zm-5 11.5v-3.2h2.6v3.3h3.1l-.7-3.8H304l-.7 3.7h3.1zm2.2 0V92h-1.8v2.8h1.8zm-4.5-4.2h7.5l.4-.6h-8.5l.4.6h.2zm23 4.2l-.9-5.7h-13.9l-.4.6h.9l-.2.3-.7 1 .8 3.8h14.4zM289.4 89l-.9 5.7h14.4l.8-3.8-.7-1-.2-.3h.9l-.4-.6h-13.9zm22.4 0h-8l.4.6h7.3l.3-.6zm-8.9 12.9h3.4v-3.8h2.8v3.8h3.4l-.8-4.4h-8.1l-.7 4.4zm.9-4.8h8.1l.5-.7h-9.2l.5.7h.1zm8.4.3l.7 4 .1.5h15.5l-1-6.7h-15l-.4.7h1l-.2.3-.7 1.2zm-.1-2.2h-8.8l.4.7h7.9l.5-.7zm1 14.1v-.3l-.6-3.1h-9.7l-.6 3.1v.4l-.3 1.8h4.3v-4.5h3.3v4.5h4l-.3-1.8v-.2h-.1zm-.9-4.8H302l.6 1h10l.6-1h-1zm-3.2 4.7v-2.1h-2.4v4h2.4v-1.9zm13.9-37.9h-30.4v.4h30.3l.1-.4zm-14.6-.4v-2h-1.1v2h1.1zm-17 0h15.5v-2.4h2V71h15.5c.4-1 .6-2.1.6-3.1 0-1.1-.2-2.2-.5-3.2h-33.3c-.3 1-.5 2.1-.5 3.2 0 1 .2 2.1.7 3zm.8-7.6v.9h.9v-2.6c0-.7-.1-1.5-.2-2.2-.1-.5-.2-.8-.3-.8s-.2.3-.3.8c-.2.7-.2 1.4-.2 2.2v1.7h.1zm30.4 0v.9h.9v-2.6c0-.7-.1-1.5-.2-2.2-.1-.5-.2-.8-.3-.8s-.2.3-.3.8c-.2.7-.2 1.4-.2 2.2v1.7h.1zm-9.2 55.1h2.5v-3.7h-16.1v3.7h2.5v-2.7h2v2.7h7v-2.7h2l.1 2.7zm7.1-59.6c-.1-.1-.1-.1-.2-.1s-.3.1-.3.3c0 .1.1.3.3.3.1 0 .3-.1.3-.3 0-.1 0-.2-.1-.2zm.2 1.6c-.2-.2-.6-.2-.8 0-.2.2-.2.6 0 .8.2.2.6.2.8 0 .2-.2.2-.5 0-.8zm-.2 2.3c-.1-.1-.1-.1-.2-.1s-.2 0-.2.1c-.1.1-.1.1-.1.2 0 .2.1.3.3.3.1 0 .2 0 .2-.1.1-.1.1-.1.1-.2s0-.2-.1-.2zm-24.5-3.9c-.1-.1-.3-.1-.4 0-.1.1-.1.3 0 .4.1.1.3.1.4 0l.1-.1c0-.1 0-.2-.1-.3zm.2 1.6c-.2-.2-.6-.2-.8 0-.2.2-.2.6 0 .8.2.2.6.2.8 0 .2-.2.2-.5 0-.8zm-.1 2.3c-.1-.1-.1-.1-.2-.1s-.2 0-.2.1c-.1.1-.1.1-.1.2 0 .2.1.3.3.3.1 0 .2 0 .2-.1.1-.1.1-.1.1-.2-.1-.1-.1-.2-.1-.2zm4-3.9c-.1-.1-.2-.2-.4-.1-.1.1-.2.2-.1.4s.2.2.4.1c.1 0 .1-.1.1-.1v-.3zm.2 1.7c-.2-.2-.6-.2-.8 0-.2.2-.2.6 0 .8.2.2.6.2.8 0 .2-.2.2-.6 0-.8zm-.2 2.2c-.1-.1-.3-.1-.5 0-.1.1-.1.1-.1.2 0 .2.2.3.3.3.1 0 .2 0 .2-.1.1-.1.1-.1.1-.2.1 0 .1-.1 0-.2zm4-3.9c-.1-.1-.3-.1-.4 0-.1.1-.1.3 0 .4.1.1.3.1.4 0 .1-.1.1-.1.1-.2s0-.1-.1-.2zm.2 1.7c-.2-.2-.6-.2-.8 0-.2.2-.2.6 0 .8.2.2.6.2.8 0 .2-.2.2-.6 0-.8zm-.2 2.2c-.1-.1-.3-.1-.5 0-.1.1-.1.4.1.5.1.1.3.1.4 0 .1-.1.1-.1.1-.2s0-.2-.1-.3zm4.1-3.9c-.1-.1-.3-.1-.4 0-.1.1-.1.3 0 .4.1.1.3.1.4 0 .1-.1.1-.1.1-.2-.1-.1-.1-.1-.1-.2zm.2 1.7c-.2-.2-.6-.2-.8 0-.2.2-.2.6 0 .8.2.2.6.2.8 0 .2-.2.2-.6 0-.8zm-.2 2.2c-.1-.1-.3-.1-.5 0-.1.1-.1.1-.1.2 0 .2.1.3.3.3.1 0 .2 0 .2-.1.2 0 .2-.3.1-.4zm4-3.9c-.1-.1-.3-.1-.4 0-.1.1-.1.2 0 .3.1.1.3.1.4 0 .2 0 .2-.2 0-.3zm.2 1.7c-.2-.2-.6-.2-.8 0-.2.2-.2.6 0 .8.2.2.6.2.8 0 .3-.2.3-.6 0-.8zm-.1 2.2c-.1-.1-.3-.1-.5 0-.1.1-.1.1-.1.2 0 .2.1.3.3.3.1 0 .2 0 .2-.1.2 0 .2-.3.1-.4zm4-3.9c-.1-.1-.3-.1-.4 0-.1.1-.1.3 0 .4.1.1.3.1.4 0 .1-.1.1-.1.1-.2s0-.1-.1-.2zm.2 1.7c-.2-.2-.6-.2-.8 0-.2.2-.2.6 0 .8.2.2.6.2.8 0 .2-.2.2-.6 0-.8zm-.1 2.2c-.1-.1-.1-.1-.2-.1s-.2 0-.2.1c-.1.1-.1.4.1.5.1.1.3.1.4 0 .1-.1.1-.1.1-.2-.1-.1-.2-.2-.2-.3z" class="st1"/><path d="M291.2 114.7v4.7h-38.7v-4.7h-.1V113h.3v-1.6h.4v-1.6h37.6v1.6h.4v1.6h.3v1.7h-.2zm-37.7-3.4h36.8v-1.1h-36.7l-.1 1.1zm-.5 1.7h37.6v-1.2H253v1.2zm-.3 1.2h38.2v-.8h-38.2v.8zm38.1 4.8v-4.3h-37.9v4.3h37.9zm-22.2-15.4s-2.6.3-2 1.4l-.4.2c-.9-1.7 2.3-2.1 2.3-2.1l.1.5zm5.6.1c1 0 2 .2 2.9.5.3.2.7.4 1.1.5l1.5.3v.4c-.5 0-1.1-.1-1.6-.3-.4-.1-.8-.3-1.2-.5-.9-.3-1.8-.4-2.7-.5v-.4z" class="st2"/><path d="M268.8 89.8v6.6c0 1.2.9 2.3 2.1 2.6 1 .3 2 .3 3 0 1.2-.3 2.1-1.3 2.1-2.6v-6.5c-.5-.1-.9-.4-1.2-.7-.2.2-.4.4-.7.6-.5.3-1 .5-1.6.5-.6 0-1.1-.1-1.6-.3-.4-.2-.8-.5-1.1-.8-.2.3-.6.5-1 .6zm7.6.2l.3.1c.2.1.5.1.7.2 1 .1 1.9.4 2.8.9 2.2 1.1 1.9 4.8 1.8 6v.2c-.1.5 0 1.1.2 1.6l.1.4c.1.5.2 1.1.2 1.6v1.9c-.1.2 0 .5.2.7l.1.1v.1c-.1.1-.2.3-.1.5v.3c0 .1.1.2.1.3-2.8.3-7.8.3-12.3.2-.1-.1-.2-.2.1-.3.7-.3.9-.1.9-.1l.4-.2s0-.2.5-.2c.3.1.7.1 1 .1.3 0 .7-.1 1-.2 1-.3 2-.7 2.9-1.2.7-.4 1.2-.8 1.2-1.3.1-.7.1-2.7 0-4.5 0-.9-.1-1.9-.3-2.8-.1-.3-.5-.2-.4.1.2.9.3 1.8.2 2.7.1 1.7 0 3.8 0 4.4 0 .3-.5.6-1 .9-.9.5-1.8.9-2.8 1.2-.2 0-.4.1-.5.1 0-.7-.5-.9-1.2-.9-.4 0-.9.1-1.3.2l-.4.1c-.5.1-1 .1-1.5.1s-1-.1-1.4-.3l-.3-.1c-.7-.2-1.4-.4-1.4-.7 0-1.5 0-2.9.2-4.4.1-1.1.2-2.2.4-3.3.1-.1 0-.2-.1-.3-.1-.1-.2 0-.3.1v.1c-.2 1.1-.4 2.3-.4 3.4-.1 1.5-.2 3-.2 4.4 0 .5.8.8 1.7 1l.3.1c.5.2 1 .3 1.5.3s1 0 1.5-.1l.4-.1c.4-.1.8-.1 1.2-.2.4 0 .7.1.7.5-.3 0-.6 0-.9-.1-.6-.1-.9.1-1 .3-.3-.1-.7 0-1 .2-.5.2-.6.5-.5.7-3.3-.1-6.3-.2-7.9-.2 0-.1.1-.2.1-.2v-.3c0-.2 0-.3-.1-.5 0-.1-.1-.1 0-.1l.1-.1c.2-.2.3-.4.2-.7v-1.9c0-.5.1-1.1.2-1.6l.1-.4c.2-.5.2-1 .2-1.6V97c-.1-1.2-.4-4.9 1.8-6 .9-.5 1.8-.8 2.8-.9.2 0 .4-.1.6-.1l.4-.1v6.5c0 1.4 1 2.7 2.4 3 1.1.3 2.2.3 3.2 0 1.4-.3 2.4-1.6 2.4-3l.2-6.4zm-21.7 20.1c-.4-.7-.6-1.4-.8-2.2-.1-.6-.1-1.2.1-1.7.3-.8 1-1.4 1.9-1.6 1.2-.2 2.3-.2 3.5 0 .5.1 1 .1 1.5.1h.2c.5 0 .6-.2.6-.3v-.4c0-.1 0-.2-.1-.2-.1-.2-.2-.4 0-.6l.1-.1c.1-.1.1-.2.1-.3-.1-.7-.1-1.3 0-2 0-.6.1-1.1.2-1.7l.1-.4c.2-.4.2-.9.1-1.4v-.2c-.1-1.2-.5-5.2 2-6.4.9-.5 1.9-.8 2.9-.9.2 0 .4-.1.7-.1.6 0 1.2-.3 1.6-.7.2-.3 0-.7-.7-1.3-.6-.4-.9-1.1-.8-1.8.1-.4.3-.8.7-1 0-.5 0-1.1.1-1.6.1-.3.1-.5.3-.8.2-.4.4-.7.7-1 .4-.3.6-.7.9-1.1l.1-.2c.1-.2.3-.5.5-.6.3-.2.7-.4 1.1-.4.4 0 .8.1 1.1.4.2.2.4.4.5.6l.1.2c.2.4.5.8.9 1.1.3.3.6.6.7 1 .1.3.2.5.3.8.1.5.1 1.1.1 1.6.4.2.6.6.7 1 .1.7-.2 1.4-.8 1.8-.7.6-.9 1-.7 1.3.4.4 1 .7 1.6.7.2.1.4.1.7.1 1 .1 2 .5 2.9.9 2.5 1.3 2.1 5.2 2 6.4v.2c-.1.5 0 1 .1 1.4l.1.4c.1.5.2 1.1.2 1.7.1.7.1 1.3 0 2 0 .1 0 .2.1.3l.1.1c.2.3.1.4 0 .6 0 .1-.1.1-.1.2v.4c0 .1.1.2.5.3.6 0 1.1 0 1.7-.1 1.2-.2 2.3-.2 3.5 0 .9.2 1.6.8 1.9 1.6.2.5.2 1.1.1 1.7-.2.8-.4 1.5-.8 2.2l-.1.1h-35v-.1zm-.3-2.2c.1.7.4 1.3.7 1.9h34.6c.3-.6.5-1.3.7-1.9.1-.5.1-1-.1-1.5-.3-.7-.9-1.2-1.6-1.4-1.1-.2-2.2-.2-3.3 0-.6.1-1.1.1-1.7.1-4.4.4-8.9.5-13.3.3-5-.1-9.4-.3-9.4-.3-.5 0-1 0-1.5-.1-1.1-.2-2.2-.2-3.3 0-.7.2-1.3.7-1.6 1.4-.3.5-.3 1-.2 1.5zm20.3-19.4c-.2.4-.4.7-.8.9-.4.3-.9.4-1.4.4-.5 0-1-.1-1.4-.3-.4-.2-.8-.5-1.1-.9-.1-.6-.5-1-1-1.3 0 0-.8-.6-.6-1.4s.5-.8.5-.8h.2v-.2c0-.6 0-1.1.1-1.7.1-.2.1-.5.2-.7.2-.3.4-.6.6-.8.2-.1.3-.3.5-.5 1.2-.5 2.5-.4 3.6.1l.4.4c.3.2.5.5.6.8.1.2.2.5.2.7.1.5.1 1.1.1 1.7v.2h.2s.3 0 .5.8-.6 1.4-.6 1.4c-.3.3-.6.7-.8 1.2zm-1-7.8l-.1-.2-.1-.2c-.1-.2-.2-.4-.4-.5-.5-.4-1.1-.4-1.6 0-.2.1-.3.3-.4.5l-.1.2-.1.2c.9-.3 1.9-.3 2.8 0z" class="st2"/><path d="M271.4 104.6s.1.2.2.1.1-.1.1-.3-.3-.1-.3-.1v.3z" class="st2"/><path d="M359.8 56.9v-.4h.2l-.5-1.9h-.2l-.1-.1c-.2-.3-.4-.5-.7-.8l-.7-.8-.9-1-.8-.9-.9-1-.9-1-.9-1.2-.9-1.2c-.8-1.2-1.4-2.5-1.8-3.9-.5-1.7-.3-3.5.5-5 .2-.3.3-.6.5-.9l.1-.2.1-.2.1-.2.1-.2c.2-.3.3-.5.5-.7l.1-.2.1-.2c.2-.3.5-.5.8-.7l.1-.1.1-.1c.2-.1.4-.2.6-.2l.2-.2c.2-.2.4-.3.6-.5l.6-.3c.2-.1.5-.1.7-.1.2 0 .4 0 .6.1.2-.1.3-.2.5-.3l.6-.3c.2-.1.5-.1.8-.1.2 0 .5.1.7.3.2-.1.3-.2.5-.3.2-.1.4-.1.6-.1.2 0 .4 0 .6.1.2.1.4.1.5.2h.1c.2-.1.5-.1.7-.1h.6c.4.1.8.2 1.1.5h.3c.3 0 .5.1.8.2.2.1.5.2.7.3.3.2.6.3.8.6.2.2.4.4.5.6v.1l.2.1.3.2.3.2c.5.4.9.9 1.1 1.5v.1c.1.2.1.3.2.5s.1.3.2.5c.3.8.4 1.7.4 2.6v.9c-.1.6-.2 1.3-.4 1.9l-.1.2-.1.2c-.1.3-.3.7-.4 1s-.3.7-.5 1c-.1.3-.3.6-.4.8s-.3.5-.5.8l-.5.8-.5.8-.5.7-.5.7-.5.7-.5.7-.5.7-.5.7-.6.8-.4.5-.2.2-.2.2-.1.1h-.5l-.5 1.9h.2v1.6l-.4.6-.1.1h-1.4l-.1-.1-.4-.6.7-1.2zm1.4-2.3v1.9h.4l.5-1.9h-.9zm-.4 2v-1.9h-.9l.5 1.9h.4zm-5.9-22.4c-1.4 2.4-1.9 5.2-1.5 8 .3 1.9 1 3.8 2 5.5 1.3 2.3 2.8 4.5 4.5 6.5-1.7-2.8-3-5.8-3.8-8.9-.1-.5-.2-1.1-.3-1.6-.1-.5-.1-1-.2-1.5-.3-3 .2-6.1 1.4-8.9-.3-.1-.6-.1-.9 0-.2.1-.4.1-.5.2-.2.1-.4.3-.5.4l-.2.2v.1zm4.6 20c-1.6-2-3.1-4.1-4.4-6.3-1-1.7-1.7-3.7-2-5.7-.4-2.7.1-5.4 1.3-7.9l-.1.1-.1.1-.1.1c-.3.2-.5.4-.7.6l-.1.2-.1.2c-.2.2-.4.5-.5.7l-.1.2-.1.2-.1.2-.1.2c-.2.3-.4.6-.5.9-.7 1.5-.9 3.2-.4 4.7.4 1.4 1 2.6 1.8 3.8l.9 1.2.9 1.2.8 1 .9 1 .8.9.9 1 .7.8.4.6zm.5-21.3c-.2.9-1.8 9.2.9 21.3h.1c2.7-12.3 1-20.7.9-21.5-.1-.1-.2-.1-.4-.2s-.3-.1-.5-.1-.3 0-.5.1c-.2.2-.3.3-.5.4zm.5 21.3c-2.7-12.2-1.1-20.5-.9-21.4-.1-.1-.3-.2-.5-.2h-.6c-.2.1-.3.1-.5.2s-.4.2-.5.3c-1.2 2.8-1.7 5.8-1.4 8.8 0 .5.1 1 .2 1.5s.2 1 .3 1.6c.8 3.2 2.1 6.2 3.9 9v.2zm1.8-21.4c.3 1.4 1.7 9.6-.9 21.4h.1c1.7-2.8 3-5.8 3.8-9 .1-.5.2-1.1.3-1.6.1-.5.1-1 .2-1.5.3-3.1-.2-6.3-1.4-9.1l-.2-.1c-.2-.1-.3-.1-.5-.2h-.5c-.2 0-.4 0-.6.1h-.3zm2.6.5c1.1 2.8 1.6 5.9 1.3 8.9 0 .5-.1 1-.2 1.5s-.2 1.1-.3 1.6c-.8 3.2-2 6.2-3.8 9h.1c1.7-2 3.2-4.2 4.5-6.5 1-1.7 1.7-3.6 2-5.6.6-4.4-.7-7-.9-7.4-.1-.2-.3-.4-.5-.6-.2-.2-.5-.4-.7-.5l-.6-.3c-.2-.1-.5-.1-.7-.2l-.2.1zm3.2 2c.8 2.2 1.1 4.6.7 7-.3 2-1 3.9-2 5.7-1.2 2.2-2.7 4.3-4.3 6.3h.2l.1-.2.2-.2.4-.5.6-.8.5-.7.5-.7.5-.7.5-.7.5-.7.5-.7.5-.8.5-.8.5-.8c.1-.3.3-.6.4-.8.1-.3.3-.6.4-.9.1-.3.3-.6.4-1l.1-.2.1-.2c.2-.6.3-1.2.4-1.8v-.8c0-.8-.1-1.7-.4-2.5 0-.2-.1-.3-.2-.5s-.1-.3-.2-.4v-.1c-.3-.5-.6-1-1.1-1.4l-.3-.1zm-7.9 21.6v1l.3.4h1l.3-.4v-1h-1.6z" class="st1"/><path d="M265.5 68.9v-.3h.1l-.4-1.5h-.2V67l-.5-.6-.6-.7-.7-.8-.6-.7-.7-.8-.7-.8c-.3-.3-.5-.6-.8-1s-.5-.7-.7-1c-.7-1-1.1-2-1.5-3.1-.4-1.3-.3-2.8.4-4 .1-.2.3-.5.4-.7l.1-.1.1-.1.1-.1.1-.1c.1-.2.3-.4.4-.6l.1-.1.1-.1c.2-.2.4-.4.6-.5l.1-.1.1-.1c.2-.1.3-.1.5-.2l.1-.2c.1-.1.3-.3.5-.4.1-.1.3-.2.5-.2.2-.1.4-.1.5-.1.2 0 .3 0 .5.1.1-.1.2-.2.4-.2.1-.1.3-.2.5-.2h.6c.2 0 .4.1.5.2.1-.1.3-.2.4-.2.2-.1.3-.1.5-.1s.3 0 .5.1c.1 0 .3.1.4.2h.1c.2 0 .4-.1.5-.1h.5c.3.1.6.2.9.4h.2c.2 0 .4.1.6.2.2.1.4.1.5.2.2.1.4.3.6.5.2.1.3.3.4.5l.1.1.2.2.2.2c.4.3.7.7.9 1.2v.1c.1.1.1.2.2.4s.1.3.1.4c.2.7.3 1.4.3 2v.7c0 .5-.1 1-.3 1.5l-.1.2-.1.2c-.1.3-.2.5-.3.8s-.2.5-.4.8c-.1.2-.2.4-.4.7l-.4.7-.4.6-.4.6-.4.6-.4.6-.4.5-.4.5-.4.5-.4.5-.5.7-.3.4-.1.2.6-.3h-.4l-.4 1.5h.1v1.2l-.3.5v.1h-1v-.1l-.3-.5v-.8h-.2zm1.1-1.8v1.5h.3l.4-1.5h-.7zm-.3 1.5v-1.5h-.7l.4 1.5h.3zm-4.6-17.7c-1.1 1.9-1.5 4.2-1.1 6.4.3 1.5.8 3 1.6 4.4 1 1.8 2.2 3.5 3.6 5.1-1.4-2.2-2.4-4.6-3-7.1-.1-.4-.2-.8-.2-1.3-.1-.4-.1-.8-.1-1.2-.2-2.4.2-4.8 1.1-7.1h-.3c-.2 0-.3 0-.5.1-.1 0-.3.1-.4.2-.2.1-.3.2-.4.3l-.3.2zm3.5 15.9c-1.3-1.6-2.5-3.2-3.5-5-.8-1.4-1.3-2.9-1.6-4.5-.3-2.1 0-4.3 1-6.2h-.2l-.1.1c-.2.1-.4.3-.6.5l-.1.1-.1.1c-.1.2-.3.4-.4.6l-.1.1-.1.1-.1.1-.1.1c-.1.2-.3.4-.4.7-.6 1.2-.7 2.5-.4 3.8.3 1.1.8 2.1 1.4 3 .2.3.4.7.7 1s.5.6.7.9l.7.8.7.8.6.7.7.8.6.7.7.7zm.5-16.9c-.1.7-1.4 7.2.7 16.9h.1c2.1-9.8.8-16.4.7-17-.1-.1-.2-.1-.3-.1-.1 0-.3-.1-.4 0-.1 0-.3 0-.4.1-.1 0-.3.1-.4.1zm.4 16.9c-2.1-9.6-.9-16.2-.7-16.9-.1-.1-.2-.1-.4-.1h-.5c-.1 0-.3.1-.4.2-.1.1-.3.2-.4.3-1 2.2-1.4 4.6-1.1 7 0 .4 0 .8.1 1.2s.2.8.2 1.2c.6 2.5 1.6 5 3 7.2l.2-.1zm1.4-17c.2 1.1 1.3 7.6-.7 17h.1c1.4-2.2 2.4-4.6 3-7.2.1-.4.2-.9.2-1.3.1-.4.1-.8.1-1.2.2-2.4-.2-4.9-1.1-7.1l-.2-.1c-.1-.1-.3-.1-.4-.1h-1zm2 .3c.9 2.2 1.2 4.6 1.1 7 0 .4-.1.8-.1 1.2s-.1.8-.2 1.3c-.6 2.5-1.6 4.9-3 7.1h.1c1.3-1.6 2.5-3.3 3.5-5.1.8-1.4 1.3-2.9 1.6-4.4.4-2 .1-4-.7-5.8-.1-.2-.2-.3-.4-.5s-.4-.3-.6-.4c-.2-.1-.3-.2-.5-.2-.4-.1-.6-.1-.8-.2zm2.6 1.6c.7 1.8.8 3.7.5 5.5-.3 1.6-.8 3.1-1.6 4.5-1 1.8-2.1 3.4-3.4 5h.2l.1-.1.1-.2.3-.4.5-.7.4-.5.4-.5.4-.5.4-.5.4-.6.4-.6.4-.6.4-.6.4-.7.3-.7c.1-.2.2-.5.4-.7.1-.2.2-.5.3-.8l.1-.2.1-.2c.2-.5.3-.9.3-1.4v-.7c0-.7-.1-1.4-.3-2 0-.1-.1-.2-.1-.4s-.1-.2-.1-.3v.2c-.2-.4-.5-.8-.8-1.1l-.5-.2zm-6.3 17.2v.8l.2.3h.8l.2-.3v-.8h-1.2zM381.2 58h-.2v-2.8c0-1.6-2.3-3.4-2.9-3.9V50c0-.2-.1-.3-.3-.3s-.3.1-.3.3v1.3c-.6.5-2.9 2.3-2.9 3.9V58h-.2c-.2 0-.3.1-.3.3v63c0 .2.1.3.3.3h7c.2 0 .3-.1.3-.3v-63c-.2-.1-.3-.3-.5-.3zm-3.5-6.1c.8.6 2.3 1.9 2.5 3h-5.1c.3-1 1.8-2.3 2.6-3zm-2.6 3.7h5.2V58h-5.2v-2.4zm5.7 65.4h-6.3V58.7h6.3V121zm-3.1-71.8c.2 0 .3-.1.3-.3v-1.3c0-.2-.1-.3-.3-.3s-.3.1-.3.3v1.3c0 .2.1.3.3.3z" class="st2"/><path d="M375.5 60.2h1.5c.2 0 .3-.1.3-.3 0-.2-.1-.3-.3-.3h-1.5c-.2 0-.3.1-.3.3 0 .1.1.3.3.3zm0 1.3h1.5c.2 0 .3-.1.3-.3 0-.2-.1-.3-.3-.3h-1.5c-.2 0-.3.1-.3.3 0 .2.1.3.3.3zm0 1.4h1.5c.2 0 .3-.1.3-.3 0-.2-.1-.3-.3-.3h-1.5c-.2 0-.3.1-.3.3 0 .2.1.3.3.3zm0 1.3h1.5c.2 0 .3-.1.3-.3 0-.2-.1-.3-.3-.3h-1.5c-.2 0-.3.1-.3.3 0 .2.1.3.3.3zm0 1.4h1.5c.2 0 .3-.1.3-.3 0-.2-.1-.3-.3-.3h-1.5c-.2 0-.3.1-.3.3 0 .2.1.3.3.3zm0 1.4h1.5c.2 0 .3-.1.3-.3 0-.2-.1-.3-.3-.3h-1.5c-.2 0-.3.1-.3.3 0 .1.1.3.3.3zm0 1.3h1.5c.2 0 .3-.1.3-.3 0-.2-.1-.3-.3-.3h-1.5c-.2 0-.3.1-.3.3 0 .2.1.3.3.3zm1.5 1.4c.2 0 .3-.1.3-.3 0-.2-.1-.3-.3-.3h-1.5c-.2 0-.3.1-.3.3 0 .2.1.3.3.3h1.5zm2.9-10.2h-1.5c-.2 0-.3.1-.3.3 0 .2.1.3.3.3h1.5c.2 0 .3-.1.3-.3 0-.1-.2-.2-.3-.3zm0 1.4h-1.5c-.2 0-.3.1-.3.3 0 .2.1.3.3.3h1.5c.2 0 .3-.1.3-.3 0-.2-.2-.3-.3-.3zm0 1.3h-1.5c-.2 0-.3.1-.3.3 0 .2.1.3.3.3h1.5c.2 0 .3-.1.3-.3 0-.1-.2-.2-.3-.3zm0 1.4h-1.5c-.2 0-.3.1-.3.3 0 .2.1.3.3.3h1.5c.2 0 .3-.1.3-.3 0-.1-.2-.3-.3-.3zm0 1.4h-1.5c-.2 0-.3.1-.3.3 0 .2.1.3.3.3h1.5c.2 0 .3-.1.3-.3 0-.2-.2-.3-.3-.3zm0 1.3h-1.5c-.2 0-.3.1-.3.3 0 .2.1.3.3.3h1.5c.2 0 .3-.1.3-.3 0-.1-.2-.3-.3-.3zm0 1.4h-1.5c-.2 0-.3.1-.3.3 0 .2.1.3.3.3h1.5c.2 0 .3-.1.3-.3 0-.2-.2-.3-.3-.3zm0 1.3h-1.5c-.2 0-.3.1-.3.3 0 .2.1.3.3.3h1.5c.2 0 .3-.1.3-.3 0-.1-.2-.3-.3-.3zm-.3 2.3h-3.8c-.2 0-.3.1-.3.3 0 .2.1.3.3.3h3.8c.2 0 .3-.1.3-.3 0-.1-.2-.3-.3-.3zm0 2.2h-3.8c-.2 0-.3.1-.3.3 0 .2.1.3.3.3h3.8c.2 0 .3-.1.3-.3 0-.2-.2-.3-.3-.3zm0 2.2h-3.8c-.2 0-.3.1-.3.3 0 .2.1.3.3.3h3.8c.2 0 .3-.1.3-.3 0-.2-.2-.3-.3-.3zm0 2.1h-3.8c-.2 0-.3.1-.3.3 0 .2.1.3.3.3h3.8c.2 0 .3-.1.3-.3 0-.1-.2-.3-.3-.3zm0 2.2h-3.8c-.2 0-.3.1-.3.3 0 .2.1.3.3.3h3.8c.2 0 .3-.1.3-.3 0-.2-.2-.3-.3-.3zm0 2.1h-3.8c-.2 0-.3.1-.3.3 0 .2.1.3.3.3h3.8c.2 0 .3-.1.3-.3 0-.1-.2-.3-.3-.3zm0 2.2h-3.8c-.2 0-.3.1-.3.3 0 .2.1.3.3.3h3.8c.2 0 .3-.1.3-.3 0-.2-.2-.3-.3-.3zm0 2.2h-3.8c-.2 0-.3.1-.3.3 0 .2.1.3.3.3h3.8c.2 0 .3-.1.3-.3 0-.2-.2-.3-.3-.3zm0 2.1h-3.8c-.2 0-.3.1-.3.3 0 .2.1.3.3.3h3.8c.2 0 .3-.1.3-.3 0-.1-.2-.3-.3-.3zm0 2.2h-3.8c-.2 0-.3.1-.3.3 0 .2.1.3.3.3h3.8c.2 0 .3-.1.3-.3 0-.2-.2-.3-.3-.3zm0 2.2h-3.8c-.2 0-.3.1-.3.3 0 .2.1.3.3.3h3.8c.2 0 .3-.1.3-.3 0-.2-.2-.3-.3-.3zm0 2.1h-3.8c-.2 0-.3.1-.3.3 0 .2.1.3.3.3h3.8c.2 0 .3-.1.3-.3 0-.1-.2-.3-.3-.3zm0 2.2h-3.8c-.2 0-.3.1-.3.3 0 .2.1.3.3.3h3.8c.2 0 .3-.1.3-.3 0-.2-.2-.3-.3-.3zm0 2.1h-3.8c-.2 0-.3.1-.3.3 0 .2.1.3.3.3h3.8c.2 0 .3-.1.3-.3 0-.1-.2-.2-.3-.3zm0 2.2h-3.8c-.2 0-.3.1-.3.3 0 .2.1.3.3.3h3.8c.2 0 .3-.1.3-.3 0-.1-.2-.3-.3-.3zm0 2.2h-3.8c-.2 0-.3.1-.3.3 0 .2.1.3.3.3h3.8c.2 0 .3-.1.3-.3 0-.2-.2-.3-.3-.3zm0 2.1h-3.8c-.2 0-.3.1-.3.3 0 .2.1.3.3.3h3.8c.2 0 .3-.1.3-.3 0-.1-.2-.3-.3-.3zm0 2.2h-3.8c-.2 0-.3.1-.3.3 0 .2.1.3.3.3h3.8c.2 0 .3-.1.3-.3 0-.1-.2-.3-.3-.3zm0 2.2h-3.8c-.2 0-.3.1-.3.3 0 .2.1.3.3.3h3.8c.2 0 .3-.1.3-.3 0-.2-.2-.3-.3-.3zm0 2.1h-3.8c-.2 0-.3.1-.3.3 0 .2.1.3.3.3h3.8c.2 0 .3-.1.3-.3 0-.1-.2-.3-.3-.3zm0 2.2h-3.8c-.2 0-.3.1-.3.3 0 .2.1.3.3.3h3.8c.2 0 .3-.1.3-.3 0-.2-.2-.3-.3-.3zm0 2.2h-3.8c-.2 0-.3.1-.3.3 0 .2.1.3.3.3h3.8c.2 0 .3-.1.3-.3 0-.2-.2-.3-.3-.3zm0 2.1h-3.8c-.2 0-.3.1-.3.3 0 .2.1.3.3.3h3.8c.2 0 .3-.1.3-.3 0-.1-.2-.3-.3-.3z" class="st2"/><path d="M58.3 19.2h1.2v11.9h-1.2zm0 25h1.2v11.9h-1.2zm-17.8-7.1h11.9v1.2H40.5zm24.9 0h11.9v1.2H65.4zM45.478 25.074l.85-.848 8.412 8.416-.848.848zm17.65 17.56l.85-.85 8.41 8.416-.85.85zm-17.608 7.61l8.414-8.414.85.848-8.416 8.415zm17.63-17.58l8.413-8.415.85.842-8.416 8.415zm-9.746-6.936l1.11-.46 3.25 7.855-1.11.46zm6.71 16.43l1.11-.46 3.25 7.854-1.11.46zm-13.504.007l7.85-3.253.46 1.108-7.852 3.254zm16.387-6.805l7.76-3.216.46 1.108-7.76 3.216zM46.58 33.12l.46-1.11 7.852 3.255-.46 1.108zm16.372 6.87l.46-1.108 7.852 3.253-.46 1.11zm-9.55 9.548l3.254-7.853 1.11.46-3.254 7.853zm6.774-16.395l3.254-7.853 1.11.46-3.255 7.852z" class="st1"/><path d="M126.1 31.1h.8v8.1h-.8zm0 17h.8v8.1h-.8zm-12.2-4.8h8.1v.8h-8.1zm17 0h8.1v.8h-8.1zm-13.56-8.243l.565-.566 5.726 5.73-.56.57zm11.997 12l.566-.565 5.726 5.728-.57.566zm-11.993 5.24l5.727-5.728.57.56-5.73 5.727zM129.34 40.29l5.73-5.728.564.566-5.727 5.727zm-6.624-4.727l.74-.306 2.218 5.36-.74.305zm4.618 11.2l.74-.305 2.217 5.36-.733.305zm-9.258-.02l5.358-2.22.307.74-5.352 2.22zm11.207-4.62l5.358-2.22.31.74-5.36 2.22zm-11.17-1.48l.307-.74 5.358 2.22-.306.74zm11.167 4.547l.305-.74 5.358 2.22-.306.74zm-6.6 6.525l2.22-5.36.74.307-2.22 5.36zm4.66-11.12l2.22-5.36.74.31-2.22 5.357z" class="st2"/><path d="M193.3 13.3h19.8c2 0 3.4-.6 3.9-1.4.5-.6.5-1.5 0-2.1-.6-.7-1.9-1.3-4-1.2-.1-.4-.2-.8-.4-1.1-.4-.9-1.1-1.7-1.9-2.2-.8-.6-1.8-.9-2.9-.8-.3 0-.6.1-.8.2-.3-1.6-1.2-2.9-2.6-3.7-.8-.5-1.8-.8-2.8-.8-1-.1-2 .1-2.9.6-1.5.7-2.6 2.1-3.1 3.8-.5-.1-1-.1-1.5 0-.4.1-.8.4-1.1.7-.5.6-.7 1.5-.4 2.3-1.2.1-2.3.8-2.8 1.8-.2.4-.3.8-.3 1.2 0 .4.1.8.3 1.2.9 1 2.2 1.6 3.5 1.5zm19.8-.6h-19.8c-1.1.1-2.2-.4-2.8-1.3-.2-.3-.2-.7-.2-1 0-.3.1-.7.2-1 .6-1 1.6-1.6 2.8-1.5h.5l-.3-.4c-.2-.3-.3-.8-.3-1.2 0-.3.2-.6.4-.9.2-.3.5-.4.8-.5.5-.1 1-.1 1.4.1l.3.1.1-.3c.3-1.6 1.4-3 2.8-3.7.8-.4 1.7-.6 2.6-.5.9 0 1.7.3 2.5.8 1.3.8 2.2 2.2 2.4 3.7v.4l.4-.2c.3-.1.7-.2 1-.3.9-.1 1.8.2 2.5.7.7.5 1.3 1.2 1.7 2 .2.4.3.8.3 1.2v.3h.3c2-.1 3.2.4 3.8 1 .4.4.4 1 0 1.4-.4.6-1.6 1.1-3.4 1.1z" class="st1"/><path d="M281 31.1h19.8c2 0 3.4-.6 4-1.3.5-.6.5-1.5 0-2.1-.6-.7-1.9-1.3-4-1.2-.1-.4-.2-.8-.4-1.1-.4-.9-1.1-1.7-1.9-2.3-.8-.6-1.8-.9-2.9-.8-.3 0-.6.1-.8.2-.3-1.6-1.2-2.9-2.6-3.7-.8-.5-1.8-.8-2.8-.8-1-.1-2 .1-2.9.5-1.5.7-2.6 2.1-3.1 3.8-.5-.1-1-.1-1.5 0-.4.1-.8.4-1.1.7-.5.6-.7 1.5-.4 2.3-1.2.1-2.3.8-2.8 1.9-.2.4-.3.8-.3 1.2 0 .4.1.8.3 1.2.8 1 2.1 1.7 3.4 1.5zm19.8-.6H281c-1.1.1-2.2-.4-2.8-1.3-.2-.3-.2-.7-.2-1 0-.3.1-.7.2-1 .6-1 1.6-1.6 2.8-1.5h.5l-.3-.4c-.2-.3-.3-.8-.3-1.2 0-.3.2-.6.4-.9.2-.3.5-.4.8-.5.5-.1 1-.1 1.4.1l.3.1.1-.3c.3-1.6 1.4-3 2.8-3.7.8-.4 1.7-.6 2.6-.5.9 0 1.7.3 2.5.8 1.3.8 2.2 2.2 2.4 3.7v.4l.4-.2c.3-.1.7-.2 1-.3.9-.1 1.8.2 2.5.7.7.5 1.3 1.2 1.7 2 .2.4.3.8.3 1.2v.3h.3c2-.1 3.2.4 3.8 1 .4.4.4 1 0 1.4-.3.6-1.5 1.2-3.4 1.1z" class="st0"/><path d="M221 117c0 .2.2.4.5.4l23.9 1.5c.3 0 .5-.2.6-.5l5-79.4c.1-.3 0-.6-.3-.7-.3-.1-.6 0-.7.3 0 .1-.1.2 0 .3l-.5 7.9c-10.1 6.7-18.2 16-23.4 26.9-9.9 21.1-5.2 43.1-5.1 43.3zm5.2-.3c-.1-.6-.3-1.8-.5-3.6l4.3 3.8-3.8-.2zm-.9-9.2l10.9 9.8-4.6-.3-6.1-5.5c0-1.2-.1-2.6-.2-4zm1.7-19.4l15.2 13.7-.2 3.6-15.7-14.1c.2-1.1.4-2.1.7-3.2zm-.9 4.4l15.8 14.2-.2 3.6-16-14.4c.1-1.1.2-2.2.4-3.4zm15.3 22.7l-16-14.4c0-1.2.1-2.4.2-3.6l16 14.4-.2 3.6zm-14.2-28.3l.9-3 14.4 12.9-.2 3.6-15.1-13.5zm1.3-4c.4-1 .7-1.9 1.1-2.8L242.8 92l-.2 3.6-14.1-12.7zM230 79c.4-1 .8-1.9 1.1-2.8l12 10.8-.2 3.6L230 79zm1.6-3.8c.4-1 .8-1.8 1.2-2.7l10.6 9.5-.2 3.6-11.6-10.4zm1.7-3.7c.5-.9.9-1.8 1.4-2.6l9.1 8.1-.2 3.6-10.3-9.1zm1.9-3.5c.6-1 1.1-1.8 1.5-2.4l7.3 6.6-.2 3.6-8.6-7.8zm2.1-3.3c.6-.8 1-1.3 1.2-1.6l1.3.1 4.5 4-.2 3.6-6.8-6.1zm4.3-1.4l3 .2-.1 2.4-2.9-2.6zm-.4 54.3l-3.2-.2-12.7-11.4v-3.8l16 14.4-.1 1zm-14.3-43.4c5-10.5 12.7-19.5 22.4-26l-4.4 69.7-2.7-.2 3.4-54.7c0-.3-.2-.5-.5-.6l-6.8-.4c-.2 0-.3 0-.4.2-.2.2-5.2 5.6-10.5 20.4l-.1.2c-.5 1.3-.9 2.7-1.2 4.1v.1c-.4 1.4-.7 2.8-.9 4.3v.2c-.3 1.5-.5 3-.6 4.5v.2c-.2 1.6-.3 3.2-.3 4.7v.2c-.1 1.8-.1 3.4 0 5v.2c.1 2 .2 3.8.3 5.3v.2c.2 2.2.4 3.8.6 4.7l-3.2-.2c-.6-2.9-4-22.9 4.9-42.1z" class="st1"/><path d="M239.3 60.6c-.2.2-.2.5 0 .7.1.1.2.1.3.1l5.5.3c.3 0 .5-.2.6-.5l.4-5.8c0-.3-.2-.5-.5-.6-.1 0-.2 0-.3.1-2.1 1.9-4.1 3.7-6 5.7zm1.6-.1c1-1 2.7-2.7 4.1-3.9l-.3 4.1-3.8-.2zm-12.3.4c-.2.2-.5.2-.7 0-.2-.2-.2-.4-.1-.6l.4-.6c.2-.2.5-.2.7 0 .2.2.2.4.1.6l-.4.6zm16.5-16.3l-.6.4c-.2.2-.5.2-.7 0-.2-.2-.2-.5 0-.7l.1-.1.6-.4c.2-.2.5-.2.7 0s.2.5 0 .7c0 .1-.1.1-.1.1zm-15 14.3c-.2.2-.5.2-.7 0-.2-.2-.2-.5-.1-.7 3.7-4.7 8-9 12.7-12.7.2-.2.5-.2.7 0 .2.2.2.5 0 .7l-.1.1c-4.6 3.7-8.8 7.9-12.5 12.6z" class="st1"/><path d="M94.2 115.8h3.3V114h-2.1l.8-2.9s.1-.1.1-.2c1-3.6 3.3-7.4 7-7.4s6 3.8 6.9 7.4c0 .1 0 .1.1.2l.7 2.9h-2.1v1.8h12.6V114h-2.2l-5.6-14.2h.8v-5.2h-2.8l-3.4-13.2h1v-5.2h-2.5l-1.6-17.9h1.2v-5.1H104v-7c.1-.5-.3-.9-.8-1-.5-.1-.9.3-1 .8v7.2h-2.4v5.2h1.2l-1.5 17.9H97v5.2h1l-3.4 13.2h-2.7v5.2h.8L87.1 114h-2.2v1.8h9.3zm9-14c-1.9 0-3.8.8-5.1 2.2l1.1-4.1h7.9l1.1 4c-1.3-1.4-3.1-2.1-5-2.1zm14.1 12.2h-4.4L109 99.8h2.7l5.6 14.2zm-7.5-19.3h-2.2l-2.1-13.2h.9l3.4 13.2zm-6.2-13.2l2.2 13.2h-5.1l2.1-13.2h.8zm-1.9-26.3h3v1.5h-3v-1.5zm1.2 3.3h.5l1.5 17.8h-3.6l1.6-17.8zm-4 19.7h8.6v1.5h-8.6v-1.5zm1.1 3.3h.9l-2.1 13.2h-2.2l3.4-13.2zm-6.3 15h18.9V98H93.7v-1.5zm1 3.3h2.7L93.5 114h-4.4l5.6-14.2z" class="st2"/><path d="M67.8 119s18.2-1.2 27.4-3.5c12.5-3.1 19.2-5.6 32.6-5.6 15.3 0 36.8 8.5 60 9.1h-120zm205.5-.9s18.2-1.2 27.4-3.5c12.5-3.1 19.1-5.6 32.6-5.6 15.3 0 36.8 8.5 60 9.1h-120z" class="st2"/><path d="M270 118.8s18.2-1.2 27.4-3.5c12.5-3.1 19.1-5.6 32.6-5.6 15.3 0 36.8 8.5 60 9.1H270z" class="st2"/><path d="M241.7 117.3c3.9-.3 7.8-.8 11.6-1.5 5.3-1.3 8.1-2.4 13.8-2.4 6.5 0 15.6 3.6 25.5 3.9h-50.9zm-81.5-.3c4.4-.3 8.8-.9 13.2-1.7 6-1.5 9.2-2.7 15.7-2.7 7.4 0 17.8 4.1 29 4.4h-57.9zm-89.1 1.9H3.4s10.2-.9 15.5-2.5c7.1-2.2 10.8-3.9 18.4-3.9" class="st2"/><path d="M0 115.6h402v6.2H0z" class="st2"/></svg>