<svg xmlns="http://www.w3.org/2000/svg" viewBox="0 0 847.52 835.08"><defs><style>.cls-1{fill:#66e0a5;}.cls-2{fill:#f357b3;}.cls-3{fill:#ffd54d;}.cls-4{fill:#ff8ab4;}.cls-5{fill:#f4593a;}.cls-6{fill:#73c4e2;}.cls-7{fill:#979b9e;}.cls-8{fill:#e6e6e6;}.cls-9{fill:#7a7e80;}.cls-10{opacity:0.1;}.cls-11{fill:#c6c9cc;}.cls-12{fill:#bdc3c7;}.cls-13{fill:#f38f39;}.cls-14{fill:none;}.cls-15{fill:#33cc74;}.cls-16{fill:#fff;}.cls-17{fill:#fafafa;}.cls-18{fill:#e74c3c;}.cls-19{fill:#c0392b;}.cls-20{fill:#f2f2f2;}.cls-21{opacity:0.8;}.cls-22{fill:#999;}.cls-23{opacity:0.65;}.cls-24{opacity:0.3;}.cls-25{opacity:0.4;}.cls-26{fill:gray;}.cls-27{fill:#ffc200;}</style></defs><g id="Layer_2" data-name="Layer 2"><g id="Vrstva_1" data-name="Vrstva 1"><ellipse class="cls-1" cx="562.26" cy="769.9" rx="8.62" ry="5.25" transform="rotate(-.55 564.05 771.52)"/><ellipse class="cls-1" cx="631.76" cy="656.38" rx="8.62" ry="5.25" transform="rotate(-.55 633.35 658.3)"/><ellipse class="cls-1" cx="451.06" cy="819.33" rx="8.62" ry="5.25" transform="rotate(-.55 452.35 820.99)"/><ellipse class="cls-1" cx="222.22" cy="810.41" rx="8.62" ry="5.25" transform="rotate(-.55 223.2 812.6)"/><ellipse class="cls-1" cx="746.59" cy="791.56" rx="8.62" ry="5.25" transform="rotate(-.55 748.34 793.24)"/><ellipse class="cls-1" cx="582.26" cy="749.9" rx="8.62" ry="5.25" transform="rotate(-.55 583.94 751.83)"/><ellipse class="cls-1" cx="532.25" cy="759.9" rx="8.63" ry="5.25" transform="translate(-7.29 5.16)"/><ellipse class="cls-1" cx="492.25" cy="759.9" rx="8.63" ry="5.25" transform="translate(-7.29 4.77)"/><ellipse class="cls-1" cx="442.25" cy="769.9" rx="8.62" ry="5.25" transform="translate(-7.39 4.29)"/><ellipse class="cls-1" cx="402.24" cy="759.9" rx="8.62" ry="5.25" transform="translate(-7.3 3.91)"/><ellipse class="cls-2" cx="352.24" cy="769.9" rx="8.63" ry="5.25" transform="translate(-7.39 3.43)"/><ellipse class="cls-1" cx="492.25" cy="739.9" rx="8.63" ry="5.25" transform="translate(-7.1 4.77)"/><ellipse class="cls-1" cx="442.25" cy="749.9" rx="8.62" ry="5.25" transform="translate(-7.2 4.29)"/><ellipse class="cls-1" cx="152.22" cy="789.91" rx="8.62" ry="5.25" transform="translate(-7.59 1.5)"/><ellipse class="cls-1" cx="667.96" cy="696.92" rx="8.62" ry="5.25" transform="translate(-6.68 6.46)"/><ellipse class="cls-1" cx="372.24" cy="739.9" rx="8.63" ry="5.25" transform="translate(-7.1 3.62)"/><ellipse class="cls-1" cx="332.23" cy="729.9" rx="8.63" ry="5.25" transform="translate(-7.01 3.23)"/><ellipse class="cls-1" cx="755.9" cy="731.56" rx="8.62" ry="5.25" transform="translate(-7.01 7.31)"/><ellipse class="cls-1" cx="296.54" cy="761.56" rx="8.62" ry="5.25" transform="translate(-7.31 2.89)"/><ellipse class="cls-1" cx="725.9" cy="721.56" rx="8.62" ry="5.25" transform="translate(-6.91 7.02)"/><ellipse class="cls-1" cx="685.89" cy="721.56" rx="8.62" ry="5.25" transform="translate(-6.91 6.63)"/><ellipse class="cls-1" cx="595.88" cy="721.56" rx="8.62" ry="5.25" transform="translate(-6.92 5.77)"/><ellipse class="cls-1" cx="545.88" cy="731.56" rx="8.62" ry="5.25" transform="translate(-7.02 5.29)"/><ellipse class="cls-1" cx="272.23" cy="719.9" rx="8.63" ry="5.25" transform="translate(-6.92 2.65)"/><ellipse class="cls-1" cx="222.22" cy="729.9" rx="8.62" ry="5.25" transform="rotate(-.55 222.55 731.34)"/><ellipse class="cls-1" cx="292.23" cy="699.9" rx="8.63" ry="5.25" transform="translate(-6.72 2.84)"/><ellipse class="cls-1" cx="242.23" cy="709.9" rx="8.62" ry="5.25" transform="translate(-6.82 2.36)"/><ellipse class="cls-1" cx="202.22" cy="709.9" rx="8.62" ry="5.25" transform="translate(-6.82 1.98)"/><ellipse class="cls-1" cx="152.22" cy="719.9" rx="8.62" ry="5.25" transform="rotate(-.55 152.8 721.63)"/><ellipse class="cls-1" cx="706.58" cy="705.27" rx="8.62" ry="5.25" transform="translate(-6.75 6.83)"/><ellipse class="cls-1" cx="204.79" cy="687.1" rx="8.62" ry="5.25" transform="translate(-6.6 2)"/><ellipse class="cls-3" cx="525.19" cy="731.9" rx="8.62" ry="5.25" transform="translate(-7.02 5.09)"/><ellipse class="cls-3" cx="596.57" cy="747.15" rx="8.62" ry="5.25" transform="translate(-7.17 5.78)"/><ellipse class="cls-3" cx="575.19" cy="726.65" rx="8.62" ry="5.25" transform="translate(-6.97 5.57)"/><ellipse class="cls-3" cx="706.58" cy="747.15" rx="8.62" ry="5.25" transform="rotate(-.55 708.97 749.3)"/><ellipse class="cls-3" cx="385.18" cy="761.9" rx="8.62" ry="5.25" transform="translate(-7.31 3.74)"/><ellipse class="cls-3" cx="456.56" cy="777.15" rx="8.62" ry="5.25" transform="translate(-7.46 4.43)"/><ellipse class="cls-3" cx="435.18" cy="756.65" rx="8.62" ry="5.25" transform="translate(-7.27 4.23)"/><ellipse class="cls-3" cx="495.19" cy="761.9" rx="8.62" ry="5.25" transform="translate(-7.31 4.8)"/><ellipse class="cls-2" cx="566.57" cy="777.15" rx="8.62" ry="5.25" transform="translate(-7.45 5.49)"/><ellipse class="cls-3" cx="545.19" cy="756.65" rx="8.63" ry="5.25" transform="translate(-7.26 5.28)"/><ellipse class="cls-3" cx="815.22" cy="731.9" rx="8.62" ry="5.25" transform="translate(-7.01 7.88)"/><ellipse class="cls-3" cx="733.65" cy="688.77" rx="8.63" ry="5.25" transform="translate(-6.59 7.09)"/><ellipse class="cls-3" cx="615.2" cy="761.9" rx="8.62" ry="5.25" transform="translate(-7.3 5.96)"/><ellipse class="cls-3" cx="585.01" cy="810.41" rx="8.62" ry="5.25" transform="translate(-7.77 5.67)"/><ellipse class="cls-3" cx="665.2" cy="756.65" rx="8.63" ry="5.25" transform="translate(-7.25 6.44)"/><ellipse class="cls-3" cx="413.99" cy="736.81" rx="8.63" ry="5.25" transform="translate(-7.08 4.02)"/><ellipse class="cls-2" cx="676.58" cy="677.1" rx="8.62" ry="5.25" transform="translate(-6.48 6.54)"/><ellipse class="cls-3" cx="312.73" cy="824.58" rx="8.62" ry="5.25" transform="translate(-7.92 3.05)"/><ellipse class="cls-3" cx="285.17" cy="721.9" rx="8.62" ry="5.25" transform="translate(-6.93 2.78)"/><ellipse class="cls-3" cx="356.55" cy="737.15" rx="8.62" ry="5.25" transform="translate(-7.08 3.47)"/><ellipse class="cls-3" cx="335.17" cy="716.64" rx="8.62" ry="5.25" transform="translate(-6.88 3.26)"/><ellipse class="cls-3" cx="77.23" cy="755.15" rx="8.62" ry="5.25" transform="translate(-7.26 .78)"/><ellipse class="cls-3" cx="225.16" cy="728.76" rx="8.62" ry="5.25" transform="translate(-7 2.2)"/><ellipse class="cls-3" cx="195.16" cy="746.65" rx="8.62" ry="5.25" transform="rotate(-.55 195.38 748.92)"/><ellipse class="cls-3" cx="326.55" cy="767.15" rx="8.62" ry="5.25" transform="translate(-7.37 3.18)"/><ellipse class="cls-3" cx="305.17" cy="746.65" rx="8.63" ry="5.25" transform="translate(-7.17 2.97)"/><ellipse class="cls-4" cx="578.65" cy="714.02" rx="8.62" ry="5.25" transform="translate(-6.84 5.6)"/><ellipse class="cls-4" cx="536.27" cy="730.93" rx="8.63" ry="5.25" transform="translate(-7.01 5.19)"/><ellipse class="cls-4" cx="327.25" cy="739.27" rx="8.62" ry="5.25" transform="translate(-7.1 3.18)"/><ellipse class="cls-4" cx="247.24" cy="714.02" rx="8.62" ry="5.25" transform="translate(-6.86 2.41)"/><ellipse class="cls-4" cx="222.24" cy="700.92" rx="8.62" ry="5.25" transform="translate(-6.73 2.17)"/><ellipse class="cls-4" cx="268.62" cy="694.02" rx="8.62" ry="5.25" transform="rotate(-.55 269.6 696.15)"/><ellipse class="cls-4" cx="286.25" cy="710.92" rx="8.62" ry="5.25" transform="rotate(-.55 287.23 712.9)"/><ellipse class="cls-4" cx="132.23" cy="700.92" rx="8.62" ry="5.25" transform="translate(-6.74 1.3)"/><ellipse class="cls-4" cx="655.2" cy="676.38" rx="8.62" ry="5.25" transform="translate(-6.48 6.34)"/><ellipse class="cls-4" cx="692.29" cy="700.92" rx="8.62" ry="5.25" transform="translate(-6.71 6.69)"/><ellipse class="cls-4" cx="637.28" cy="719.27" rx="8.62" ry="5.25" transform="translate(-6.89 6.17)"/><ellipse class="cls-4" cx="196.24" cy="710.92" rx="8.62" ry="5.25" transform="translate(-6.83 1.92)"/><ellipse class="cls-5" cx="504.82" cy="747.52" rx="8.62" ry="5.25" transform="translate(-7.17 4.89)"/><ellipse class="cls-5" cx="395.18" cy="799.91" rx="8.62" ry="5.25" transform="translate(-7.68 3.84)"/><ellipse class="cls-5" cx="764.84" cy="720.52" rx="8.62" ry="5.25" transform="translate(-6.9 7.39)"/><ellipse class="cls-5" cx="634.83" cy="784.66" rx="8.62" ry="5.25" transform="translate(-7.52 6.15)"/><ellipse class="cls-5" cx="329.98" cy="752.4" rx="8.62" ry="5.25" transform="translate(-7.23 3.21)"/><ellipse class="cls-5" cx="665.2" cy="685.14" rx="8.63" ry="5.25" transform="translate(-6.56 6.43)"/><ellipse class="cls-5" cx="242.22" cy="687.1" rx="8.63" ry="5.25" transform="translate(-6.6 2.36)"/><ellipse class="cls-5" cx="703.84" cy="829.83" rx="8.62" ry="5.25" transform="translate(-7.95 6.81)"/><ellipse class="cls-6" cx="531.38" cy="755.15" rx="8.62" ry="5.25" transform="translate(-7.24 5.15)"/><ellipse class="cls-6" cx="551.38" cy="735.15" rx="8.62" ry="5.25" transform="translate(-7.05 5.34)"/><ellipse class="cls-6" cx="585.01" cy="746.81" rx="8.62" ry="5.25" transform="rotate(-.55 586.04 748.71)"/><ellipse class="cls-6" cx="471.37" cy="745.15" rx="8.62" ry="5.25" transform="translate(-7.15 4.57)"/><ellipse class="cls-6" cx="525" cy="736.81" rx="8.62" ry="5.25" transform="translate(-7.07 5.09)"/><ellipse class="cls-6" cx="591.38" cy="765.15" rx="8.62" ry="5.25" transform="translate(-7.34 5.73)"/><ellipse class="cls-6" cx="615.39" cy="745.15" rx="8.62" ry="5.25" transform="translate(-7.14 5.96)"/><ellipse class="cls-6" cx="480.89" cy="764.65" rx="8.62" ry="5.25" transform="translate(-7.34 4.66)"/><ellipse class="cls-6" cx="321.36" cy="755.15" rx="8.63" ry="5.25" transform="translate(-7.25 3.13)"/><ellipse class="cls-6" cx="341.36" cy="735.15" rx="8.63" ry="5.25" transform="translate(-7.06 3.32)"/><ellipse class="cls-6" cx="374.99" cy="746.81" rx="8.62" ry="5.25" transform="translate(-7.17 3.64)"/><ellipse class="cls-6" cx="281.35" cy="725.15" rx="8.63" ry="5.25" transform="translate(-6.97 2.74)"/><ellipse class="cls-6" cx="286.25" cy="757.15" rx="8.62" ry="5.25" transform="translate(-7.28 2.79)"/><ellipse class="cls-6" cx="241.35" cy="725.15" rx="8.63" ry="5.25" transform="translate(-6.97 2.36)"/><ellipse class="cls-6" cx="181.34" cy="715.15" rx="8.62" ry="5.25" transform="translate(-6.87 1.78)"/><ellipse class="cls-6" cx="214.97" cy="726.81" rx="8.62" ry="5.25" transform="translate(-6.98 2.1)"/><ellipse class="cls-6" cx="114.96" cy="736.81" rx="8.62" ry="5.25" transform="translate(-7.09 1.14)"/><ellipse class="cls-6" cx="381.36" cy="765.15" rx="8.63" ry="5.25" transform="translate(-7.35 3.71)"/><ellipse class="cls-6" cx="405.37" cy="745.15" rx="8.62" ry="5.25" transform="translate(-7.15 3.94)"/><ellipse class="cls-6" cx="438.99" cy="756.81" rx="8.62" ry="5.25" transform="translate(-7.26 4.26)"/><ellipse class="cls-6" cx="671.39" cy="715.15" rx="8.62" ry="5.25" transform="translate(-6.85 6.49)"/><ellipse class="cls-6" cx="705.02" cy="726.81" rx="8.62" ry="5.25" transform="translate(-6.96 6.82)"/><ellipse class="cls-6" cx="645.01" cy="716.8" rx="8.62" ry="5.25" transform="translate(-6.87 6.24)"/><ellipse class="cls-6" cx="767.28" cy="754.65" rx="8.63" ry="5.25" transform="translate(-7.23 7.42)"/><ellipse class="cls-6" cx="706.58" cy="682.35" rx="8.62" ry="5.25" transform="translate(-6.53 6.83)"/><ellipse class="cls-6" cx="640.39" cy="687.1" rx="8.62" ry="5.25" transform="translate(-6.58 6.19)"/><path class="cls-7" d="M294.46 610.56l-56.55 16.26-20.58 49.14 78.86-24.77-1.73-40.63z"/><path class="cls-8" d="M289.96 505.37l144.06-31.26-29.39-25.77-154.17 30.3 35.3 33.94 4.47-1-.27-6.21z"/><path class="cls-9" d="M285.76 512.58l-47.85 114.24 56.55-16.26-4.23-98.98-4.47 1z"/><path class="cls-10" d="M297.7 686.59l-1.51-35.39-78.86 24.8-31.59-34.15 3-7.46-133.88 36.29c-4.25 1.15-4.29 3.15-.07 4.44l141.62 43.2a83.44 83.44 0 0 0 15.67 2.87l64.07 4.25c1-.88 2-1.79 3-2.74a99.1 99.1 0 0 0 10-11.15 82.49 82.49 0 0 0 7.85-12.22l5.8-11.21z"/><path class="cls-11" d="M285.76 512.58l-68.43 163.38-31.59-34.15 64.72-163.17 35.3 33.94z"/><path class="cls-12" d="M299.07 505.84l145.47 27.04-.54-58.53-.24-.04-144.69 31.53z"/><path class="cls-7" d="M444 474.35l.54 58.53 23.6 4.38 141.32-37.98L444 474.35z"/><path d="M398.34 716.6l-10.8 3.58-.42.1h-.9a3.82 3.82 0 0 1-.48-.11L346.9 708.5a3.2 3.2 0 0 0 .46.11l-.49-.15a9.76 9.76 0 0 1-3.58-2.31 26.69 26.69 0 0 1-2.68-2.94l-4.12 8.08a86.37 86.37 0 0 1-7.92 12.54 103.89 103.89 0 0 1-10 11.46 83.58 83.58 0 0 1-10.93 9.16 50.45 50.45 0 0 1-6.75 4l1.44-.48c6.2-4.16 20.56-9.7 37.7-14.22 5-1.32 9.8-2.43 14.32-3.35l113.63 7.89a8.45 8.45 0 0 0 2.5-.13z" class="cls-10"/><ellipse class="cls-5" cx="152.22" cy="487.89" rx="5.25" ry="8.62" transform="rotate(-71.86 152.21 487.88)"/><ellipse class="cls-13" cx="780.02" cy="634.35" rx="8.62" ry="5.25" transform="rotate(-32.12 779.97 634.34)"/><ellipse class="cls-13" cx="303.59" cy="313.72" rx="8.62" ry="5.25" transform="rotate(-32.12 303.56 313.7)"/><ellipse class="cls-13" cx="763.64" cy="123.7" rx="8.62" ry="5.25" transform="rotate(-32.12 763.59 123.71)"/><ellipse class="cls-6" cx="754.55" cy="580.06" rx="5.25" ry="8.62" transform="rotate(-40.83 754.46 580.03)"/><ellipse class="cls-1" cx="98.93" cy="78.13" rx="8.63" ry="5.25" transform="rotate(-51.35 98.93 78.12)"/><ellipse class="cls-1" cx="116.84" cy="248.53" rx="8.62" ry="5.25" transform="rotate(-51.35 116.83 248.51)"/><ellipse class="cls-3" cx="8.36" cy="401.98" rx="5.25" ry="8.62" transform="rotate(-71.86 8.35 401.97)"/><ellipse class="cls-2" cx="788.64" cy="444.45" rx="2.94" ry="8.62" transform="rotate(-58.09 788.67 444.44)"/><ellipse class="cls-2" cx="588.62" cy="444.45" rx="2.94" ry="8.62" transform="rotate(-58.09 588.65 444.45)"/><ellipse class="cls-2" cx="498.62" cy="34.41" rx="2.94" ry="8.62" transform="rotate(-58.09 498.63 34.4)"/><ellipse class="cls-4" cx="747.28" cy="209.99" rx="2.94" ry="8.63" transform="rotate(-55.07 747.28 209.98)"/><ellipse class="cls-4" cx="397.24" cy="430.01" rx="2.94" ry="8.62" transform="rotate(-55.07 397.27 430.02)"/><ellipse class="cls-6" cx="51.65" cy="317.83" rx="8.62" ry="2.94" transform="rotate(-42.47 51.65 317.83)"/><ellipse class="cls-1" cx="58.31" cy="501.89" rx="8.62" ry="5.25" transform="rotate(-47.49 58.3 501.88)"/><ellipse class="cls-1" cx="438.35" cy="331.87" rx="8.62" ry="5.25" transform="rotate(-47.49 438.35 331.87)"/><circle class="cls-1" cx="771.39" cy="50.63" r="8.62"/><circle class="cls-5" cx="838.89" cy="351.68" r="8.62"/><circle class="cls-3" cx="836.39" cy="511.12" r="8.62"/><circle class="cls-4" cx="114.96" cy="553.25" r="8.62"/><circle class="cls-3" cx="667.95" cy="8.63" r="8.62"/><circle class="cls-1" cx="725.02" cy="335.25" r="8.62"/><circle class="cls-3" cx="747.65" cy="269.72" r="8.63"/><circle class="cls-6" cx="800.07" cy="235.81" r="8.62"/><ellipse class="cls-4" cx="332.73" cy="64.48" rx="2.94" ry="8.62" transform="rotate(-55.07 332.76 64.47)"/><circle class="cls-4" cx="454.98" cy="86.75" r="8.62"/><circle class="cls-3" cx="403.64" cy="111.14" r="8.63"/><circle class="cls-6" cx="395.01" cy="19.41" r="8.63"/><circle class="cls-6" cx="712.46" cy="474.78" r="8.62"/><circle class="cls-4" cx="597.23" cy="45.37" r="8.62"/><circle class="cls-5" cx="694.52" cy="107.23" r="8.62"/><circle class="cls-6" cx="152.22" cy="167.94" r="8.62"/><circle class="cls-3" cx="32.81" cy="601.94" r="8.63"/><circle class="cls-3" cx="114.96" cy="373.47" r="8.62"/><circle class="cls-1" cx="660.01" cy="564.89" r="8.63"/><circle class="cls-5" cx="62.92" cy="166.58" r="8.62"/><ellipse class="cls-4" cx="160.57" cy="422.63" rx="5.25" ry="8.62" transform="rotate(-47.49 160.56 422.62)"/><ellipse class="cls-4" cx="16.72" cy="470.7" rx="8.62" ry="2.94" transform="rotate(-42.73 16.74 470.73)"/><ellipse class="cls-3" cx="93.42" cy="187.17" rx="5.25" ry="8.62" transform="rotate(-32.44 93.44 187.19)"/><ellipse class="cls-4" cx="617.89" cy="366.56" rx="8.62" ry="2.94" transform="rotate(-42.73 617.95 366.56)"/><ellipse class="cls-3" cx="595.39" cy="351.68" rx="5.25" ry="8.62" transform="rotate(-32.44 595.45 351.7)"/><circle class="cls-6" cx="204.86" cy="107.23" r="8.62"/><ellipse class="cls-4" cx="272.02" cy="125.95" rx="5.25" ry="8.62" transform="rotate(-47.49 272 125.95)"/><circle class="cls-3" cx="185.74" cy="67.14" r="8.62"/><ellipse class="cls-6" cx="83.96" cy="430.01" rx="5.25" ry="8.62" transform="rotate(-40.83 83.94 429.96)"/><ellipse class="cls-2" cx="91.44" cy="282.78" rx="2.94" ry="8.62" transform="rotate(-58.09 91.45 282.79)"/><circle class="cls-3" cx="262.42" cy="15.13" r="8.62"/><circle class="cls-6" cx="16.72" cy="269.72" r="8.63"/><ellipse class="cls-4" cx="821.31" cy="268.13" rx="8.62" ry="5.25" transform="rotate(-42.51 821.33 268.13)"/><ellipse class="cls-4" cx="461.23" cy="169.47" rx="8.62" ry="5.25" transform="rotate(-42.51 461.26 169.46)"/><path class="cls-14" d="M351.63 643.85l-3.04-75.25 64.15 11.35 1.35 79.32-62.46-15.42z"/><circle class="cls-15" cx="455.57" cy="529.59" r="33.31" transform="rotate(-70.81 455.61 529.6)"/><path class="cls-16" d="M435.43 514.91a5.94 5.94 0 0 1 1.23-2.09 6.26 6.26 0 0 1 1.85-1.4 6 6 0 0 1 2.21-.61 5.68 5.68 0 0 1 2.33.31 5.62 5.62 0 0 1 2 1.21 6.05 6.05 0 0 1 1.35 1.86 6.35 6.35 0 0 1 .58 2.24 5.85 5.85 0 0 1-.32 2.38 6.06 6.06 0 0 1-3.11 3.48 7.17 7.17 0 0 1 .83 6.46 7.06 7.06 0 0 1-1.44 2.45 7.23 7.23 0 0 1-4.82 2.38 6.71 6.71 0 0 1-2.78-.37 6.78 6.78 0 0 1-2.41-1.43 7.15 7.15 0 0 1-1.62-2.19 7.28 7.28 0 0 1-.68-2.66 7.08 7.08 0 0 1 .4-2.82 1.52 1.52 0 0 1 .77-.91 1.47 1.47 0 0 1 1.17-.06 1.51 1.51 0 0 1 .94 2 4.1 4.1 0 0 0 .15 3.12 4 4 0 0 0 .91 1.24 3.86 3.86 0 0 0 1.38.82 3.82 3.82 0 0 0 1.59.21 4.09 4.09 0 0 0 1.5-.41 4.17 4.17 0 0 0 1.23-.95 4.12 4.12 0 0 0 1-3 4.14 4.14 0 0 0-.38-1.51 4.07 4.07 0 0 0-.92-1.25 3.82 3.82 0 0 0-1.37-.83 1.47 1.47 0 0 1-.89-.78 1.61 1.61 0 0 1 .73-2.09 1.48 1.48 0 0 1 1.18-.05 2.76 2.76 0 0 0 1.13.15 2.9 2.9 0 0 0 1.08-.29 3.08 3.08 0 0 0 .9-.68 2.92 2.92 0 0 0 .75-2.17 3 3 0 0 0-.29-1.1 3.16 3.16 0 0 0-.66-.91 2.64 2.64 0 0 0-1-.59 2.72 2.72 0 0 0-1.15-.14 3 3 0 0 0-1.09.3 3.08 3.08 0 0 0-.9.68 2.72 2.72 0 0 0-.59 1 1.49 1.49 0 0 1-.78.87 1.52 1.52 0 0 1-2-.71 1.49 1.49 0 0 1 .01-1.16zM448 525.23a22.84 22.84 0 0 1 2.07-4.5 12.29 12.29 0 0 1 2.52-3 6.55 6.55 0 0 1 2.87-1.44 5.79 5.79 0 0 1 3.13.25 5.71 5.71 0 0 1 2.6 1.76 6.72 6.72 0 0 1 1.35 2.93 12.14 12.14 0 0 1 .1 3.93 25.37 25.37 0 0 1-3.21 9.23 12.11 12.11 0 0 1-2.52 3 6.72 6.72 0 0 1-2.88 1.46 5.72 5.72 0 0 1-3.13-.23 5.8 5.8 0 0 1-2.61-1.75 6.56 6.56 0 0 1-1.36-2.9 12.13 12.13 0 0 1-.1-3.92 22.91 22.91 0 0 1 1.17-4.82zm9.57-5.78a2.66 2.66 0 0 0-1.9 0 5 5 0 0 0-1.79 1.28 10.92 10.92 0 0 0-1.6 2.33 23.91 23.91 0 0 0-2.26 6.5 10.74 10.74 0 0 0-.18 2.82 4.93 4.93 0 0 0 .61 2.1 2.8 2.8 0 0 0 3.39 1.16 4.88 4.88 0 0 0 1.79-1.29 11.31 11.31 0 0 0 1.6-2.33 22 22 0 0 0 1.36-3.15 21.33 21.33 0 0 0 .88-3.3 11.65 11.65 0 0 0 .19-2.83 4.88 4.88 0 0 0-.6-2.12 2.66 2.66 0 0 0-1.51-1.17zm9.34 15.65a1 1 0 0 1-.33-.19.88.88 0 0 1-.22-.29 1 1 0 0 1-.09-.35 1 1 0 0 1 .48-.91l13.42-8.68a1 1 0 0 1 .85-.11.91.91 0 0 1 .33.2 1 1 0 0 1 .22.29 1 1 0 0 1 .09.35 1 1 0 0 1-.42.86l-13.56 8.79a.91.91 0 0 1-.77.04zm8.13-8.66a3.57 3.57 0 0 1-.75 1.26 3.78 3.78 0 0 1-2.53 1.23 3.68 3.68 0 0 1-2.73-1 3.79 3.79 0 0 1-.85-1.15 3.85 3.85 0 0 1-.36-1.38 3.67 3.67 0 0 1 .94-2.71 3.81 3.81 0 0 1 1.14-.86 3.77 3.77 0 0 1 1.38-.37 3.67 3.67 0 0 1 2.73 1 3.77 3.77 0 0 1 1.22 2.54 3.61 3.61 0 0 1-.23 1.44zm-2.91-2.94a1.74 1.74 0 0 0-.72-.1 1.85 1.85 0 0 0-.67.19 1.87 1.87 0 0 0-.56.42 1.81 1.81 0 0 0-.46 1.32 1.87 1.87 0 0 0 .17.67 1.8 1.8 0 0 0 .41.56 1.76 1.76 0 0 0 .63.37 1.73 1.73 0 0 0 .71.09 1.9 1.9 0 0 0 .68-.18 1.83 1.83 0 0 0 .55-.42 1.76 1.76 0 0 0 .36-.62 1.73 1.73 0 0 0 .09-.71 2 2 0 0 0-.18-.68 1.86 1.86 0 0 0-.41-.56 1.71 1.71 0 0 0-.61-.35zm.72 9.73a3.6 3.6 0 0 1 .75-1.26 3.77 3.77 0 0 1 1.14-.86 3.83 3.83 0 0 1 1.38-.37 3.68 3.68 0 0 1 2.72.94 3.86 3.86 0 0 1 .86 1.14 3.74 3.74 0 0 1 .37 1.38 3.71 3.71 0 0 1-1 2.74 3.85 3.85 0 0 1-1.15.85 3.77 3.77 0 0 1-1.38.36 3.62 3.62 0 0 1-1.45-.2 3.56 3.56 0 0 1-1.26-.75 3.8 3.8 0 0 1-1.22-2.52 3.55 3.55 0 0 1 .23-1.45zm4.11-.49a1.82 1.82 0 0 0-2.41 1.83 1.79 1.79 0 0 0 .59 1.23 1.78 1.78 0 0 0 .62.37 1.74 1.74 0 0 0 .71.09 1.88 1.88 0 0 0 .68-.18 1.9 1.9 0 0 0 .56-.41 1.76 1.76 0 0 0 .46-1.33 1.86 1.86 0 0 0-.6-1.23 1.76 1.76 0 0 0-.62-.37zm-8.96 8.69a3 3 0 1 1-.13-2.26 2.82 2.82 0 0 1 .13 2.26zm-2.08-3a2.15 2.15 0 0 0-.84-.13 2.31 2.31 0 0 0-1.5.73 2.15 2.15 0 0 0-.42.74 2.17 2.17 0 1 0 2.77-1.34zm1.76 5.57l1.69-4.85a.4.4 0 0 1 .08-.13.35.35 0 0 1 .12-.09.37.37 0 0 1 .14 0 .39.39 0 0 1 .16 0l3.23 1.12a.38.38 0 0 1 .22.2.39.39 0 0 1-.48.54l-2.86-1-.59 1.68 2.05.71a.39.39 0 0 1 0 .72.38.38 0 0 1-.3 0l-2.05-.71-.71 2.05a.39.39 0 0 1-.74-.26zm4.47 1.59l1.69-4.85a.4.4 0 0 1 .2-.23.37.37 0 0 1 .14 0 .39.39 0 0 1 .16 0l3.23 1.12a.39.39 0 0 1 0 .72.37.37 0 0 1-.3 0l-2.86-1-.58 1.68 2.05.71a.38.38 0 0 1 .22.2.39.39 0 0 1-.48.54l-2.05-.71-.71 2.05a.39.39 0 0 1-.74-.26z"/><path class="cls-17" d="M443.84 471.92L290 505.33l.05 1.23 178.22 33.13 150-40.32v-1.25zm24.3 65.31L299.07 505.8l144.7-31.52 165.7 25z"/><path class="cls-8" d="M618.25 499.41l-150.01 40.32-.04-.01 2.31 198.4 145.11-59.98 2.63-178.73z"/><path d="M612.71 735a66.51 66.51 0 0 1-7.9-7.37 120.72 120.72 0 0 1-8.39-10.14l-.47-.65a83.09 83.09 0 0 1-8.36-1.32c-9.21-1.92-18.31-5-21.2-7.72l-28.74 11c.16-.06 0 0-.24.06a9.06 9.06 0 0 1-.94.31 6.79 6.79 0 0 1-.89.18 5.31 5.31 0 0 1-.82 0s5 7.68 26.38 12.13c18.22 3.81 47.83 7.39 56.82 6.58h.15a21.12 21.12 0 0 1-5.4-3.06zm69.41 17.79a32.2 32.2 0 0 1-5.7-2 58.46 58.46 0 0 1-6.29-3.29 66.23 66.23 0 0 1-6.13-4.1 48.9 48.9 0 0 1-5.2-4.53 23.29 23.29 0 0 0-2.37-2.09 21.93 21.93 0 0 0-2.52-1.68 19.84 19.84 0 0 0-2.6-1.25 17.13 17.13 0 0 0-2.59-.8 15.35 15.35 0 0 0-1.86-.29h-1l-9.82 4.2a24.7 24.7 0 0 1-3.93 1.28 30.1 30.1 0 0 1-4.34.72 30.57 30.57 0 0 1-4.45.1 26.3 26.3 0 0 1-3.16-.37l1.06.26c2.35 1.93 10.29 4.77 19.09 6.86 9.84 2.34 32.08 6.35 40.57 6.73l3.07.7z" class="cls-10"/><path class="cls-18" d="M522.19 716.75L534 719.3a4 4 0 0 0 .76.1 5.31 5.31 0 0 0 .82 0 6.79 6.79 0 0 0 .89-.18 9.06 9.06 0 0 0 .94-.31l.74-.29a20 20 0 0 0 3.9-2.34 42.31 42.31 0 0 0 4.91-4.4 65 65 0 0 0 5.05-5.91c.52-.68 1-1.42 1.54-2.14z"/><path class="cls-19" d="M580.62 695.93a23.44 23.44 0 0 0-4.34-3 17.14 17.14 0 0 0-4.47-1.64s-1.59-.26-2.17-.29a13.24 13.24 0 0 0-1.7 0 12.45 12.45 0 0 0-1.64.25 12.8 12.8 0 0 0-1.35.4l-.3.11a12.63 12.63 0 0 0-2.21 1.08 14.13 14.13 0 0 0-2.05 1.54 17 17 0 0 0-1.88 2 21.22 21.22 0 0 0-1.68 2.42 78 78 0 0 1-4.81 7.09 65 65 0 0 1-5.05 5.91 42.31 42.31 0 0 1-4.91 4.4 18.94 18.94 0 0 1-4.41 2.57L571.07 706a19.3 19.3 0 0 0 4.4-2.54 42.65 42.65 0 0 0 4.92-4.33c.56-.57 1.13-1.17 1.69-1.8-.49-.5-.97-.98-1.46-1.4z"/><path class="cls-18" d="M714.2 738.12a31.66 31.66 0 0 1-5.63-1.89 56.9 56.9 0 0 1-6.21-3.16 64.74 64.74 0 0 1-6-4 47.22 47.22 0 0 1-5.12-4.38 21.63 21.63 0 0 0-2.33-2 21 21 0 0 0-2.48-1.62 19.42 19.42 0 0 0-2.56-1.2 17 17 0 0 0-2.56-.76 14.67 14.67 0 0 0-1.84-.27 12.1 12.1 0 0 0-1.77 0 10.53 10.53 0 0 0-1.7.16 8.72 8.72 0 0 0-1.54.5l-12.29 5.25c-.56.09-1.12.17-1.69.23a31.38 31.38 0 0 1-4.42.13 25.54 25.54 0 0 1-4.22-.53 17.81 17.81 0 0 1-6.34-3.38 64.88 64.88 0 0 1-7.79-7.14 118 118 0 0 1-8.26-9.85 133.4 133.4 0 0 1-7.76-11.52 43.32 43.32 0 0 0-3.71-5.29 31.91 31.91 0 0 0-4.05-4.12 23.06 23.06 0 0 0-4.29-2.89 17 17 0 0 0-4.43-1.57s-1.58-.24-2.15-.26a12.9 12.9 0 0 0-1.69 0 12.51 12.51 0 0 0-1.64.26 12.36 12.36 0 0 0-1.58.47l-33.46 12.42a12.21 12.21 0 0 1 1.59-.47 12.45 12.45 0 0 1 1.64-.25 13.24 13.24 0 0 1 1.7 0c.57 0 2.17.29 2.17.29a17.14 17.14 0 0 1 4.47 1.64 23.44 23.44 0 0 1 4.34 3 33.11 33.11 0 0 1 4.11 4.25 45.31 45.31 0 0 1 3.78 5.44 138.51 138.51 0 0 0 7.91 11.84 120.72 120.72 0 0 0 8.39 10.14 66.51 66.51 0 0 0 7.9 7.37 18.21 18.21 0 0 0 6.41 3.51 25.35 25.35 0 0 0 4.26.57 30.57 30.57 0 0 0 4.45-.1 30.1 30.1 0 0 0 4.34-.72 24.7 24.7 0 0 0 3.93-1.28l9.82-4.2h1a15.35 15.35 0 0 1 1.86.29 17.13 17.13 0 0 1 2.59.8 19.84 19.84 0 0 1 2.6 1.25 21.93 21.93 0 0 1 2.52 1.68 23.29 23.29 0 0 1 2.37 2.09 48.9 48.9 0 0 0 5.2 4.53 66.23 66.23 0 0 0 6.11 4.13 58.46 58.46 0 0 0 6.29 3.29 32.2 32.2 0 0 0 5.7 2l12.55 2.85 31.94-14.84z"/><path class="cls-11" d="M290.01 506.6l7.69 179.99 172.81 51.53-2.31-198.4-178.19-33.12z"/><path class="cls-18" d="M376.35 710c.64 1.07 1.28 2.09 1.92 3a29.76 29.76 0 0 0 3.92 4.74 13.33 13.33 0 0 0 2 1.58 5.8 5.8 0 0 0 2.07.89h.9l.42-.1 10.8-3.58z"/><path class="cls-19" d="M382.19 717.8a32.2 32.2 0 0 1-3.92-4.74 60.76 60.76 0 0 1-4-6.75 85 85 0 0 1-3.69-8.31l-1.94-5.11a24.53 24.53 0 0 0-1.55-3.33 16 16 0 0 0-1.82-2.6 10.69 10.69 0 0 0-2.07-1.85 8 8 0 0 0-2.29-1.08l-1.5-.43h-.22a7.57 7.57 0 0 0-.92 0 8.57 8.57 0 0 0-.94.13l-1 .23a12.35 12.35 0 0 0-3.33 1.64 20.41 20.41 0 0 0-3.34 2.89 32.49 32.49 0 0 0-3.22 4.08 48.29 48.29 0 0 0-3 5.18l-2.79 5.47a26.69 26.69 0 0 0 2.68 2.94 9.76 9.76 0 0 0 3.58 2.31l38.84 11.66a8.47 8.47 0 0 1-3.56-2.33z"/><path class="cls-18" d="M321.5 672.62a7.42 7.42 0 0 0-.88-.2 7.7 7.7 0 0 0-.91-.09 8 8 0 0 0-.93 0c-.31 0-.62.06-.95.11l-1 .22a12.26 12.26 0 0 0-3.4 1.59 19.57 19.57 0 0 0-3.35 2.81 31 31 0 0 0-3.22 4 46.78 46.78 0 0 0-3 5.05L297 699.33a82.49 82.49 0 0 1-7.87 12.23 99.1 99.1 0 0 1-10 11.15 81.29 81.29 0 0 1-10.95 8.88 43 43 0 0 1-10.63 5.35L200.51 755l39.71 14L297 750a43.14 43.14 0 0 0 10.59-5.56 83.58 83.58 0 0 0 10.93-9.16 103.89 103.89 0 0 0 10-11.46 86.37 86.37 0 0 0 7.92-12.54l6.92-13.55a48.29 48.29 0 0 1 3-5.18 32.49 32.49 0 0 1 3.22-4.08 20.41 20.41 0 0 1 3.42-2.87 12.35 12.35 0 0 1 3.38-1.65l1-.23a8.57 8.57 0 0 1 .94-.13 7.57 7.57 0 0 1 .92 0 7.17 7.17 0 0 1 .9.09 7.3 7.3 0 0 1 .87.19z"/><ellipse class="cls-4" cx="495.19" cy="661.63" rx="5.25" ry="8.62" transform="rotate(-47.49 495.18 661.63)"/><ellipse class="cls-4" cx="323.61" cy="556.26" rx="8.62" ry="2.94" transform="rotate(-42.73 323.64 556.29)"/><ellipse class="cls-3" cx="429.96" cy="690.15" rx="5.25" ry="8.62" transform="rotate(-32.44 430.06 690.23)"/><ellipse class="cls-4" cx="581.24" cy="519.5" rx="8.62" ry="5.25" transform="rotate(-42.51 581.29 519.52)"/><ellipse class="cls-3" cx="595.88" cy="550.09" rx="5.25" ry="8.62" transform="rotate(-71.86 595.86 550.09)"/><path class="cls-18" d="M412.74 579.95l-64.15-11.35 3.04 75.25 62.46 15.42-1.35-79.32z"/><path class="cls-20" d="M368.71 630.47a6.35 6.35 0 0 0-.29-1.71 6.62 6.62 0 0 0-.32-.82 7.6 7.6 0 0 0-.44-.8 7.11 7.11 0 0 0-.6-.82 5.59 5.59 0 0 0-.66-.66 4.79 4.79 0 0 0-.73-.51 4.51 4.51 0 0 0-.8-.35 2.23 2.23 0 0 1-.39-.17 2.42 2.42 0 0 1-.36-.25 2.8 2.8 0 0 1-.33-.33 3.64 3.64 0 0 1-.54-.87 3.34 3.34 0 0 1-.17-.47 3.2 3.2 0 0 1-.1-.48 3.39 3.39 0 0 1 0-.49 2.85 2.85 0 0 1 .05-.46 2.14 2.14 0 0 1 .12-.41 1.73 1.73 0 0 1 .2-.35 1.62 1.62 0 0 1 .27-.29 1.53 1.53 0 0 1 .28-.19 1.27 1.27 0 0 1 .3-.12 1.29 1.29 0 0 1 .32 0 1.57 1.57 0 0 1 .34 0h.14a2.15 2.15 0 0 1 .39.17 2.32 2.32 0 0 1 .36.25 2.73 2.73 0 0 1 .33.33 3.62 3.62 0 0 1 .3.41l.08.15.08.15.08.14.08.14.09.13.11.1.13.07h.51l.1-.08.08-.11.06-.12v-.78l-.08-.16-.08-.16-.09-.16-.09-.15a6.93 6.93 0 0 0-.59-.77 5 5 0 0 0-.63-.6 3.68 3.68 0 0 0-.66-.42 3.07 3.07 0 0 0-.7-.25 2.82 2.82 0 0 0-.59-.07 2.27 2.27 0 0 0-.55.07 2.18 2.18 0 0 0-.51.2 2.57 2.57 0 0 0-.47.33 2.75 2.75 0 0 0-.44.48 2.93 2.93 0 0 0-.32.58 3.53 3.53 0 0 0-.2.68 4.68 4.68 0 0 0-.08.78 5.41 5.41 0 0 0 0 .83 5.32 5.32 0 0 0 .16.8 5.58 5.58 0 0 0 .28.78 6.28 6.28 0 0 0 .4.75 5.84 5.84 0 0 0 .49.68 4.74 4.74 0 0 0 .55.55 3.93 3.93 0 0 0 .6.42 3.62 3.62 0 0 0 .66.29 3 3 0 0 1 .53.24 3.11 3.11 0 0 1 .49.34 3.75 3.75 0 0 1 .44.44 4.88 4.88 0 0 1 .4.54 4.74 4.74 0 0 1 .32.6 4.3 4.3 0 0 1 .22.62 4.22 4.22 0 0 1 .13.64 4.34 4.34 0 0 1 0 .66 3.78 3.78 0 0 1-.07.62 2.81 2.81 0 0 1-.17.54 2.24 2.24 0 0 1-.26.46 2.17 2.17 0 0 1-.36.38 2.08 2.08 0 0 1-.38.25 1.75 1.75 0 0 1-.4.15 1.82 1.82 0 0 1-.43 0 2.21 2.21 0 0 1-.46-.06h-.23a3 3 0 0 1-.53-.24 3.17 3.17 0 0 1-.48-.34 3.61 3.61 0 0 1-.44-.44 4.69 4.69 0 0 1-.39-.55l-.07-.1-.06-.1-.06-.11-.06-.11-.12-.19-.13-.15-.15-.1-.17-.06h-.36l-.1.08-.08.11-.06.12v.69l.06.12.07.15.08.14.08.14.09.14a8 8 0 0 0 .69.91 5.86 5.86 0 0 0 .75.71 4.55 4.55 0 0 0 .81.51 4.06 4.06 0 0 0 .86.31 3.31 3.31 0 0 0 .69.09 2.67 2.67 0 0 0 .65-.07 2.59 2.59 0 0 0 .6-.22 3 3 0 0 0 .56-.38 3.21 3.21 0 0 0 .53-.56 3.41 3.41 0 0 0 .39-.69 4.17 4.17 0 0 0 .25-.81 5.6 5.6 0 0 0 .1-.93v-.46zm12.29 6.81v-.18l-5.17-15.85v-.2l-.05-.09-.06-.1-.11-.12-.12-.1-.13-.07h-.5l-.1.08-.06.07v.24l-4.2 13.64v.67l.06.15.09.14.11.13.12.1.13.07h.49l.1-.08v-.23l1.5-4.85 4.84 1.11 1.85 5.66v.24l.05.08.1.12.11.1.13.08h.5l.1-.08.08-.11.06-.12v-.49zm-7.5-8.09l1.71-5.55 2.09 6.42zm-2.7-19.42a4.62 4.62 0 0 0 .52-.29 4.8 4.8 0 0 0 .48-.36 5.13 5.13 0 0 0 .44-.42 5.58 5.58 0 0 0 .4-.48 5.76 5.76 0 0 0 .36-.54 6.46 6.46 0 0 0 .31-.6q.14-.31.26-.66a7.15 7.15 0 0 0 .2-.7c.06-.24.1-.49.14-.74s.06-.51.07-.78 0-.54 0-.81v-.53s0-.36-.06-.53-.05-.36-.08-.53-.07-.35-.11-.53-.08-.35-.13-.52-.1-.35-.16-.52-.12-.34-.19-.51-.14-.34-.21-.5-.15-.33-.24-.49l-.26-.48-.28-.47-.31-.46-.33-.44-.35-.42-.38-.4-.4-.39a5.25 5.25 0 0 0 .52-.86 5.76 5.76 0 0 0 .36-1 6.92 6.92 0 0 0 .2-1.09 8.91 8.91 0 0 0 0-1.21q0-.35 0-.7t-.1-.69c0-.23-.1-.46-.16-.68s-.13-.45-.21-.67-.17-.44-.26-.66-.19-.42-.3-.62-.22-.4-.33-.59-.24-.38-.37-.56-.27-.35-.41-.52-.29-.32-.44-.47-.31-.29-.47-.43-.33-.26-.5-.38a6.13 6.13 0 0 0-.52-.33 5.19 5.19 0 0 0-.53-.27 5.12 5.12 0 0 0-1.1-.34l-4.08-.77h-.53l-.12.05-.14.12-.1.08-.09.09-.09.1-.08.12-.06.13-.05.14v.67l.82 22.69v.53l.06.17.07.16.07.16.08.15.09.14.1.13.11.12.12.11.12.1.13.09.13.07.14.05h.14l5.06 1.07a5.43 5.43 0 0 0 .65.1 4.76 4.76 0 0 0 .63 0 4.37 4.37 0 0 0 .61-.07 4.23 4.23 0 0 0 .59-.15 4.92 4.92 0 0 0 .55-.18zm-7.53-23.17l2.68.51.27.07.26.1.26.13.25.17.24.19.23.21.21.23.2.26.19.28.17.29.15.3c0 .1.09.21.13.32s.07.21.1.32.05.22.08.33 0 .22 0 .33v1s0 .21-.05.31 0 .2-.08.29-.07.18-.11.27l-.13.25-.15.23-.17.2-.18.18-.2.15-.21.13-.23.1-.24.06h-.78l-2.67-.53zm6.67 19.49l-.27.2-.3.17-.32.13-.34.09H368l-.38-.06-3.68-.77-.32-9.13 3.69.74.37.1.36.14.36.18.35.23.33.26.31.29.29.32.27.35c.09.12.17.25.25.38s.15.26.22.4.14.27.2.42.12.29.18.44.1.3.14.45.08.3.11.46.05.31.07.46 0 .31 0 .47v.9s0 .29-.08.42-.07.27-.11.4-.1.25-.15.37-.11.23-.17.34a3.4 3.4 0 0 1-.2.31 3.21 3.21 0 0 1-.23.28zm21.28 33.46l-.06-.15-.1-.15-.1-.13-.12-.11-.13-.07-.14-.05-6.89-1.61-.4-14.12-.02-.17-.04-.16-.07-.16-.09-.15-.11-.13-.12-.1-.12-.07-.14-.05-.14-.01-.12.02-.12.05-.1.08-.08.11-.06.13-.04.14-.01.17.43 14.92.02.17.04.16.07.16.09.14.11.13.12.11.12.08.14.04 7.57 1.78.14.02.13-.02.11-.05.11-.08.08-.11.06-.12.03-.15.01-.16-.02-.17-.04-.16zm4.17-23.77a8 8 0 0 0 1.78-.18 7.73 7.73 0 0 0 1.68-.57 8.68 8.68 0 0 0 1.58-1l.19-.25a1.52 1.52 0 0 0 .14-.28 1.61 1.61 0 0 0 .08-.31 1.92 1.92 0 0 0 0-.34l-.17-7.9v-.54l-.06-.18-.07-.17-.08-.16-.09-.15-.1-.15-.11-.14-.12-.13-.12-.12-.13-.1-.14-.09-.14-.07-.14-.05h-.15l-5.34-1.07h-.7l-.18.17-.11.08-.1.09-.09.11-.08.12-.07.13-.06.15v.68a2.53 2.53 0 0 0 0 .37 2.31 2.31 0 0 0 .23.68 2.38 2.38 0 0 0 .19.31 2.15 2.15 0 0 0 .23.27l.25.21a1.56 1.56 0 0 0 .58.24l3.84.78.12 5.21a5.73 5.73 0 0 1-1 .48 5.62 5.62 0 0 1-1.08.27 6.1 6.1 0 0 1-1.15.06 7.38 7.38 0 0 1-1.21-.15 8.42 8.42 0 0 1-1.63-.52 8.68 8.68 0 0 1-1.51-.85 10.12 10.12 0 0 1-1.39-1.18 12.93 12.93 0 0 1-1.27-1.51 13.88 13.88 0 0 1-1.06-1.71 12.7 12.7 0 0 1-1.26-3.7 13.59 13.59 0 0 1-.2-2 12.09 12.09 0 0 1 .09-1.93 9.32 9.32 0 0 1 .39-1.72 7.81 7.81 0 0 1 .69-1.52 7.4 7.4 0 0 1 1-1.31 6.74 6.74 0 0 1 1.22-1 5.52 5.52 0 0 1 1.36-.65 5.63 5.63 0 0 1 1.49-.26 7 7 0 0 1 1.63.13q.36.07.71.17c.23.07.46.14.69.23s.45.19.67.3.44.23.66.36.43.27.63.42.41.31.61.48.39.35.58.53.38.38.56.59a2.51 2.51 0 0 0 .24.27l.25.21a1.56 1.56 0 0 0 .27.15 1.38 1.38 0 0 0 .28.09h.71l.12-.07.11-.08.1-.09.1-.11.08-.12.07-.13.06-.14v-.7a2.87 2.87 0 0 0 0-.38 2.32 2.32 0 0 0-.08-.35 2 2 0 0 0-.13-.31 1.77 1.77 0 0 0-.18-.28 17.44 17.44 0 0 0-1.69-1.71 13.78 13.78 0 0 0-1.77-1.32 11.59 11.59 0 0 0-1.86-.94 10.58 10.58 0 0 0-1.94-.56 9.63 9.63 0 0 0-2.21-.17 7.69 7.69 0 0 0-2 .36 7.57 7.57 0 0 0-1.84.88 9.22 9.22 0 0 0-1.65 1.4 10.23 10.23 0 0 0-1.34 1.8 10.67 10.67 0 0 0-.93 2.07 12.68 12.68 0 0 0-.53 2.34 16.55 16.55 0 0 0-.12 2.62 18.43 18.43 0 0 0 .27 2.7 17.28 17.28 0 0 0 .66 2.58 17.48 17.48 0 0 0 1.05 2.45 19 19 0 0 0 1.45 2.33 17.67 17.67 0 0 0 1.73 2 13.85 13.85 0 0 0 1.88 1.6 11.79 11.79 0 0 0 2 1.16 11.38 11.38 0 0 0 2.21.71 9.57 9.57 0 0 0 1.87.08zM377 610.69a2.33 2.33 0 0 0 .23.66 2.67 2.67 0 0 0 .19.31 2.52 2.52 0 0 0 .23.27l.25.21a1.64 1.64 0 0 0 .27.15 1.47 1.47 0 0 0 .28.09 1.2 1.2 0 0 0 .28 0 1 1 0 0 0 .26 0l.24-.11.21-.17.18-.23a1.36 1.36 0 0 0 .12-.27 1.63 1.63 0 0 0 .07-.31 2.15 2.15 0 0 0 0-.34l-.68-23.06a2.53 2.53 0 0 0 0-.36 2.29 2.29 0 0 0-.23-.67 2.57 2.57 0 0 0-.19-.31 2.19 2.19 0 0 0-.23-.27l-.25-.21a1.44 1.44 0 0 0-.56-.23 1.25 1.25 0 0 0-.29 0 1 1 0 0 0-.26 0l-.24.12-.22.19-.17.24a1.49 1.49 0 0 0-.12.28 1.73 1.73 0 0 0-.07.31 2.24 2.24 0 0 0 0 .35l.7 23a2.4 2.4 0 0 0 0 .36zm25.44 31.49l-.07-.16-.1-.15-.11-.13-.12-.11-.13-.07-.14-.05-7.72-1.81-.15-5.84 5.62 1.28.14.02.13-.02.12-.05.11-.08.08-.11.06-.13.04-.14v-.17l-.01-.17-.04-.16-.07-.16-.09-.15-.11-.13-.12-.11-.13-.07-.14-.05-5.63-1.28-.14-5.87 7.76 1.72.14.01.13-.02.12-.05.11-.08.08-.11.07-.13.03-.15.01-.16-.01-.18-.05-.16-.06-.16-.1-.15-.11-.13-.12-.11-.14-.07-.14-.05-8.46-1.87-.14-.01-.13.02-.12.05-.1.09-.09.1-.06.13-.03.15-.01.16.37 15.06.02.17.04.16.07.16.09.14.11.14.12.1.13.08.14.05 8.42 1.98.14.01.12-.01.12-.05.11-.08.09-.11.06-.13.04-.14.01-.17-.02-.17-.04-.16z"/><path class="cls-18" d="M526.05 574.67l.04 79.91 52.83-19.76 1.41-75.05-54.28 14.9z"/><path class="cls-20" d="M549 616.85v-.22l-.09-.08h-.33l-.11.05-.11.08-.1.11-.09.14-.05.1v.3l-4.19 16.41v.68l.05.12.08.1.09.07h.33l.12-.06.11-.08.1-.11.09-.14v-.31l1.5-5.85 4.2-1.47 1.4 4.79v.18l.09.07h.33l.12-.06.11-.08.1-.11.09-.14.08-.15.05-.16v-.66l-3.92-13.5zm-2.26 9.49l1.7-6.64 1.6 5.49zm-5.5 5.37a5.19 5.19 0 0 1-.42 1.29 5.27 5.27 0 0 1-.34.59 4.72 4.72 0 0 1-.35.48 3.62 3.62 0 0 1-.37.39 2.74 2.74 0 0 1-.4.29 2.31 2.31 0 0 1-.42.2h-.1a1.75 1.75 0 0 1-.47.05 1.37 1.37 0 0 1-.43-.09 1.41 1.41 0 0 1-.38-.22 1.88 1.88 0 0 1-.34-.36l-.06-.07-.05-.08v-.17l-.1-.13-.12-.08h-.28l-.12.06-.11.09-.1.12-.1.14-.08.16-.05.16v.71l.05.1.07.11.07.11.07.1.08.1a3.15 3.15 0 0 0 .61.56 2.28 2.28 0 0 0 .66.32 2.16 2.16 0 0 0 .72.08 2.79 2.79 0 0 0 .78-.17 3.45 3.45 0 0 0 .63-.3 4.1 4.1 0 0 0 .59-.44 5.37 5.37 0 0 0 .56-.57 7.32 7.32 0 0 0 .52-.71 7.91 7.91 0 0 0 .5-.89 7.59 7.59 0 0 0 .38-.94 7.78 7.78 0 0 0 .25-1 8.33 8.33 0 0 0 .13-1v-.5a6.4 6.4 0 0 0 0-.85 5.08 5.08 0 0 0-.15-.77 4.16 4.16 0 0 0-.26-.68 3.8 3.8 0 0 0-.36-.6 3 3 0 0 0-.51-.53 2.18 2.18 0 0 0-.58-.33 2.08 2.08 0 0 0-.64-.13 2.65 2.65 0 0 0-.71.07 1.32 1.32 0 0 1-.35 0 1 1 0 0 1-.32-.06 1.08 1.08 0 0 1-.29-.17 1.47 1.47 0 0 1-.55-.15 1.87 1.87 0 0 1-.21-.35 2.25 2.25 0 0 1-.14-.4 2.82 2.82 0 0 1-.07-.46 3.66 3.66 0 0 1 0-.51 4.1 4.1 0 0 1 .07-.52 4 4 0 0 1 .13-.5 4 4 0 0 1 .19-.47 4.09 4.09 0 0 1 .26-.45 3.79 3.79 0 0 1 .27-.36 2.8 2.8 0 0 1 .28-.29 2.1 2.1 0 0 1 .3-.21 1.78 1.78 0 0 1 .32-.15h.15a1.31 1.31 0 0 1 .35 0 1 1 0 0 1 .32.07 1.1 1.1 0 0 1 .29.17 1.55 1.55 0 0 1 .26.27l.07.11.07.11.07.11.07.11.08.08h.34l.12-.05.11-.08.1-.11.1-.14.08-.16.05-.16v-.76l-.07-.12-.07-.12-.08-.12-.08-.11a2.81 2.81 0 0 0-.5-.49 1.94 1.94 0 0 0-.55-.29 1.74 1.74 0 0 0-.59-.09 2.16 2.16 0 0 0-.63.12 2.78 2.78 0 0 0-.53.24 3.35 3.35 0 0 0-.5.36 4.37 4.37 0 0 0-.47.48 5.84 5.84 0 0 0-.44.6 6.63 6.63 0 0 0-.43.75 6.44 6.44 0 0 0-.32.79 6.57 6.57 0 0 0-.21.83 7.12 7.12 0 0 0-.11.88 6.35 6.35 0 0 0 0 .85 4.56 4.56 0 0 0 .12.76 3.65 3.65 0 0 0 .23.67 3.18 3.18 0 0 0 .34.58 2.58 2.58 0 0 0 .43.44 1.82 1.82 0 0 0 .48.28 1.71 1.71 0 0 0 .54.11 2.18 2.18 0 0 0 .59-.06 1.8 1.8 0 0 1 .47 0 1.37 1.37 0 0 1 .43.09 1.42 1.42 0 0 1 .38.22 1.9 1.9 0 0 1 .34.35 2.44 2.44 0 0 1 .27.46 2.87 2.87 0 0 1 .18.53 3.69 3.69 0 0 1 .09.6 5.27 5.27 0 0 1 0 .68 5.48 5.48 0 0 1-.1.54zm4.93-40.89a10.77 10.77 0 0 0 .21-1.22 11.69 11.69 0 0 0 .08-1.26v-.7s0-.45-.07-.67-.07-.43-.12-.63-.1-.41-.16-.6-.13-.38-.2-.56-.15-.35-.24-.51a5 5 0 0 0-.28-.46 4.39 4.39 0 0 0-.31-.41 4.08 4.08 0 0 0-.35-.35 3.52 3.52 0 0 0-.37-.29 3.29 3.29 0 0 0-.83-.42 2.91 2.91 0 0 0-.45-.11 3 3 0 0 0-.47 0 3.38 3.38 0 0 0-.48 0 3.72 3.72 0 0 0-.5.11l-3.69 1.07h-.13l-.12.06-.12.08-.12.09-.11.11-.1.12-.1.13-.09.14-.09.15-.08.16-.07.17-.06.18v.8l-.08 23.59v.66l.06.14.06.13.07.11.08.09.09.08.1.07.1.06h.59l4.56-1.48a5.16 5.16 0 0 0 .59-.23 5.61 5.61 0 0 0 .57-.31 6.53 6.53 0 0 0 .55-.38c.18-.14.36-.29.53-.46s.34-.34.51-.52.32-.37.47-.56.3-.4.44-.61.28-.43.41-.66.25-.46.37-.7.23-.48.33-.73.2-.5.29-.77.17-.53.25-.8.15-.55.2-.82.11-.55.15-.83.07-.55.09-.83 0-.56 0-.84v-1.06s0-.34-.05-.51 0-.33-.08-.49-.06-.32-.1-.47l-.12-.46s-.09-.3-.15-.44-.11-.28-.17-.42-.12-.27-.19-.4-.14-.25-.21-.37-.15-.24-.23-.35l-.26-.33-.27-.3-.3-.27-.32-.24-.34-.21a10.58 10.58 0 0 0 .84-2.32zm-7-3.74l2.41-.71.24-.05h.46l.22.05.21.09.2.12.18.15.17.18.16.2.14.22.12.25c0 .09.07.17.1.27s.06.19.08.29 0 .2.06.31 0 .21 0 .32v1.04s0 .23-.06.34-.05.23-.09.34-.07.22-.1.33-.08.21-.12.32l-.14.31-.15.29-.17.28-.18.25-.2.23-.21.21-.22.18-.28.11-.24.12-.25.09-2.41.73zm6.27 11.41c0 .13.08.27.11.4s.06.28.08.42 0 .29 0 .45v.95s0 .32-.05.48 0 .32-.08.47-.07.32-.12.47-.09.31-.14.46-.11.29-.17.44-.12.28-.19.42-.14.27-.21.39-.15.26-.23.38l-.25.35-.27.32-.29.29-.3.26-.31.21-.33.17-.34.13-3.25 1.05v-9.43l3.31-1 .33-.08h.63l.31.07.29.11.27.15.25.19.23.23a2.86 2.86 0 0 1 .21.27 3.15 3.15 0 0 1 .19.3 3.52 3.52 0 0 1 .16.33q.11.15.18.35zm25-20.49a1.31 1.31 0 0 0-.09-.25l-.13-.19a7 7 0 0 0-1.28-1 5.39 5.39 0 0 0-1.37-.56 5.18 5.18 0 0 0-1.46-.16 6.27 6.27 0 0 0-1.55.25 8.22 8.22 0 0 0-1.79.76 9.71 9.71 0 0 0-1.67 1.22 13 13 0 0 0-1.55 1.67 18.33 18.33 0 0 0-1.42 2.13 20.89 20.89 0 0 0-1.19 2.4 20.25 20.25 0 0 0-.86 2.5 20.72 20.72 0 0 0-.52 2.61 22 22 0 0 0-.19 2.7 19.44 19.44 0 0 0 .14 2.61A14 14 0 0 0 556 597a10.68 10.68 0 0 0 .81 2 9 9 0 0 0 1.14 1.66 7.07 7.07 0 0 0 1.37 1.24 5.22 5.22 0 0 0 1.51.71 5.12 5.12 0 0 0 1.64.19 6.77 6.77 0 0 0 1.77-.34 8.12 8.12 0 0 0 1.51-.67 9.7 9.7 0 0 0 1.44-1 12.57 12.57 0 0 0 1.36-1.34 17 17 0 0 0 1.28-1.67 3.62 3.62 0 0 0 .16-.34 2.91 2.91 0 0 0 .12-.34 2.73 2.73 0 0 0 .07-.34 2.65 2.65 0 0 0 0-.34l.12-7.63v-.78l-.06-.13-.07-.11-.07-.1-.08-.09-.09-.07-.09-.06h-.53l-4.25 1.3h-.12l-.12.06-.11.08-.11.09-.1.1-.1.11-.09.13-.08.14-.08.15-.07.15-.06.16-.05.17v.72a2.63 2.63 0 0 0 0 .35 2 2 0 0 0 .06.31 1.57 1.57 0 0 0 .1.26l.15.22.18.16.2.09h.46l3.06-1-.07 5.06a9.89 9.89 0 0 1-.83.94 7.94 7.94 0 0 1-.88.76 6.82 6.82 0 0 1-.93.59 6.31 6.31 0 0 1-1 .41 5 5 0 0 1-1.31.25 3.72 3.72 0 0 1-2.31-.66 5.15 5.15 0 0 1-1-.92 6.59 6.59 0 0 1-.83-1.22 8 8 0 0 1-.59-1.45 10.53 10.53 0 0 1-.34-1.68 14.62 14.62 0 0 1-.1-1.91 16.39 16.39 0 0 1 .14-2 15.11 15.11 0 0 1 .38-1.91 14.8 14.8 0 0 1 .62-1.83 15.36 15.36 0 0 1 .87-1.75 13.49 13.49 0 0 1 1-1.56 9.56 9.56 0 0 1 1.14-1.23 7.19 7.19 0 0 1 1.23-.9 6.08 6.08 0 0 1 1.32-.57 5.34 5.34 0 0 1 .57-.13 4.52 4.52 0 0 1 .55-.06 4 4 0 0 1 .53 0 3.75 3.75 0 0 1 .51.08 4 4 0 0 1 1 .36 4.15 4.15 0 0 1 .45.27 4.6 4.6 0 0 1 .42.33l.18.16.19.1h.55l.12-.06.11-.07.11-.09.11-.11.1-.12.09-.13.08-.14.08-.14.07-.15.06-.16v-.88a3.25 3.25 0 0 0 0-.36 2 2 0 0 0-.13-.32zm-15.21 36.41l-.09-.04-.11-.01-.11.02-.12.06-.11.08-.09.11-.1.14-.07.15-.05.16-.04.16-.01.17-.15 14.95.01.16.03.14.05.12.08.1.08.07.1.04.1.01.12-.03 6.26-2.24.12-.05.1-.08.1-.11.09-.13.07-.16.06-.15.03-.16.01-.17-.01-.16-.03-.14-.05-.12-.07-.1-.08-.08-.1-.04-.1-.01-.12.03-5.69 2.02.15-14.1-.01-.16-.03-.14-.06-.12-.07-.11-.09-.08zm14.95-3.52l.11-.06.11-.08.09-.11.09-.13.07-.15.05-.15.03-.16.02-.17-.01-.16-.03-.14-.05-.12-.06-.1-.09-.08-.09-.05-.1-.01-.11.02-6.73 2.26-.11.06-.1.08-.1.11-.09.13-.07.15-.05.16-.04.16-.01.17-.19 14.8.01.16.03.14.04.12.08.1.08.07.1.04h.1l.11-.02 6.69-2.39.11-.06.1-.08.09-.1.09-.13.07-.15.05-.16.03-.16.02-.16-.01-.16-.03-.14-.05-.12-.06-.1-.09-.07-.09-.05h-.1l-.11.02-6.13 2.18.08-5.73 4.47-1.55.11-.06.11-.08.09-.11.09-.13.07-.15.06-.16.03-.16.01-.17-.01-.16-.03-.14-.04-.11-.07-.11-.09-.07-.09-.04-.1-.02-.12.03-4.47 1.55.08-5.76 6.15-2.08zM550.73 606l.15.22.19.17.21.09h.46l.24-.11.22-.17.21-.23a2.53 2.53 0 0 0 .19-.29 2.74 2.74 0 0 0 .27-.65 2.67 2.67 0 0 0 .07-.34 2.87 2.87 0 0 0 0-.36l.21-23.14a2.7 2.7 0 0 0 0-.35 1.94 1.94 0 0 0-.06-.31 1.54 1.54 0 0 0-.11-.27l-.15-.23-.19-.17-.21-.1h-.47l-.25.1-.23.16-.21.23a2.31 2.31 0 0 0-.19.29 2.58 2.58 0 0 0-.27.65 2.71 2.71 0 0 0-.07.35 3 3 0 0 0 0 .37l-.19 23.21a2.75 2.75 0 0 0 0 .34 1.86 1.86 0 0 0 .06.3 1.32 1.32 0 0 0 .12.24z"/><g class="cls-21"><path class="cls-22" d="M571.43 171.15v.1l.15.33a1 1 0 0 0 1.82-.83l-.22-.47a1 1 0 1 0-1.8.87zm-82.49 332.09l-.61.78a1 1 0 0 0 1.57 1.24l.63-.79a1 1 0 0 0-1.58-1.23zm6.12-9l-.5.85a1 1 0 1 0 1.71 1l.52-.87a1 1 0 1 0-1.73-1zm4.46-9.8q-.15.46-.31.92a1 1 0 0 0 1.89.66q.17-.49.33-1a1 1 0 1 0-1.9-.61zm1.64-10.44v.96a1 1 0 0 0 2 0v-1.04a1 1 0 1 0-2 0zM500 463.22q.08.48.16 1a1 1 0 0 0 2-.31l-.16-1a1 1 0 0 0-2 .33zm-2.53-10.54l.29.94a1 1 0 0 0 1.91-.58l-.3-1a1 1 0 0 0-1.91.6zm-4-10l.43.88a1 1 0 1 0 1.8-.87l-.45-.91a1 1 0 1 0-1.79.89zm-5.59-9.26l.57.8a1 1 0 1 0 1.64-1.15l-.59-.83a1 1 0 1 0-1.62 1.17zm-7-8.25l.69.7a1 1 0 0 0 1.44-1.39l-.71-.72a1 1 0 1 0-1.42 1.41zm-8.18-7.1l.79.6a1 1 0 0 0 1.22-1.58l-.8-.61a1 1 0 1 0-1.2 1.6zm-9.09-6l.86.5a1 1 0 1 0 1-1.73l-.87-.51a1 1 0 0 0-1 1.74zm-9.74-4.89l.91.4a1 1 0 1 0 .82-1.82l-.92-.41a1 1 0 0 0-.81 1.83zm-10.18-3.94l.94.32a1 1 0 0 0 .66-1.89l-1-.33a1 1 0 1 0-.64 1.89zm-10.47-3.11l1 .25a1 1 0 1 0 .51-1.93l-1-.25a1 1 0 1 0-.5 1.94zm-10.68-2.39l1 .19a1 1 0 0 0 .39-2l-1-.19a1 1 0 1 0-.38 2zm-10.79-1.62l1 .1a1 1 0 1 0 .21-2l-1-.1a1 1 0 1 0-.19 2zm-10.9-.57h1a1 1 0 1 0 0-2h-1a1 1 0 0 0 0 2zm-10.93.26l1-.05a1 1 0 0 0-.1-2l-1 .05a1 1 0 1 0 .11 2zm-10.91.9l1-.1a1 1 0 1 0-.21-2l-1 .11a1 1 0 0 0 .21 2zm-10.87 1.41l1-.15a1 1 0 1 0-.29-2l-1 .15a1 1 0 1 0 .3 2zm-10.82 1.8l1-.18a1 1 0 0 0-.35-2l-1 .18a1 1 0 0 0 .36 2zM346.5 402l1-.2a1 1 0 0 0-.4-2l-1 .2a1 1 0 0 0 .4 2zm-10.75 2.3l1-.21a1 1 0 0 0-.43-2l-1 .21a1 1 0 0 0 .43 2zM325 406.61l1-.19a1 1 0 1 0-.39-2l-1 .19a1 1 0 0 0 .38 2zm-10.89 1.86l1-.15a1 1 0 1 0-.3-2l-1 .15a1 1 0 1 0 .3 2zm-10.95 1.43l1-.11a1 1 0 1 0-.23-2l-1 .11a1 1 0 0 0 .23 2zm-11 1.06l1-.08a1 1 0 0 0-.17-2l-1 .08a1 1 0 1 0 .16 2zm-11 .69h1a1 1 0 0 0-.1-2h-1a1 1 0 0 0 .09 2zm-11 .31h1a1 1 0 0 0 0-2h-1a1 1 0 1 0 0 2zm-11-.13h1a1 1 0 1 0 .06-2h-1a1 1 0 0 0-.07 2zm-11-.64l1 .08a1 1 0 1 0 .16-2l-1-.08a1 1 0 1 0-.17 2zm-11-1.28l1 .15a1 1 0 1 0 .28-2l-1-.14a1 1 0 1 0-.3 2zm-10.89-2.11l1 .23a1 1 0 1 0 .45-1.95l-1-.23a1 1 0 1 0-.47 1.94zm-10.64-3.26l.95.36a1 1 0 0 0 .69-1.88l-.92-.35a1 1 0 1 0-.72 1.87zm-10-5l.87.56a1 1 0 0 0 1-1.7l-.81-.52a1 1 0 0 0-1.1 1.67zm-8.5-7.3l.71.73a1 1 0 0 0 1.42-1.41l-.69-.71a1 1 0 1 0-1.44 1.38zm-7.11-8.57l.6.82a1 1 0 1 0 1.61-1.19l-.58-.8a1 1 0 0 0-1.62 1.17zm-5.93-9.41l.49.89a1 1 0 0 0 1.74-1l-.48-.87a1 1 0 1 0-1.76 1zm-4.72-10.07l.38.94a1 1 0 1 0 1.85-.75l-.37-.92a1 1 0 1 0-1.86.73zm-3.4-10.59l.25 1a1 1 0 1 0 1.93-.51l-.25-1a1 1 0 1 0-1.94.49zm-2-11l.12 1a1 1 0 1 0 2-.24q-.06-.49-.11-1a1 1 0 1 0-2 .22zm-.46-11.12v1a1 1 0 1 0 2 0v-1a1 1 0 1 0-2-.06zm1.05-11.07l-.15 1a1 1 0 1 0 2 .29l.15-1a1 1 0 1 0-2-.3zm2-10.88l-.22 1a1 1 0 1 0 2 .42l.21-1a1 1 0 1 0-2-.44zm2.91-10.69l-.31 1a1 1 0 0 0 1.91.6l.3-.94a1 1 0 1 0-1.9-.62zm4.08-10.33l-.43.92a1 1 0 0 0 1.82.83l.42-.9a1 1 0 1 0-1.81-.85zm5.47-9.69l-.56.85a1 1 0 0 0 1.68 1.09l.54-.82a1 1 0 1 0-1.66-1.11zm6.83-8.77l-.67.76a1 1 0 0 0 1.51 1.32l.65-.74a1 1 0 0 0-1.49-1.33zm7.82-7.86l-.74.68a1 1 0 0 0 1.36 1.46l.73-.67a1 1 0 1 0-1.35-1.47zm8.33-7.24l-.77.64a1 1 0 0 0 1.29 1.53l.76-.64a1 1 0 0 0-1.28-1.53zm8.55-7l-.8.62a1 1 0 1 0 1.23 1.58l.78-.6a1 1 0 0 0-1.22-1.59zm9.16-6.27l-.86.53a1 1 0 1 0 1.06 1.7l.84-.52a1 1 0 1 0-1-1.71zm9.72-5.34l-.9.45a1 1 0 0 0 .9 1.79l.89-.44a1 1 0 0 0-.88-1.79zm10.02-4.34l-.94.37a1 1 0 0 0 .75 1.85l.92-.37a1 1 0 0 0-.74-1.86zm10.43-3.72l-1 .31a1 1 0 0 0 .62 1.9l.95-.31a1 1 0 0 0-.61-1.91zm10.64-3l-1 .25a1 1 0 0 0 .51 1.94l1-.25a1 1 0 0 0-.5-1.94zm10.78-2.47l-1 .2a1 1 0 1 0 .41 2l1-.2a1 1 0 1 0-.4-2zm10.86-2l-1 .17a1 1 0 0 0 .33 2l1-.17a1 1 0 0 0-.33-2zm10.9-1.81l-1 .14a1 1 0 0 0 .28 2l1-.13a1 1 0 0 0-.26-2zm11-1l-1 .05a1 1 0 0 0 .11 2l1-.05a1 1 0 0 0-.1-2zm11.08-.11h-1a1 1 0 1 0 0 2h1a1 1 0 0 0 .06-2zm11.06.81l-1-.11a1 1 0 0 0-.21 2l1 .11a1 1 0 1 0 .23-2zm10.95 1.76l-1-.2a1 1 0 0 0-.39 2l1 .2a1 1 0 1 0 .41-2zm10.75 2.75l-1-.29a1 1 0 1 0-.57 1.92l.95.29a1 1 0 1 0 .59-1.91zm10.46 3.79l-.93-.39a1 1 0 1 0-.76 1.85l.91.38a1 1 0 0 0 .78-1.84zm10 4.86l-.89-.49a1 1 0 0 0-1 1.76l.87.48a1 1 0 0 0 1-1.75zm9.39 5.95l-.83-.59a1 1 0 0 0-1.15 1.64l.81.57a1 1 0 1 0 1.17-1.62zm8.68 6.88l-.77-.65a1 1 0 0 0-1.28 1.53l.76.64a1 1 0 0 0 1.29-1.53zm8.3 7.27l-.74-.67a1 1 0 0 0-1.34 1.49l.74.67a1 1 0 0 0 1.34-1.48zm8.11 7.45l-.73-.68a1 1 0 0 0-1.36 1.47l.73.68a1 1 0 1 0 1.36-1.47zm8.09 7.42l-.74-.67a1 1 0 1 0-1.34 1.48l.74.67a1 1 0 1 0 1.34-1.49zm8.29 7.16l-.77-.64a1 1 0 1 0-1.28 1.54l.78.64a1 1 0 0 0 1.27-1.54zm8.65 6.67l-.81-.58a1 1 0 1 0-1.18 1.62l.82.59a1 1 0 1 0 1.17-1.63zm9.11 6l-.85-.52a1 1 0 1 0-1 1.7l.86.52a1 1 0 0 0 1-1.71zm9.55 5.28l-.89-.45a1 1 0 1 0-.91 1.78l.9.46a1 1 0 1 0 .9-1.79zm9.94 4.47l-.92-.36a1 1 0 0 0-.74 1.86l.94.37a1 1 0 1 0 .72-1.87zm10.35 3.34l-1-.25a1 1 0 0 0-.52 1.93l1 .26a1 1 0 0 0 .5-1.94zm10.67 2.12l-1-.14a1 1 0 1 0-.3 2l1 .14a1 1 0 0 0 .28-2zm10.84.87h-1a1 1 0 1 0-.06 2h1a1 1 0 1 0 0-2zm10.87-.4l-1 .09a1 1 0 0 0 .17 2l1-.09a1 1 0 1 0-.19-2zm10.75-1.66l-1 .2a1 1 0 1 0 .4 2l1-.21a1 1 0 0 0-.42-2zm10.47-2.93l-.94.32a1 1 0 0 0 .64 1.9l1-.33a1 1 0 1 0-.66-1.89zm10-4.24l-.88.44a1 1 0 1 0 .88 1.79l.91-.45a1 1 0 0 0-.91-1.78zm9.24-5.64l-.8.58a1 1 0 0 0 1.16 1.63l.82-.59a1 1 0 0 0-1.18-1.61zm8.58-6.78l-.76.63a1 1 0 1 0 1.27 1.54l.78-.64a1 1 0 0 0-1.28-1.54zm7.93-7.43l-.68.72a1 1 0 1 0 1.45 1.38l.7-.74a1 1 0 0 0-1.46-1.36zm6.66-8.51l-.54.82a1 1 0 0 0 1.66 1.11l.56-.85a1 1 0 1 0-1.68-1.09zm5-9.57l-.38.91a1 1 0 0 0 1.84.79l.39-.94a1 1 0 0 0-1.85-.76zm3.17-10.3c-.07.32-.15.64-.22 1a1 1 0 0 0 1.95.46l.23-1a1 1 0 1 0-2-.43zm1.59-10.73q0 .5-.08 1a1 1 0 1 0 2 .18q0-.5.09-1a1 1 0 1 0-2-.16zm.26-10.88v1a1 1 0 0 0 2 0v-1a1 1 0 1 0-2 0zm-.69-10.9l.1 1a1 1 0 1 0 2-.19l-.1-1a1 1 0 0 0-2 .2zM580.65 202l.17 1a1 1 0 0 0 2-.34l-.17-1a1 1 0 1 0-2 .35zm-2.32-10.68l.24 1a1 1 0 1 0 1.94-.48l-.25-1a1 1 0 1 0-1.94.5zm-3.11-10.47l.32.94a1 1 0 0 0 1.9-.63l-.32-1a1 1 0 0 0-1.89.64z"/><path class="cls-23 cls-22" d="M591.22 181.44l.11.29a2 2 0 0 0 3.75-1.39l-.15-.39a2 2 0 0 0-3.71 1.49zM488.16 500.09l-.42.6A2 2 0 1 0 491 503l.44-.63a2 2 0 0 0-3.29-2.28zm5.42-9l-.33.65a2 2 0 0 0 3.54 1.86l.35-.69a2 2 0 0 0-3.56-1.82zm3.8-9.6l-.2.69a2 2 0 0 0 3.84 1.13l.21-.75a2 2 0 1 0-3.86-1.06zm1.31-10.09v.73a2 2 0 0 0 4 0v-.77a2 2 0 0 0-4 0zm-.61-10.4c0 .24.06.48.09.72a2 2 0 1 0 4-.46q0-.38-.09-.76a2 2 0 1 0-4 .5zM496 450.76l.19.7a2 2 0 0 0 3.86-1.05l-.21-.74a2 2 0 1 0-3.85 1.1zm-3.69-9.7l.31.65a2 2 0 1 0 3.62-1.7l-.33-.7a2 2 0 0 0-3.6 1.74zm-5.31-8.89l.42.59a2 2 0 1 0 3.26-2.32l-.45-.63a2 2 0 1 0-3.23 2.36zm-6.83-7.83l.52.51a2 2 0 0 0 2.81-2.84l-.55-.54a2 2 0 1 0-2.78 2.87zm-8-6.68l.59.43a2 2 0 1 0 2.36-3.23l-.62-.45a2 2 0 1 0-2.33 3.25zm-8.91-5.58l.64.36a2 2 0 1 0 1.95-3.49l-.67-.37a2 2 0 1 0-1.92 3.51zm-9.5-4.61l.68.29a2 2 0 1 0 1.6-3.67l-.7-.3a2 2 0 1 0-1.58 3.68zm-9.91-3.8l.7.24a2 2 0 0 0 1.32-3.78l-.72-.25a2 2 0 0 0-1.3 3.78zm-10.16-3.15l.71.2a2 2 0 0 0 1.09-3.85l-.73-.21a2 2 0 1 0-1.08 3.85zm-10.3-2.58l.72.15a2 2 0 0 0 .85-3.91l-.75-.16a2 2 0 0 0-.82 3.92zm-10.45-1.75l.73.1a2 2 0 0 0 .53-4l-.75-.1a2 2 0 1 0-.52 4zm-10.59-1.05l.74.05a2 2 0 1 0 .3-4l-.76-.06a2 2 0 1 0-.29 4zm-10.65-.51h.74a2 2 0 0 0 .12-4h-.76a2 2 0 0 0-.11 4zm-10.7-.07h.74a2 2 0 1 0 0-4h-.75a2 2 0 0 0 0 4zm-10.68.28h.75a2 2 0 0 0-.16-4h-.75a2 2 0 0 0 .16 4zm-10.69.59l.75-.05a2 2 0 1 0-.27-4l-.75.05a2 2 0 0 0 .27 4zm-10.67.86l.74-.07a2 2 0 1 0-.36-4l-.75.07a2 2 0 0 0 .37 4zm-10.65 1.1l.74-.08a2 2 0 1 0-.45-4l-.75.09a2 2 0 0 0 .46 4zm-10.68 1.3l.75-.09a2 2 0 1 0-.46-4l-.74.08a2 2 0 0 0 .45 4zm-10.77 1l.75-.06a2 2 0 0 0-.33-4l-.74.06a2 2 0 1 0 .32 4zm-10.8.69h.75a2 2 0 1 0-.2-4h-.75a2 2 0 0 0 .19 4zm-10.82.34h.76a2 2 0 1 0-.07-4h-.75a2 2 0 0 0 .06 4zm-10.83 0h.76a2 2 0 0 0 .08-4h-.75a2 2 0 0 0-.09 4zm-10.83-.46h.75a2 2 0 1 0 .24-4h-.74a2 2 0 0 0-.25 4zm-10.81-.94l.75.08a2 2 0 1 0 .43-4l-.74-.08a2 2 0 0 0-.45 4zM252 397.77l.75.13a2 2 0 1 0 .67-3.94l-.73-.13a2 2 0 1 0-.69 3.94zm-10.67-2.29l.74.19a2 2 0 0 0 1-3.88l-.71-.18a2 2 0 0 0-1 3.87zm-10.46-3.29l.72.27a2 2 0 0 0 1.41-3.76l-.69-.26a2 2 0 0 0-1.42 3.74zm-10-4.67l.68.38a2 2 0 1 0 1.94-3.5l-.63-.36a2 2 0 1 0-2 3.47zm-9-6.64l.57.53a2 2 0 0 0 2.69-3l-.53-.49a2 2 0 0 0-2.73 2.92zm-7.49-8.09l.49.59a2 2 0 0 0 3.08-2.55l-.47-.57a2 2 0 1 0-3.1 2.52zm-6.43-8.89l.42.64a2 2 0 0 0 3.35-2.19l-.4-.62a2 2 0 1 0-3.36 2.16zm-5.42-9.54l.34.68a2 2 0 0 0 3.57-1.81l-.33-.66a2 2 0 1 0-3.58 1.78zm-4.31-10.11l.26.72a2 2 0 0 0 3.76-1.38l-.25-.69a2 2 0 0 0-3.77 1.35zm-3-10.58l.17.75a2 2 0 1 0 3.9-.88l-.16-.71a2 2 0 0 0-3.91.85zm-1.57-10.91q0 .38.06.77a2 2 0 1 0 4-.32q0-.36-.05-.73a2 2 0 0 0-4 .28zm.06-11q0 .39-.06.77a2 2 0 1 0 4 .29q0-.36.06-.73a2 2 0 0 0-4-.33zm1.74-10.88l-.17.74a2 2 0 1 0 3.91.87l.16-.72a2 2 0 0 0-3.9-.88zm2.74-10.53l-.22.73a2 2 0 0 0 3.84 1.12l.21-.71a2 2 0 1 0-3.83-1.14zm3.49-10.35l-.28.71a2 2 0 0 0 3.72 1.46l.27-.68a2 2 0 0 0-3.71-1.49zm4.67-9.93l-.37.68a2 2 0 1 0 3.52 1.89l.35-.64a2 2 0 0 0-3.51-1.93zm6-9.26l-.46.62a2 2 0 1 0 3.22 2.38l.44-.58a2 2 0 1 0-3.19-2.41zm7.25-8.29l-.6.48a2 2 0 0 0 2.85 2.81l.51-.52a2 2 0 0 0-2.82-2.83zm8.17-7.28l-.59.48a2 2 0 0 0 2.53 3.1l.57-.47a2 2 0 0 0-2.52-3.11zm8.64-6.57l-.61.44a2 2 0 0 0 2.36 3.23l.6-.44a2 2 0 0 0-2.35-3.24zm8.8-6.26l-.63.43a2 2 0 1 0 2.29 3.28l.6-.42a2 2 0 1 0-2.26-3.3zm9.35-5.7l-.67.36a2 2 0 1 0 1.93 3.5l.64-.35a2 2 0 1 0-1.91-3.52zm9.84-4.74l-.7.3a2 2 0 0 0 1.59 3.67l.68-.29a2 2 0 0 0-1.57-3.68zm10.2-3.87l-.72.24a2 2 0 0 0 1.29 3.79l.7-.24a2 2 0 1 0-1.27-3.79zM275 215l-.73.19a2 2 0 0 0 1 3.87l.72-.19a2 2 0 0 0-1-3.87zm10.61-2.4l-.74.15a2 2 0 0 0 .78 3.92l.73-.14a2 2 0 0 0-.77-3.93zm10.71-1.81l-.75.11a2 2 0 0 0 .58 4l.74-.11a2 2 0 0 0-.57-4zm10.76-1.31l-.75.08a2 2 0 0 0 .42 4l.74-.08a2 2 0 0 0-.41-4zm10.76-1l-.75.06a2 2 0 0 0 .32 4l.75-.06a2 2 0 0 0-.32-4zm10.92-.41H328a2 2 0 1 0 0 4h.74a2 2 0 1 0 0-4zm10.92.63l-.76-.08a2 2 0 0 0-.39 4l.74.07a2 2 0 0 0 .41-4zm10.81 1.62l-.75-.14a2 2 0 1 0-.74 3.93l.73.14a2 2 0 1 0 .77-3.93zm10.62 2.56l-.74-.21a2 2 0 1 0-1.08 3.85l.71.2a2 2 0 1 0 1.1-3.84zm10.36 3.46l-.71-.27a2 2 0 1 0-1.4 3.75l.69.26a2 2 0 0 0 1.43-3.74zm10 4.33l-.69-.33a2 2 0 0 0-1.72 3.61l.67.32a2 2 0 0 0 1.74-3.6zm9.62 5.18l-.66-.39a2 2 0 0 0-2 3.45l.64.38a2 2 0 1 0 2-3.43zm9.13 6l-.62-.45a2 2 0 1 0-2.33 3.25l.6.43a2 2 0 0 0 2.35-3.24zm8.55 6.82l-.58-.5a2 2 0 1 0-2.62 3l.56.48a2 2 0 0 0 2.64-3zm8 7.35l-.54-.52a2 2 0 0 0-2.76 2.89l.54.52a2 2 0 1 0 2.77-2.89zm7.68 7.59l-.53-.54a2 2 0 0 0-2.84 2.81l.53.53a2 2 0 0 0 2.85-2.81zm7.52 7.68l-.52-.54a2 2 0 0 0-2.86 2.8l.53.54a2 2 0 0 0 2.86-2.8zm7.56 7.56l-.53-.52a2 2 0 1 0-2.79 2.87l.54.53a2 2 0 1 0 2.78-2.87zm7.82 7.21l-.56-.49a2 2 0 1 0-2.64 3l.57.5a2 2 0 1 0 2.62-3zm8.24 6.68l-.59-.45a2 2 0 1 0-2.42 3.18l.61.46a2 2 0 0 0 2.41-3.2zm8.69 6.06l-.62-.4a2 2 0 1 0-2.18 3.35l.64.41a2 2 0 0 0 2.17-3.36zm9.11 5.45l-.65-.36a2 2 0 0 0-2 3.49l.66.37a2 2 0 0 0 1.94-3.5zm9.46 4.61l-.68-.29a2 2 0 0 0-1.58 3.68l.71.3a2 2 0 0 0 1.55-3.69zm9.91 3.52l-.7-.21a2 2 0 0 0-1.15 3.83l.73.22a2 2 0 1 0 1.12-3.84zm10.24 2.4l-.72-.13a2 2 0 0 0-.71 3.94l.75.13a2 2 0 1 0 .68-3.94zm10.5 1.22h-.73a2 2 0 0 0-.25 4h.76a2 2 0 0 0 .22-4zm10.5 0h-.73a2 2 0 0 0 .2 4h.76a2 2 0 0 0-.23-4zm10.44-1.22l-.72.12a2 2 0 0 0 .66 3.94l.76-.13a2 2 0 0 0-.69-3.94zm10.21-2.44l-.7.21a2 2 0 1 0 1.14 3.84l.74-.22a2 2 0 0 0-1.17-3.82zm9.78-3.73l-.66.3a2 2 0 0 0 1.65 3.65l.7-.32a2 2 0 1 0-1.68-3.63zm9.07-5.14l-.6.4a2 2 0 1 0 2.23 3.32l.6-.4a2 2 0 1 0-2.23-3.32zm8.75-6.08l-.59.44a2 2 0 0 0 2.38 3.22l.61-.46a2 2 0 0 0-2.4-3.2zm8-6.8l-.52.51a2 2 0 0 0 2.78 2.88l.55-.54a2 2 0 1 0-2.81-2.84zm6.73-7.91l-.42.59a2 2 0 0 0 3.24 2.35l.45-.63a2 2 0 0 0-3.27-2.31zm5.18-9l-.31.66a2 2 0 1 0 3.61 1.72l.33-.7a2 2 0 0 0-3.63-1.68zm3.58-9.78l-.2.7a2 2 0 0 0 3.84 1.11l.21-.74a2 2 0 1 0-3.85-1.08zm2.12-10.26l-.1.73a2 2 0 1 0 4 .59c0-.25.07-.5.11-.76a2 2 0 1 0-4-.56zm.91-10.51v.74a2 2 0 1 0 4 .19v-.76a2 2 0 0 0-4-.17zm0-10.6v.74a2 2 0 1 0 4-.12v-.76a2 2 0 0 0-4 .14zm-.77-10.58l.08.74a2 2 0 0 0 4-.41l-.08-.76a2 2 0 0 0-4 .43zm-1.53-10.5l.13.73a2 2 0 0 0 3.94-.7l-.13-.75a2 2 0 0 0-3.94.72zm-2.29-10.35l.19.72a2 2 0 1 0 3.87-1l-.19-.74a2 2 0 1 0-3.87 1z"/><path class="cls-24 cls-22" d="M611 191.59h.13-.13.13-.13l.05.17a3 3 0 0 0 5.76-1.7l-.09-.3a3 3 0 0 0-5.72 1.82zM486.57 498.17l-.26.41a3 3 0 1 0 5.09 3.18l.27-.44a3 3 0 1 0-5.1-3.16zm4.81-8.89l-.2.43a3 3 0 0 0 5.43 2.55l.22-.47a3 3 0 1 0-5.45-2.52zm3.47-9.35l-.13.45a3 3 0 1 0 5.77 1.65l.14-.51a3 3 0 1 0-5.78-1.59zm1.64-9.75v.48a3 3 0 1 0 6 .51v-.51a3 3 0 1 0-6-.48zm.16-10.07v.48a3 3 0 0 0 6-.27v-.52a3 3 0 0 0-6 .31zm-1.31-9.87l.1.46a3 3 0 1 0 5.87-1.24l-.11-.51a3 3 0 0 0-5.86 1.29zm-3-9.39l.18.43A3 3 0 0 0 498 439l-.21-.48a3 3 0 1 0-5.5 2.39zm-4.8-8.59l.27.39a3 3 0 1 0 5-3.39l-.3-.43a3 3 0 0 0-4.92 3.44zm-6.41-7.54l.34.34a3 3 0 0 0 4.24-4.24l-.37-.37a3 3 0 1 0-4.21 4.28zm-7.66-6.44l.39.28a3 3 0 0 0 3.55-4.84l-.42-.3a3 3 0 0 0-3.52 4.86zm-8.54-5.42l.42.24a3 3 0 1 0 3-5.22l-.45-.25a3 3 0 1 0-2.93 5.23zm-9.13-4.59l.44.2a3 3 0 0 0 2.49-5.46l-.46-.21a3 3 0 0 0-2.48 5.47zm-9.51-3.93l.46.18a3 3 0 0 0 2.15-5.6l-.47-.18a3 3 0 0 0-2.13 5.61zm-9.75-3.45l.47.16a3 3 0 1 0 1.9-5.69l-.48-.16a3 3 0 1 0-1.89 5.69zm-9.87-2.89l.47.12a3 3 0 0 0 1.49-5.81l-.49-.13a3 3 0 1 0-1.47 5.82zm-10.07-2.24l.48.1a3 3 0 0 0 1.17-5.89l-.5-.1a3 3 0 0 0-1.15 5.89zM406.4 394l.49.08a3 3 0 1 0 .92-5.93l-.5-.08a3 3 0 0 0-.91 5.93zm-10.29-1.4l.49.06a3 3 0 0 0 .72-6l-.5-.06a3 3 0 0 0-.71 6zm-10.33-1.08h.49a3 3 0 0 0 .55-6h-.5a3 3 0 1 0-.54 6zm-10.37-.81h.49a3 3 0 1 0 .4-6h-.5a3 3 0 1 0-.39 6zm-10.41-.55h.5a3 3 0 0 0 .25-6h-.5a3 3 0 0 0-.25 6zm-10.4-.3h.5a3 3 0 0 0 .1-6h-.5a3 3 0 0 0-.09 6zm-10.38 0h.49a3 3 0 0 0-.08-6h-.5a3 3 0 1 0 .1 6zm-10.37.39h.5a3 3 0 1 0-.29-6h-.49a3 3 0 0 0 .29 6zm-10.55.35h.5a3 3 0 0 0-.12-6h-.5a3 3 0 1 0 .11 6zm-10.56 0h.5a3 3 0 1 0 .06-6h-.49a3 3 0 1 0-.07 6zm-10.57-.29h.5a3 3 0 0 0 .26-6h-.49a3 3 0 1 0-.27 6zm-10.57-.67h.5a3 3 0 0 0 .48-6h-.49a3 3 0 0 0-.49 6zm-10.6-1.06l.5.06a3 3 0 1 0 .75-6l-.49-.06a3 3 0 1 0-.76 6zM270.54 387l.5.09a3 3 0 0 0 1.06-5.91l-.48-.09a3 3 0 0 0-1.08 5.9zm-10.43-2.25l.49.12A3 3 0 1 0 262 379l-.47-.12a3 3 0 1 0-1.47 5.82zm-10.29-3l.48.17a3 3 0 0 0 1.93-5.68l-.46-.16a3 3 0 1 0-2 5.67zm-10-4.08l.47.22a3 3 0 1 0 2.56-5.43l-.43-.21a3 3 0 1 0-2.59 5.41zm-9.48-5.44l.43.3a3 3 0 0 0 3.36-5l-.39-.27a3 3 0 0 0-3.4 4.94zm-8.43-7.23l.36.37a3 3 0 1 0 4.27-4.22l-.34-.34a3 3 0 1 0-4.29 4.19zm-7.09-8.16l.32.4a3 3 0 1 0 4.71-3.71l-.3-.38a3 3 0 1 0-4.73 3.69zm-6.21-8.78l.28.43a3 3 0 1 0 5-3.26l-.26-.41a3 3 0 1 0-5.05 3.23zm-5.37-9.33l.23.46a3 3 0 1 0 5.33-2.76l-.22-.43a3 3 0 1 0-5.34 2.73zm-4.41-9.85l.19.48a3 3 0 0 0 5.59-2.18l-.17-.45a3 3 0 1 0-5.6 2.15zm-3.27-10.33l.13.5a3 3 0 0 0 5.81-1.48l-.12-.47a3 3 0 0 0-5.82 1.45zm-1.89-10.72l.05.52a3 3 0 0 0 6-.66l-.05-.47a3 3 0 1 0-6 .61zm-.26-10.94v.52a3 3 0 1 0 6 .29v-.47a3 3 0 0 0-6-.34zM195 286l-.12.51a3 3 0 1 0 5.86 1.31l.11-.46A3 3 0 1 0 195 286zm3-10.3l-.16.48a3 3 0 1 0 5.69 1.9l.16-.46a3 3 0 0 0-5.69-1.92zm3.78-10l-.2.47a3 3 0 0 0 5.53 2.32l.19-.45a3 3 0 1 0-5.52-2.34zm4.68-9.69l-.25.45a3 3 0 1 0 5.27 2.86l.23-.42a3 3 0 0 0-5.26-2.89zm5.81-9.15l-.3.42a3 3 0 0 0 4.87 3.51l.28-.39a3 3 0 1 0-4.84-3.54zm7-8.3l-.36.37a3 3 0 0 0 4.32 4.17l.33-.34a3 3 0 0 0-4.29-4.19zm8.07-7.23l-.4.32a3 3 0 1 0 3.75 4.68l.38-.3a3 3 0 0 0-3.73-4.7zm8.7-6.26l-.42.28a3 3 0 0 0 3.33 5l.41-.27a3 3 0 0 0-3.32-5zm8.94-5.65l-.43.26a3 3 0 1 0 3.13 5.12l.42-.26a3 3 0 0 0-3.13-5.12zm9.13-5.41l-.45.25a3 3 0 0 0 2.9 5.25l.42-.23a3 3 0 0 0-2.88-5.27zm9.69-4.68l-.47.2a3 3 0 0 0 2.37 5.51l.44-.19a3 3 0 0 0-2.34-5.52zm10.06-3.75l-.49.16a3 3 0 1 0 1.88 5.7l.46-.15a3 3 0 0 0-1.85-5.71zm10.3-2.9l-.49.12a3 3 0 1 0 1.43 5.83l.47-.12a3 3 0 0 0-1.41-5.83zm10.45-2.16l-.5.09a3 3 0 0 0 1 5.91l.48-.08a3 3 0 0 0-1-5.91zm10.54-1.5l-.5.06a3 3 0 0 0 .7 6l.49-.06a3 3 0 1 0-.68-6zm10.58-.95h-.5a3 3 0 0 0 .41 6h.49a3 3 0 0 0-.39-6zm10.58-.48h-.5a3 3 0 1 0 .17 6h.49a3 3 0 1 0-.17-6zm10.54-.15h-.5a3 3 0 1 0 0 6h.5a3 3 0 1 0 0-6zm10.78.49l-.51-.05a3 3 0 0 0-.57 6h.48a3 3 0 0 0 .6-6zm10.65 1.64l-.5-.1a3 3 0 0 0-1.18 5.88l.48.1a3 3 0 1 0 1.21-5.88zm10.41 2.65l-.49-.15a3 3 0 0 0-1.72 5.75l.47.14a3 3 0 1 0 1.74-5.74zm10.12 3.55l-.47-.19a3 3 0 0 0-2.2 5.58l.45.18a3 3 0 0 0 2.22-5.57zm9.78 4.35l-.46-.23a3 3 0 1 0-2.63 5.39l.44.22a3 3 0 1 0 2.65-5.38zm9.42 5.08l-.44-.26a3 3 0 1 0-3 5.18l.42.25a3 3 0 0 0 3-5.17zm9 5.75l-.42-.29a3 3 0 0 0-3.39 5l.4.28A3 3 0 0 0 407 221zm8.58 6.37l-.4-.32a3 3 0 0 0-3.73 4.7l.38.3a3 3 0 0 0 3.74-4.69zm8.11 7l-.38-.34a3 3 0 1 0-4 4.43l.36.33a3 3 0 0 0 4.06-4.42zm7.59 7.46l-.35-.36a3 3 0 1 0-4.31 4.18l.34.35a3 3 0 1 0 4.31-4.17zm7.21 7.72l-.34-.37a3 3 0 0 0-4.44 4l.33.37a3 3 0 1 0 4.45-4zm7 7.87l-.33-.38a3 3 0 0 0-4.52 3.95l.33.38a3 3 0 0 0 4.52-3.95zm6.89 7.83l-.33-.37a3 3 0 1 0-4.48 4l.33.37a3 3 0 0 0 4.47-4zm7 7.56l-.34-.35a3 3 0 1 0-4.3 4.18l.35.36a3 3 0 1 0 4.29-4.19zm7.4 7.11l-.36-.33a3 3 0 1 0-4 4.45l.38.34a3 3 0 0 0 4-4.47zm7.87 6.58l-.39-.3a3 3 0 0 0-3.7 4.72l.4.31a3 3 0 1 0 3.69-4.73zm8.3 6.06l-.4-.28a3 3 0 0 0-3.41 4.94l.42.29a3 3 0 1 0 3.39-4.95zm8.62 5.47l-.42-.24a3 3 0 1 0-3 5.2l.45.26a3 3 0 1 0 3-5.22zm9.08 4.52l-.44-.19a3 3 0 1 0-2.41 5.5l.47.21a3 3 0 1 0 2.38-5.51zm9.51 3.49l-.46-.14a3 3 0 1 0-1.78 5.73l.49.15a3 3 0 1 0 1.75-5.74zm9.84 2.42l-.47-.09a3 3 0 0 0-1.14 5.89l.5.1a3 3 0 1 0 1.11-5.9zm10 1.31h-.48a3 3 0 0 0-.48 6h.51a3 3 0 0 0 .45-6zm10.13.19h-.48a3 3 0 0 0 .19 6h.51a3 3 0 1 0-.22-6zm10.08-.95l-.48.07a3 3 0 0 0 .87 5.94l.51-.08a3 3 0 0 0-.91-5.93zm9.87-2.13l-.46.13a3 3 0 0 0 1.59 5.78l.5-.14a3 3 0 1 0-1.63-5.77zm9.45-3.39l-.44.19a3 3 0 1 0 2.39 5.5l.48-.21a3 3 0 1 0-2.43-5.48zm9-4.77l-.43.25a3 3 0 0 0 3 5.21l.44-.25a3 3 0 1 0-3-5.2zm8.68-5.4l-.4.27a3 3 0 1 0 3.39 5l.42-.29a3 3 0 1 0-3.41-4.93zm7.82-6.26l-.35.32a3 3 0 1 0 4.07 4.41l.38-.36a3 3 0 0 0-4.1-4.38zm6.63-7.39l-.29.38a3 3 0 1 0 4.77 3.64l.32-.42a3 3 0 1 0-4.8-3.59zm5.23-8.45l-.22.42a3 3 0 0 0 5.33 2.75l.24-.46a3 3 0 1 0-5.35-2.71zm3.81-9.25l-.15.45a3 3 0 1 0 5.69 1.91l.16-.49a3 3 0 0 0-5.7-1.87zm2.53-9.76l-.09.47a3 3 0 0 0 5.88 1.19l.1-.5a3 3 0 1 0-5.89-1.16zm1.6-10.16l-.05.48a3 3 0 0 0 6 .65l.05-.51a3 3 0 0 0-6-.62zm.69-10.22v.49a3 3 0 1 0 6 .2v-.51a3 3 0 1 0-6-.18zm-.06-10.26v.49a3 3 0 1 0 6-.22v-.51a3 3 0 0 0-6 .24zm-.78-10.23l.05.49a3 3 0 1 0 6-.64q0-.25-.06-.51a3 3 0 0 0-6 .66zm-1.5-10.14l.09.48a3 3 0 0 0 5.9-1.08l-.09-.5a3 3 0 1 0-5.9 1.1z"/></g><g class="cls-24"><path d="M586.49 181.4v.11l.13.34a1 1 0 0 0 1.87-.72l-.19-.48a1 1 0 0 0-1.85.75zm-93.65 321.2l-.66.74a1 1 0 1 0 1.49 1.33l.67-.75a1 1 0 1 0-1.5-1.32zm6.71-8.57l-.56.81a1 1 0 1 0 1.64 1.15l.58-.83a1 1 0 1 0-1.65-1.13zm5.28-9.42l-.4.89a1 1 0 1 0 1.82.83l.42-.93a1 1 0 1 0-1.84-.79zm2.83-10.27q-.05.48-.12 1a1 1 0 0 0 2 .28c0-.34.09-.68.13-1a1 1 0 1 0-2-.21zm-.21-10.78c0 .33.06.66.08 1a1 1 0 1 0 2-.16c0-.34-.06-.67-.09-1a1 1 0 0 0-2 .18zm-1.69-10.72q.11.48.21 1a1 1 0 0 0 2-.42l-.22-1a1 1 0 0 0-1.95.45zm-3.21-10.35l.36.92a1 1 0 0 0 1.87-.71l-.37-.95a1 1 0 1 0-1.86.74zm-4.82-9.69l.5.85a1 1 0 1 0 1.73-1l-.52-.87a1 1 0 1 0-1.71 1zm-6.35-8.76l.64.75a1 1 0 1 0 1.54-1.28l-.66-.77a1 1 0 1 0-1.52 1.3zm-7.68-7.65l.74.65a1 1 0 0 0 1.32-1.5l-.76-.66a1 1 0 0 0-1.3 1.52zm-8.7-6.47l.83.54a1 1 0 0 0 1.11-1.67l-.85-.56a1 1 0 0 0-1.09 1.68zm-9.46-5.38l.88.45a1 1 0 1 0 .91-1.78l-.9-.45a1 1 0 1 0-.89 1.79zm-10-4.38l.92.36a1 1 0 0 0 .73-1.86l-.94-.37a1 1 0 0 0-.72 1.87zm-10.34-3.51l1 .29a1 1 0 0 0 .58-1.91l-1-.29a1 1 0 1 0-.57 1.92zm-10.59-2.76l.43.1.53.12a1 1 0 1 0 .45-1.95l-.54-.12-.44-.1a1 1 0 0 0-.44 2zm-10.75-1.72l1 .11a1 1 0 0 0 .23-2l-1-.11a1 1 0 0 0-.21 2zm-10.9-.65h1a1 1 0 1 0 .05-2h-1a1 1 0 0 0 0 2zm-10.94.17h1a1 1 0 1 0-.08-2h-1a1 1 0 1 0 .09 2zm-10.93.8l1-.09a1 1 0 1 0-.19-2l-1 .1a1 1 0 1 0 .19 2zm-10.9 1.28l1-.13a1 1 0 1 0-.26-2l-1 .13a1 1 0 1 0 .27 2zm-10.86 1.64l1-.16a1 1 0 0 0-.32-2l-1 .16a1 1 0 0 0 .33 2zm-10.83 1.88l1-.18a1 1 0 0 0-.35-2l-1 .18a1 1 0 0 0 .35 2zm-10.87 1.89l1-.16a1 1 0 1 0-.32-2l-1 .16a1 1 0 0 0 .31 2zm-11 1.43l1-.11a1 1 0 1 0-.22-2l-1 .11a1 1 0 1 0 .21 2zm-11 1l1-.07a1 1 0 1 0-.14-2l-1 .07a1 1 0 0 0 .13 2zm-11 .54h1a1 1 0 1 0-.07-2h-1a1 1 0 1 0 .06 2zm-11 .12h1a1 1 0 0 0 0-2h-1a1 1 0 1 0 0 2zm-11-.33l1 .05a1 1 0 0 0 .1-2l-1-.05a1 1 0 1 0-.1 2zm-11-.85l1 .1a1 1 0 0 0 .2-2l-1-.1a1 1 0 1 0-.21 2zm-11-1.48l1 .17a1 1 0 0 0 .32-2l-1-.16a1 1 0 1 0-.33 2zm-10.85-2.3l1 .25a1 1 0 0 0 .48-1.94l-1-.24a1 1 0 0 0-.5 1.94zm-10.59-3.41l.95.37a1 1 0 0 0 .71-1.87l-.92-.36a1 1 0 0 0-.74 1.86zm-10-5l.87.54a1 1 0 1 0 1-1.7l-.83-.52a1 1 0 1 0-1.08 1.68zm-8.44-7.44l.68.75a1 1 0 0 0 1.47-1.36l-.66-.73a1 1 0 1 0-1.49 1.33zm-6.74-8.89l.56.85a1 1 0 1 0 1.66-1.11l-.54-.83a1 1 0 1 0-1.68 1.09zm-5.45-9.71l.44.91a1 1 0 0 0 1.79-.89l-.43-.89a1 1 0 1 0-1.8.87zm-4.18-10.31l.33 1a1 1 0 1 0 1.89-.65l-.32-.94a1 1 0 1 0-1.9.63zm-2.83-10.76l.2 1a1 1 0 1 0 2-.41q-.1-.48-.19-1a1 1 0 0 0-2 .38zm-1.4-11q0 .51.07 1a1 1 0 0 0 2-.14q0-.49-.06-1a1 1 0 1 0-2 .12zm.11-11.13q0 .51-.07 1a1 1 0 1 0 2 .13q0-.49.07-1a1 1 0 1 0-2-.16zm1.58-11l-.19 1a1 1 0 0 0 2 .38l.19-1a1 1 0 1 0-2-.39zm2.5-10.78l-.26 1a1 1 0 1 0 1.93.51l.26-1a1 1 0 0 0-1.93-.52zm3.4-10.56l-.35.95a1 1 0 1 0 1.88.69l.35-.93a1 1 0 1 0-1.87-.71zm4.6-10.12l-.48.89a1 1 0 0 0 1.77.93L224 278a1 1 0 1 0-1.76-.95zm6-9.38l-.61.81a1 1 0 0 0 1.61 1.18l.59-.79a1 1 0 1 0-1.6-1.21zm7.33-8.37l-.71.72a1 1 0 0 0 1.43 1.4l.7-.7a1 1 0 1 0-1.41-1.41zm8.21-7.45l-.77.65a1 1 0 1 0 1.29 1.52l.76-.64a1 1 0 0 0-1.29-1.53zm8.59-6.92l-.79.62a1 1 0 0 0 1.24 1.57l.79-.62a1 1 0 1 0-1.24-1.57zm8.93-6.57l-.84.56a1 1 0 0 0 1.11 1.66l.83-.55a1 1 0 0 0-1.1-1.67zm9.6-5.58l-.9.47a1 1 0 0 0 .9 1.6l.88-.46a1 1 0 1 0-.91-1.78zm10.1-4.59l-.93.38a1 1 0 1 0 .76 1.85l.92-.37a1 1 0 1 0-.74-1.86zm10.45-3.69l-1 .3a1 1 0 0 0 .6 1.91l.95-.3a1 1 0 0 0-.59-1.91zm10.69-2.9l-1 .23a1 1 0 1 0 .47 1.94l1-.23a1 1 0 0 0-.46-1.95zm10.76-2.37l-1 .18a1 1 0 1 0 .36 2l1-.17a1 1 0 1 0-.35-2zm11-1.67l-1 .13a1 1 0 1 0 .27 2l1-.13a1 1 0 0 0-.26-2zm11-1.28l-1 .1a1 1 0 1 0 .21 2l1-.1a1 1 0 1 0-.19-2zm11.08-.56h-1a1 1 0 1 0 0 2h1a1 1 0 1 0 0-2zm11.09.46l-1-.08a1 1 0 0 0-.16 2l1 .08a1 1 0 1 0 .17-2zm11 1.49l-1-.18a1 1 0 0 0-.35 2l1 .18a1 1 0 0 0 .36-2zm10.81 2.55l-1-.28a1 1 0 1 0-.54 1.93l1 .27a1 1 0 0 0 .56-1.92zm10.43 3.63l-.94-.38a1 1 0 0 0-.74 1.86l.92.37a1 1 0 1 0 .76-1.85zm10 4.8l-.89-.49a1 1 0 1 0-.95 1.76l.87.47a1 1 0 0 0 1-1.75zm9.39 6l-.83-.59a1 1 0 0 0-1.15 1.63l.81.58a1 1 0 1 0 1.17-1.62zm8.58 7.07l-.63-.58-.11-.1a1 1 0 1 0-1.35 1.48l.1.09.63.58a1 1 0 1 0 1.36-1.47zm7.93 7.69l-.71-.71a1 1 0 0 0-1.42 1.41l.7.71a1 1 0 1 0 1.42-1.41zm7.69 7.94l-.69-.73a1 1 0 0 0-1.45 1.38l.69.73a1 1 0 1 0 1.45-1.38zm7.55 8l-.69-.72a1 1 0 0 0-1.45 1.38l.69.72a1 1 0 1 0 1.45-1.38zm7.71 7.8l-.71-.7a1 1 0 0 0-1.4 1.43l.72.7a1 1 0 1 0 1.39-1.44zm8.09 7.36l-.76-.65a1 1 0 0 0-1.3 1.52l.77.65a1 1 0 0 0 1.29-1.53zm8.6 6.72l-.8-.58a1 1 0 1 0-1.15 1.6l.82.59a1 1 0 1 0 1.16-1.63zm9.14 6l-.85-.51a1 1 0 0 0-1 1.71l.87.52a1 1 0 1 0 1-1.72zm9.62 5.1l-.9-.42a1 1 0 0 0-.85 1.81l.92.43a1 1 0 0 0 .83-1.82zm10.15 3.89l-.94-.3a1 1 0 1 0-.62 1.9l1 .31a1 1 0 1 0 .59-1.91zm10.57 2.55l-1-.17a1 1 0 0 0-.36 2l1 .18a1 1 0 0 0 .34-2zm10.8 1.15h-1a1 1 0 0 0-.1 2h1a1 1 0 0 0 .08-2zm10.86-.27l-1 .08a1 1 0 0 0 .16 2l1-.09a1 1 0 0 0-.18-2zm10.73-1.7l-1 .21a1 1 0 1 0 .42 2l1-.22a1 1 0 0 0-.45-2zm10.39-3.14l-.92.35a1 1 0 0 0 .69 1.88l1-.36a1 1 0 0 0-.71-1.87zm9.79-4.64l-.86.49a1 1 0 1 0 1 1.75l.88-.5a1 1 0 1 0-1-1.73zm9-6.19l-.8.6a1 1 0 1 0 1.2 1.6l.8-.6a1 1 0 0 0-1.2-1.6zm8.43-6.91l-.73.67a1 1 0 1 0 1.34 1.49l.75-.68a1 1 0 1 0-1.36-1.47zm7.33-8l-.61.77a1 1 0 1 0 1.56 1.25l.63-.8a1 1 0 0 0-1.59-1.22zm5.74-9.14l-.45.88a1 1 0 0 0 1.77.93l.46-.91a1 1 0 1 0-1.79-.9zm4-10.06l-.29.94a1 1 0 1 0 1.91.6q.15-.48.3-1a1 1 0 0 0-1.92-.57zm2.32-10.59c0 .33-.1.65-.15 1a1 1 0 0 0 2 .32q.08-.5.15-1a1 1 0 0 0-2-.29zm1-10.84v1a1 1 0 0 0 2 .09v-1a1 1 0 0 0-2-.07zm0-10.93v1a1 1 0 0 0 2-.07v-1a1 1 0 1 0-2 .08zm-.87-10.9q.06.49.11 1a1 1 0 1 0 2-.22l-.11-1a1 1 0 0 0-2 .23zm-1.67-10.81l.18 1a1 1 0 1 0 2-.36l-.19-1a1 1 0 0 0-2 .38zm-2.46-10.65l.26 1a1 1 0 1 0 1.93-.51l-.26-1a1 1 0 1 0-1.93.53z" class="cls-10"/><path class="cls-25 cls-26" d="M557.14 164l.14.28a2 2 0 1 0 3.58-1.79l-.18-.36a2 2 0 1 0-3.54 1.86zm-71.89 338.45l-.46.58a2 2 0 0 0 3.14 2.48l.47-.59a2 2 0 0 0-3.15-2.47zm6.26-8.53l-.42.61a2 2 0 1 0 3.29 2.27l.43-.63a2 2 0 0 0-3.31-2.25zm5.54-9l-.36.64a2 2 0 1 0 3.48 2l.37-.66a2 2 0 1 0-3.5-1.94zm4.5-9.43l-.27.67a2 2 0 1 0 3.7 1.51l.29-.71a2 2 0 0 0-3.72-1.47zm2.93-9.89l-.14.7a2 2 0 0 0 3.92.8l.15-.76a2 2 0 0 0-3.93-.74zm.56-10.1q0 .33.05.65a2 2 0 0 0 4-.28c0-.25 0-.49-.06-.74a2 2 0 1 0-4 .36zm-1.55-10.33l.15.71a2 2 0 0 0 3.92-.8l-.16-.75a2 2 0 0 0-3.91.84zm-2.91-10l.25.68a2 2 0 0 0 3.76-1.37l-.27-.72a2 2 0 1 0-3.74 1.41zm-4.45-9.33l.36.62a2 2 0 1 0 3.47-2l-.39-.67a2 2 0 1 0-3.44 2zm-6-8.35l.47.55a2 2 0 1 0 3-2.6l-.51-.58a2 2 0 1 0-3 2.64zm-7.48-7.11l.56.45a2 2 0 1 0 2.52-3.1l-.6-.48a2 2 0 0 0-2.49 3.13zm-8.65-5.69l.63.36a2 2 0 0 0 2-3.47l-.67-.38a2 2 0 0 0-2 3.49zm-9.43-4.48l.68.27a2 2 0 0 0 1.51-3.7l-.71-.29a2 2 0 1 0-1.48 3.71zm-10-3.36l.71.2a2 2 0 1 0 1.11-3.84l-.73-.21a2 2 0 0 0-1.09 3.85zm-10.27-2.44l.72.14a2 2 0 1 0 .79-3.92l-.74-.15a2 2 0 1 0-.77 3.93zm-10.45-1.7l.73.1a2 2 0 0 0 .54-4l-.75-.1a2 2 0 1 0-.52 4zm-10.47-.89h.73a2 2 0 1 0 .17-4h-.76a2 2 0 0 0-.14 4zm-10.56.05h.74a2 2 0 1 0-.15-4h-.76a2 2 0 0 0 .17 4zm-10.57.75l.74-.07a2 2 0 1 0-.38-4l-.75.07a2 2 0 1 0 .39 4zm-10.55 1.29l.73-.1a2 2 0 0 0-.56-4l-.74.11a2 2 0 1 0 .57 4zm-10.5 1.71l.73-.13a2 2 0 0 0-.7-3.94l-.74.13a2 2 0 0 0 .71 3.94zm-10.45 2.06l.73-.15a2 2 0 1 0-.82-3.91l-.73.16a2 2 0 0 0 .83 3.91zM360.39 400l.72-.17a2 2 0 1 0-.92-3.89l-.73.17a2 2 0 1 0 .93 3.89zM350 402.64l.72-.19a2 2 0 0 0-1-3.87l-.73.19a2 2 0 1 0 1 3.87zm-10.37 2.76l.73-.19a2 2 0 1 0-1-3.87l-.72.18a2 2 0 1 0 1 3.88zm-10.52 2.43l.74-.16a2 2 0 1 0-.83-3.91l-.73.15a2 2 0 1 0 .82 3.91zm-10.6 2l.74-.13a2 2 0 0 0-.69-3.94l-.73.13a2 2 0 1 0 .67 3.94zm-10.67 1.61l.75-.1a2 2 0 0 0-.53-4l-.73.1a2 2 0 1 0 .52 4zm-10.73 1.18l.75-.07a2 2 0 1 0-.36-4l-.74.07a2 2 0 1 0 .35 4zm-10.79.69h.75a2 2 0 0 0-.17-4h-.74a2 2 0 0 0 .15 4zm-10.83.1h.75a2 2 0 0 0 .07-4h-.74a2 2 0 0 0-.09 4zm-10.84-.65l.76.07a2 2 0 0 0 .37-4l-.73-.07a2 2 0 1 0-.4 4zm-10.79-1.63l.75.15a2 2 0 0 0 .78-3.92l-.72-.15a2 2 0 0 0-.81 3.92zm-10.58-3l.73.27a2 2 0 0 0 1.35-3.77l-.68-.25a2 2 0 0 0-1.4 3.75zm-10-5l.65.43a2 2 0 0 0 2.18-3.35l-.6-.39a2 2 0 1 0-2.24 3.31zm-8.56-7l.56.52a2 2 0 0 0 2.71-2.94l-.53-.5a2 2 0 1 0-2.74 2.91zm-7.5-8l.49.58a2 2 0 0 0 3-2.59l-.47-.56a2 2 0 1 0-3.07 2.57zm-6.52-8.79l.42.64a2 2 0 1 0 3.33-2.22l-.4-.61a2 2 0 0 0-3.35 2.19zm-5.43-9.51l.34.69a2 2 0 1 0 3.58-1.79l-.32-.65a2 2 0 0 0-3.59 1.76zm-4.16-10.15l.25.73a2 2 0 0 0 3.78-1.3l-.23-.69a2 2 0 1 0-3.8 1.26zm-2.7-10.65l.14.76a2 2 0 1 0 3.93-.74l-.13-.71a2 2 0 1 0-3.94.69zm-1.08-10.95v.77a2 2 0 1 0 4-.13v-.73a2 2 0 1 0-4 .08zm.56-10.93l-.08.75a2 2 0 1 0 4 .39l.07-.74a2 2 0 0 0-4-.41zm1.47-10.74l-.13.75a2 2 0 1 0 3.94.67l.12-.73a2 2 0 1 0-3.94-.69zm2.37-10.63l-.2.74a2 2 0 1 0 3.86 1l.19-.71a2 2 0 0 0-3.86-1.07zm3.56-10.35l-.29.71a2 2 0 1 0 3.7 1.51l.28-.67a2 2 0 0 0-3.69-1.55zm5-9.79l-.39.66a2 2 0 0 0 3.44 2l.37-.62a2 2 0 0 0-3.42-2.07zm6.32-9l-.48.6a2 2 0 1 0 3.13 2.49l.46-.57a2 2 0 1 0-3.11-2.51zm7.24-8.12l-.52.54a2 2 0 1 0 2.89 2.77l.51-.53a2 2 0 0 0-2.88-2.78zm7.65-7.59l-.54.52a2 2 0 1 0 2.78 2.88l.54-.52a2 2 0 1 0-2.78-2.88zm8-7.35l-.58.49a2 2 0 0 0 2.59 3l.56-.47a2 2 0 1 0-2.57-3.07zm8.73-6.55l-.63.43a2 2 0 1 0 2.26 3.3l.61-.41a2 2 0 0 0-2.23-3.32zm9.31-5.65l-.67.37a2 2 0 1 0 1.94 3.5l.64-.35a2 2 0 1 0-1.92-3.51zm9.75-4.81l-.69.31a2 2 0 0 0 1.65 3.65l.67-.3a2 2 0 0 0-1.63-3.65zm10.06-4.06l-.71.26a2 2 0 0 0 1.39 3.75l.69-.25a2 2 0 0 0-1.37-3.76zm10.28-3.41l-.72.22a2 2 0 1 0 1.17 3.83l.71-.21a2 2 0 1 0-1.15-3.83zm10.37-2.73l-.73.18a2 2 0 1 0 1 3.88l.72-.18a2 2 0 0 0-1-3.88zm10.49-2.44l-.73.16a2 2 0 0 0 .86 3.91l.73-.16a2 2 0 0 0-.86-3.91zm10.77-1.93l-.76.1a2 2 0 1 0 .51 4l.73-.09a2 2 0 0 0-.48-4zm10.88-.76h-.76a2 2 0 0 0 .1 4h.73a2 2 0 0 0-.08-4zm10.9.33l-.76-.06a2 2 0 0 0-.29 4l.73.06a2 2 0 1 0 .31-4zm10.82 1.43l-.75-.13a2 2 0 0 0-.66 3.94l.73.12a2 2 0 0 0 .69-3.94zm10.63 2.38l-.74-.2a2 2 0 0 0-1 3.87l.71.19a2 2 0 1 0 1.06-3.86zm10.36 3.37l-.71-.27a2 2 0 1 0-1.39 3.75l.69.26a2 2 0 0 0 1.42-3.74zm10 4.34l-.68-.33a2 2 0 1 0-1.74 3.6l.66.32a2 2 0 0 0 1.77-3.59zm9.53 5.3l-.65-.4a2 2 0 0 0-2.09 3.41l.62.39a2 2 0 0 0 2.12-3.39zm8.94 6.2l-.6-.45a2 2 0 1 0-2.39 3.21l.59.44a2 2 0 0 0 2.4-3.2zm8.48 6.65l-.58-.47a2 2 0 1 0-2.52 3.11l.58.47a2 2 0 0 0 2.53-3.1zm8.25 6.88l-.57-.48a2 2 0 1 0-2.58 3.06l.57.48a2 2 0 0 0 2.58-3.06zm8.18 6.84l-.57-.47a2 2 0 0 0-2.54 3.09l.58.48a2 2 0 1 0 2.53-3.1zm8.36 6.51L434 271a2 2 0 0 0-2.38 3.22l.61.45a2 2 0 0 0 2.36-3.23zm8.73 5.91l-.62-.39a2 2 0 1 0-2.13 3.39l.64.4a2 2 0 1 0 2.11-3.4zm9.18 5.17l-.65-.34a2 2 0 1 0-1.84 3.55l.67.35a2 2 0 1 0 1.82-3.56zm9.58 4.42l-.68-.29a2 2 0 0 0-1.56 3.68l.7.29a2 2 0 1 0 1.54-3.69zm9.87 3.43l-.7-.2a2 2 0 0 0-1.11 3.84l.73.21a2 2 0 1 0 1.08-3.85zm10.22 2.17l-.72-.11a2 2 0 1 0-.61 4l.75.11a2 2 0 1 0 .58-4zm10.41.84h-.73a2 2 0 1 0-.1 4h.76a2 2 0 0 0 .07-4zm10.43-.49l-.73.08a2 2 0 0 0 .41 4l.76-.08a2 2 0 1 0-.44-4zm10.29-1.82l-.71.17a2 2 0 0 0 .91 3.89l.74-.18a2 2 0 1 0-.95-3.89zm10-3.13l-.68.26a2 2 0 0 0 1.41 3.74l.71-.27a2 2 0 0 0-1.45-3.73zm9.43-4.43l-.64.35a2 2 0 0 0 1.92 3.51l.67-.37a2 2 0 0 0-2-3.49zm8.62-5.76l-.57.45a2 2 0 1 0 2.46 3.16l.61-.48a2 2 0 0 0-2.5-3.13zm7.84-7l-.54.51a2 2 0 0 0 2.74 2.92l.55-.52a2 2 0 1 0-2.75-2.9zm7.21-7.59l-.47.56a2 2 0 1 0 3 2.59l.5-.59a2 2 0 1 0-3.07-2.56zm5.94-8.47l-.37.62a2 2 0 0 0 3.44 2l.39-.67a2 2 0 1 0-3.46-2zm4.31-9.38l-.25.68a2 2 0 0 0 3.75 1.38l.26-.73a2 2 0 1 0-3.77-1.33zm2.61-10q-.06.36-.13.71a2 2 0 0 0 3.93.73l.14-.76a2 2 0 1 0-3.94-.69zm1.07-10.37v.73a2 2 0 0 0 4 .18v-.76a2 2 0 1 0-4-.15zm-.19-10.49v.73a2 2 0 1 0 4-.24v-.76a2 2 0 1 0-4 .27zm-1.1-10.5l.1.73a2 2 0 1 0 4-.55l-.11-.75a2 2 0 0 0-4 .57zm-1.88-10.39l.16.72a2 2 0 1 0 3.91-.84l-.16-.74a2 2 0 0 0-3.91.86zm-2.63-10.23l.21.71a2 2 0 1 0 3.84-1.11l-.21-.73a2 2 0 0 0-3.84 1.13zm-3.36-10l.26.69a2 2 0 0 0 3.75-1.4l-.27-.71a2 2 0 0 0-3.74 1.42z"/><path d="M527.9 146.77l.1.16a3 3 0 1 0 5.06-3.22l-.16-.25a3 3 0 0 0-5 3.31zM487.45 499l-.24.43a3 3 0 1 0 5.25 2.9l.24-.44a3 3 0 0 0-5.26-2.89zm4.68-9.16l-.21.44a3 3 0 1 0 5.42 2.58l.22-.46a3 3 0 1 0-5.43-2.56zm4.05-9.42l-.18.45a3 3 0 1 0 5.58 2.19l.18-.47a3 3 0 1 0-5.59-2.17zm3.31-9.66l-.14.46a3 3 0 0 0 5.75 1.72l.15-.49a3 3 0 1 0-5.75-1.7zm2.37-9.86l-.09.47a3 3 0 0 0 5.9 1.11l.09-.51a3 3 0 0 0-5.9-1.07zm1.12-10v.47a3 3 0 0 0 6 .27v-.52a3 3 0 0 0-6-.22zm-.56-9.83l.07.46a3 3 0 0 0 5.93-.9l-.08-.52a3 3 0 0 0-5.92 1zm-2.29-9.79l.14.46A3 3 0 0 0 506 430l-.15-.5a3 3 0 1 0-5.74 1.74zm-3.59-9.3l.2.43a3 3 0 0 0 5.42-2.56l-.23-.47a3 3 0 0 0-5.4 2.61zm-5.09-8.44l.28.38a3 3 0 0 0 4.84-3.54l-.31-.42a3 3 0 0 0-4.81 3.59zm-6.65-7.18l.35.31a3 3 0 0 0 4-4.48l-.4-.35a3 3 0 1 0-3.94 4.52zm-8-5.66l.41.23a3 3 0 0 0 3-5.2l-.46-.26a3 3 0 0 0-3 5.22zm-9-4.11l.45.16a3 3 0 1 0 2.07-5.63l-.49-.18a3 3 0 0 0-2 5.65zm-9.8-2.75l.47.1a3 3 0 0 0 1.32-5.85l-.5-.11a3 3 0 0 0-1.29 5.86zm-10-1.68l.48.06a3 3 0 1 0 .75-6l-.51-.06a3 3 0 1 0-.73 6zm-10.22-.89h.49a3 3 0 1 0 .35-6h-.51a3 3 0 0 0-.33 6zm-10.3-.32h.52a3 3 0 1 0 0-6h-.51a3 3 0 0 0 0 6zm-10.22.41h.49a3 3 0 0 0-.44-6h-.51a3 3 0 0 0 .46 6zM407 392.44l.49-.06a3 3 0 0 0-.77-6l-.5.07a3 3 0 0 0 .78 5.95zM396.78 394l.49-.08a3 3 0 0 0-1-5.91l-.5.09a3 3 0 0 0 1 5.91zm-10.18 2l.48-.1a3 3 0 1 0-1.22-5.87l-.49.1a3 3 0 1 0 1.23 5.87zm-10.12 2.28l.48-.12a3 3 0 1 0-1.39-5.84l-.49.12a3 3 0 0 0 1.4 5.83zm-10.07 2.57l.48-.13a3 3 0 1 0-1.55-5.8l-.48.13a3 3 0 0 0 1.56 5.79zm-10 2.84l.47-.14a3 3 0 0 0-1.71-5.75l-.48.14a3 3 0 1 0 1.72 5.75zm-9.89 3.13l.47-.16a3 3 0 1 0-1.9-5.69l-.48.16a3 3 0 0 0 1.91 5.69zm-9.73 3.52l.47-.18a3 3 0 0 0-2.15-5.6l-.46.18a3 3 0 0 0 2.14 5.61zm-9.92 3.61l.48-.16a3 3 0 0 0-2-5.67l-.47.16a3 3 0 0 0 2 5.67zm-10 3.29l.48-.15a3 3 0 1 0-1.78-5.73l-.47.15a3 3 0 1 0 1.77 5.73zm-10.16 2.93l.49-.13a3 3 0 0 0-1.56-5.79l-.48.13a3 3 0 0 0 1.55 5.8zm-10.29 2.53l.49-.11a3 3 0 0 0-1.31-5.85l-.48.11a3 3 0 0 0 1.3 5.86zm-10.42 2l.5-.08a3 3 0 0 0-1-5.91l-.48.08a3 3 0 1 0 1 5.92zm-10.56 1.45l.51-.05a3 3 0 0 0-.64-6l-.49.05a3 3 0 1 0 .62 6zm-10.69.68h.51a3 3 0 0 0-.15-6h-.48a3 3 0 0 0 .12 6zm-10.78-.34h.51a3 3 0 1 0 .5-6h-.48a3 3 0 1 0-.53 6zm-10.76-1.74l.51.12a3 3 0 1 0 1.38-5.84l-.46-.11a3 3 0 1 0-1.43 5.83zM232.73 421l.48.23a3 3 0 1 0 2.6-5.41l-.42-.2a3 3 0 1 0-2.65 5.38zm-9.36-5.57l.42.29a3 3 0 0 0 3.37-5l-.4-.27a3 3 0 0 0-3.39 4.95zm-8.56-6.55l.39.33a3 3 0 0 0 3.86-4.59l-.37-.31a3 3 0 0 0-3.88 4.58zm-7.81-7.34l.36.37a3 3 0 0 0 4.3-4.18l-.34-.35a3 3 0 1 0-4.32 4.16zm-7.05-8.17l.31.41a3 3 0 0 0 4.74-3.69l-.29-.38a3 3 0 1 0-4.76 3.66zm-6.07-9l.26.45a3 3 0 1 0 5.16-3.07l-.24-.41a3 3 0 1 0-5.17 3zm-4.88-9.72l.2.48a3 3 0 0 0 5.54-2.31l-.18-.44a3 3 0 1 0-5.55 2.27zm-3.33-10.41l.12.51a3 3 0 0 0 5.83-1.41l-.11-.46a3 3 0 1 0-5.84 1.36zm-1.58-10.83v.52a3 3 0 1 0 6-.4v-.47a3 3 0 1 0-6 .36zm0-10.73v.51a3 3 0 1 0 6 .17v-.49a3 3 0 0 0-6-.19zm.73-10.66l-.05.51a3 3 0 1 0 6 .62l.05-.48a3 3 0 1 0-6-.65zm1.69-10.62l-.11.5a3 3 0 0 0 5.87 1.23l.1-.47a3 3 0 0 0-5.87-1.26zm2.92-10.4l-.17.49a3 3 0 1 0 5.66 2l.16-.45a3 3 0 1 0-5.65-2zm4.37-10l-.24.46a3 3 0 1 0 5.33 2.76l.22-.42a3 3 0 1 0-5.31-2.8zm5.64-9.22l-.29.42a3 3 0 0 0 4.95 3.39l.27-.4a3 3 0 1 0-4.93-3.42zm6.44-8.52l-.32.39a3 3 0 1 0 4.67 3.76l.31-.38a3 3 0 1 0-4.67-3.77zm6.76-8.08l-.32.38a3 3 0 0 0 4.57 3.89l.32-.38a3 3 0 0 0-4.57-3.89zm7.2-7.92l-.36.36a3 3 0 0 0 4.25 4.23l.34-.34a3 3 0 1 0-4.23-4.26zm8-7.19l-.4.32a3 3 0 1 0 3.81 4.64l.38-.31a3 3 0 1 0-3.79-4.65zm8.61-6.39l-.45.32a3 3 0 0 0 3.38 5l.4-.27a3 3 0 1 0-3.36-5zm9.08-5.64l-.44.25a3 3 0 1 0 3 5.2l.42-.24a3 3 0 0 0-3-5.21zm9.43-5l-.46.22a3 3 0 0 0 2.64 5.39l.44-.21a3 3 0 0 0-2.62-5.4zm9.69-4.37l-.47.2a3 3 0 0 0 2.33 5.53l.45-.19a3 3 0 0 0-2.31-5.54zm9.88-3.85l-.47.17a3 3 0 0 0 2.07 5.63l.46-.17a3 3 0 0 0-2.06-5.64zm10-3.46l-.48.16a3 3 0 1 0 1.9 5.69l.47-.16a3 3 0 1 0-1.89-5.69zm10.34-3l-.5.11a3 3 0 1 0 1.35 5.85l.47-.11a3 3 0 1 0-1.32-5.85zm10.66-1.75l-.51.06a3 3 0 0 0 .67 6l.48-.05a3 3 0 0 0-.64-6zm10.75-.58h-.51a3 3 0 0 0 0 6h.48a3 3 0 1 0 0-6zm10.73.48h-.51a3 3 0 0 0-.52 6h.48a3 3 0 0 0 .55-6zm10.61 1.49l-.5-.09a3 3 0 0 0-1 5.91l.48.09a3 3 0 0 0 1.07-5.9zm10.45 2.34l-.49-.13a3 3 0 1 0-1.52 5.8l.47.13a3 3 0 0 0 1.55-5.8zm10.22 3.17l-.48-.17a3 3 0 0 0-2 5.66l.46.16a3 3 0 0 0 2-5.66zm9.94 4l-.47-.21a3 3 0 1 0-2.42 5.49l.45.2a3 3 0 0 0 2.44-5.48zm9.6 4.72l-.45-.24a3 3 0 1 0-2.84 5.29l.43.23a3 3 0 1 0 2.86-5.28zm9.17 5.27l-.43-.26a3 3 0 1 0-3.08 5.15l.42.25a3 3 0 1 0 3.09-5.14zm8.95 5.57l-.42-.27a3 3 0 1 0-3.23 5.06l.42.27a3 3 0 0 0 3.23-5.06zm8.79 5.66l-.42-.27a3 3 0 1 0-3.24 5.05l.42.27a3 3 0 1 0 3.23-5.05zm8.8 5.43l-.42-.25a3 3 0 0 0-3.05 5.17l.44.26a3 3 0 1 0 3-5.17zm9 4.9l-.44-.22a3 3 0 1 0-2.7 5.36l.46.23a3 3 0 0 0 2.68-5.37zm9.31 4.2l-.45-.18a3 3 0 1 0-2.28 5.55l.47.19a3 3 0 0 0 2.26-5.56zm9.62 3.51l-.46-.15a3 3 0 1 0-1.88 5.7l.48.16a3 3 0 1 0 1.87-5.7zm9.78 2.79l-.47-.11a3 3 0 1 0-1.36 5.84l.5.12a3 3 0 0 0 1.33-5.85zm10 1.63h-.48a3 3 0 0 0-.64 6l.51.05a3 3 0 1 0 .6-6zm10.07.39h-.48a3 3 0 1 0 .11 6h.51a3 3 0 1 0-.14-6zm10-.87l-.47.07a3 3 0 1 0 .85 5.94l.51-.07a3 3 0 1 0-.89-5.93zm9.86-2.11l-.46.13a3 3 0 1 0 1.58 5.79l.5-.14a3 3 0 0 0-1.61-5.78zm9.53-3.3l-.44.18a3 3 0 1 0 2.28 5.55l.48-.2a3 3 0 1 0-2.31-5.54zm9-4.47l-.42.24a3 3 0 0 0 3 5.21l.45-.26a3 3 0 0 0-3-5.19zm8.32-5.61l-.38.29a3 3 0 0 0 3.67 4.75l.41-.32a3 3 0 0 0-3.7-4.72zm7.3-6.75l-.32.35a3 3 0 0 0 4.41 4.07l.35-.39a3 3 0 1 0-4.45-4zm6.8-7.76l-.31.37a3 3 0 1 0 4.62 3.83l.33-.39a3 3 0 0 0-4.64-3.81zm5.9-8.14l-.25.4a3 3 0 1 0 5.07 3.21l.28-.44a3 3 0 1 0-5.1-3.17zm4.52-8.85l-.18.44a3 3 0 0 0 5.54 2.3l.2-.48a3 3 0 0 0-5.56-2.25zm2.89-9.49l-.1.46a3 3 0 1 0 5.86 1.29l.11-.51a3 3 0 1 0-5.87-1.25zm1.28-9.9v.48a3 3 0 1 0 6 .36v-.52a3 3 0 0 0-6-.32zm-.13-10.07v.48a3 3 0 1 0 6-.42v-.51a3 3 0 1 0-6 .45zm-1.29-10.09l.08.48a3 3 0 1 0 5.92-1l-.09-.5a3 3 0 1 0-5.91 1zm-2.11-10l.12.47a3 3 0 0 0 5.83-1.43l-.12-.49a3 3 0 1 0-5.82 1.45zm-2.84-9.85l.15.46a3 3 0 1 0 5.71-1.85l-.16-.48a3 3 0 0 0-5.7 1.87zm-3.53-9.62l.18.45a3 3 0 0 0 5.57-2.24l-.19-.47a3 3 0 1 0-5.56 2.26zm-4.2-9.34l.22.44a3 3 0 1 0 5.38-2.65l-.23-.46a3 3 0 0 0-5.37 2.67z" class="cls-10"/></g><circle class="cls-27" cx="487.85" cy="416.59" r="38.69" transform="rotate(-20.84 487.87 416.6)"/><path class="cls-16" d="M469.56 410.9l-9.18 3.49 2.09 5.48 3.77-1.44a8.41 8.41 0 0 1 3.41-.55 9.27 9.27 0 0 1 3.31.76 8.92 8.92 0 0 1 2.81 1.94 8.7 8.7 0 0 1 2.46 6.42 9 9 0 0 1-2.73 6.09 8.68 8.68 0 0 1-6.4 2.44 9 9 0 0 1-6.09-2.73 8.46 8.46 0 0 1-1.88-3 1.71 1.71 0 0 1 1-2.28 1.75 1.75 0 0 1 1.36 0 1.68 1.68 0 0 1 .93 1 5.18 5.18 0 0 0 1.12 1.79 5.31 5.31 0 0 0 3.64 1.63 5.3 5.3 0 0 0 3.85-1.47 5.4 5.4 0 0 0 1.65-3.66 5.14 5.14 0 0 0-.34-2.07 5.08 5.08 0 0 0-1.13-1.77 5.41 5.41 0 0 0-3.65-1.64 5 5 0 0 0-2.07.33l-5.42 2.06a1.7 1.7 0 0 1-1.36 0 1.75 1.75 0 0 1-.92-1l-3.34-8.72a1.75 1.75 0 0 1 0-1.36 1.68 1.68 0 0 1 1-.93l10.83-4.12a1.7 1.7 0 0 1 1.37 0 1.72 1.72 0 0 1 .93 1 1.7 1.7 0 0 1 0 1.35 1.72 1.72 0 0 1-1.02.96zm8.87 7.3a26.52 26.52 0 0 1-1.51-5.55 14.21 14.21 0 0 1 0-4.56 7.6 7.6 0 0 1 1.48-3.42 6.73 6.73 0 0 1 3-2.12 6.64 6.64 0 0 1 3.63-.37 7.79 7.79 0 0 1 3.39 1.59 14 14 0 0 1 3 3.42 29.46 29.46 0 0 1 4 10.6 14.07 14.07 0 0 1 0 4.57 7.81 7.81 0 0 1-1.47 3.45 6.63 6.63 0 0 1-3 2.13 6.73 6.73 0 0 1-3.63.39 7.61 7.61 0 0 1-3.37-1.57 14.11 14.11 0 0 1-3-3.41 26.64 26.64 0 0 1-2.52-5.15zm4.2-12.29a3.09 3.09 0 0 0-1.67 1.45 5.75 5.75 0 0 0-.64 2.47 12.76 12.76 0 0 0 .31 3.27 27.84 27.84 0 0 0 2.84 7.46 12.46 12.46 0 0 0 1.95 2.64 5.72 5.72 0 0 0 2.12 1.41 3.25 3.25 0 0 0 3.88-1.5 5.66 5.66 0 0 0 .63-2.48 13.09 13.09 0 0 0-.32-3.26 25.47 25.47 0 0 0-1.14-3.81 24.77 24.77 0 0 0-1.68-3.59 13.54 13.54 0 0 0-1.94-2.65 5.65 5.65 0 0 0-2.12-1.44 3.1 3.1 0 0 0-2.22.04zm20.13-6.59A4.13 4.13 0 0 1 503 401a4.44 4.44 0 0 1-.38 1.62 4.39 4.39 0 0 1-1 1.37 4.26 4.26 0 0 1-3.14 1.19 4.38 4.38 0 0 1-3-1.34 4.25 4.25 0 0 1-1.18-3.11 4.44 4.44 0 0 1 .37-1.62 4.38 4.38 0 0 1 1-1.37 4.25 4.25 0 0 1 3.14-1.19 4.37 4.37 0 0 1 1.62.38 4.44 4.44 0 0 1 1.36 1 4.17 4.17 0 0 1 .97 1.39zm-4.79-.44a2 2 0 0 0-.71.45 2.15 2.15 0 0 0-.64 1.46 2 2 0 0 0 .13.82 2 2 0 0 0 .44.7 2.17 2.17 0 0 0 .65.46 2.09 2.09 0 0 0 .79.19 2.06 2.06 0 0 0 .84-.14 2 2 0 0 0 .71-.45 2.19 2.19 0 0 0 .47-.67 2.11 2.11 0 0 0 .18-.78 2.07 2.07 0 0 0-.58-1.52 2.23 2.23 0 0 0-.67-.47 2.14 2.14 0 0 0-.79-.19 2 2 0 0 0-.79.14zm4 14.21a1.1 1.1 0 0 1-.44.07 1 1 0 0 1-.41-.1 1.15 1.15 0 0 1-.34-.25 1.16 1.16 0 0 1-.25-1.16l5.47-17.73a1.14 1.14 0 0 1 .67-.73 1.05 1.05 0 0 1 .44-.07 1.14 1.14 0 0 1 .41.1 1.17 1.17 0 0 1 .35.24 1.07 1.07 0 0 1 .24.37 1.05 1.05 0 0 1 0 .7l-5.5 17.94a1.07 1.07 0 0 1-.61.62zm3.88-6.1a4.18 4.18 0 0 1-.28-1.68 4.33 4.33 0 0 1 .38-1.62 4.45 4.45 0 0 1 1-1.36 4.27 4.27 0 0 1 3.12-1.19 4.49 4.49 0 0 1 1.61.37 4.33 4.33 0 0 1 1.36.95 4.3 4.3 0 0 1 1.2 3.15 4.44 4.44 0 0 1-.38 1.61 4.32 4.32 0 0 1-1 1.36 4.17 4.17 0 0 1-1.44.91 4.12 4.12 0 0 1-1.69.27 4.41 4.41 0 0 1-3-1.33 4.09 4.09 0 0 1-.85-1.43zm3.29-3.51a2.07 2.07 0 0 0-.71.45 2.08 2.08 0 0 0-.65 1.45 2.12 2.12 0 0 0 1.24 2 2.12 2.12 0 0 0 .79.18 2.08 2.08 0 0 0 .83-.14 2 2 0 0 0 .71-.45 2.16 2.16 0 0 0 .65-1.45 2 2 0 0 0-.58-1.52 2.2 2.2 0 0 0-.66-.46 2.18 2.18 0 0 0-.79-.19 2 2 0 0 0-.8.14zm-1.46 14.44a3.44 3.44 0 1 1-1.8-1.91 3.43 3.43 0 0 1 1.1.77 3.39 3.39 0 0 1 .7 1.14zm-4.11-1.14a2.48 2.48 0 0 0-.84.52 2.55 2.55 0 0 0-.56.81 2.39 2.39 0 0 0-.06 1.93 2.52 2.52 0 1 0 1.46-3.26zm5.79 3.68l-2.12-5.57a.45.45 0 0 1 0-.18.45.45 0 0 1 .29-.41l3.71-1.41a.45.45 0 1 1 .32.85l-3.3 1.26.74 1.93 2.36-.9a.46.46 0 0 1 .58.61.44.44 0 0 1-.25.24l-2.36.9.9 2.36a.46.46 0 0 1-.85.32zm5.14-1.95l-2.12-5.57a.45.45 0 0 1 0-.18.46.46 0 0 1 0-.17.45.45 0 0 1 .1-.14.47.47 0 0 1 .16-.1l3.71-1.41a.46.46 0 0 1 .59.26.45.45 0 0 1-.26.59l-3.29 1.21.74 1.93 2.36-.9a.46.46 0 0 1 .58.61.44.44 0 0 1-.25.24l-2.36.9.9 2.36a.46.46 0 0 1-.85.32z"/><circle class="cls-18" cx="272.54" cy="397.48" r="41.72" transform="rotate(-76.71 272.56 397.49)"/><path class="cls-16" d="M240.16 399.64l17.27-18.88-10.38-2.45a1.85 1.85 0 0 1-1.41-2.29 1.88 1.88 0 0 1 .84-1.2 1.81 1.81 0 0 1 1.45-.23l13.51 3.19a1.81 1.81 0 0 1 .69.32 2 2 0 0 1 .49.54 2 2 0 0 1 .26.68 1.81 1.81 0 0 1 0 .77 2.23 2.23 0 0 1-.5.93l-19.47 21.35a2.11 2.11 0 0 1-.47.4 1.87 1.87 0 0 1-1.44.23 1.9 1.9 0 0 1-1.41-2.29 2.37 2.37 0 0 1 .57-1.07zm22.26-6.64a28.56 28.56 0 0 1 2-5.87 15.32 15.32 0 0 1 2.75-4.08 8.19 8.19 0 0 1 3.39-2.16 7.26 7.26 0 0 1 3.93-.1 7.16 7.16 0 0 1 3.47 1.86 8.41 8.41 0 0 1 2.06 3.47 15.16 15.16 0 0 1 .63 4.88 31.77 31.77 0 0 1-2.81 11.91 15.15 15.15 0 0 1-2.75 4.09 8.41 8.41 0 0 1-3.4 2.18 7.16 7.16 0 0 1-3.93.11 7.26 7.26 0 0 1-3.47-1.84 8.21 8.21 0 0 1-2.06-3.44 15.19 15.19 0 0 1-.63-4.87 28.68 28.68 0 0 1 .82-6.14zm11.18-8.43a3.34 3.34 0 0 0-2.37.29 6.22 6.22 0 0 0-2.07 1.82 13.7 13.7 0 0 0-1.7 3.1 30 30 0 0 0-2 8.38 13.39 13.39 0 0 0 .14 3.54 6.18 6.18 0 0 0 1 2.54 3.5 3.5 0 0 0 4.37 1 6.12 6.12 0 0 0 2.06-1.83 14.15 14.15 0 0 0 1.69-3.1 27.59 27.59 0 0 0 1.29-4.09 26.71 26.71 0 0 0 .67-4.22 14.59 14.59 0 0 0-.13-3.55 6.1 6.1 0 0 0-1-2.57 3.34 3.34 0 0 0-1.95-1.29zm13.67 18.31a1.2 1.2 0 0 1-.44-.2 1.13 1.13 0 0 1-.31-.34 1.23 1.23 0 0 1-.16-.43 1.26 1.26 0 0 1 .48-1.19l15.6-12.54a1.24 1.24 0 0 1 1-.25 1.14 1.14 0 0 1 .43.2 1.23 1.23 0 0 1 .47.76 1.14 1.14 0 0 1 0 .48 1.13 1.13 0 0 1-.4.64l-15.76 12.69a1.14 1.14 0 0 1-.91.18zm9-11.83a4.48 4.48 0 0 1-.77 1.66 4.75 4.75 0 0 1-3 1.86 4.6 4.6 0 0 1-3.52-.83 4.74 4.74 0 0 1-1.84-3 4.59 4.59 0 0 1 .83-3.5 4.72 4.72 0 0 1 3-1.86 4.6 4.6 0 0 1 3.52.83 4.71 4.71 0 0 1 1.84 3 4.51 4.51 0 0 1-.05 1.79zm-4-3.29a2.17 2.17 0 0 0-.91 0 2.3 2.3 0 0 0-.81.32 2.33 2.33 0 0 0-.64.6 2.26 2.26 0 0 0-.4 1.7 2.32 2.32 0 0 0 .3.81 2.27 2.27 0 0 0 .59.64 2.19 2.19 0 0 0 .83.38 2.15 2.15 0 0 0 .9 0 2.36 2.36 0 0 0 .82-.31 2.28 2.28 0 0 0 .64-.59 2.19 2.19 0 0 0 .37-.81 2.16 2.16 0 0 0 0-.89 2.45 2.45 0 0 0-.31-.82 2.3 2.3 0 0 0-.59-.65 2.15 2.15 0 0 0-.79-.38zm2.15 12a4.49 4.49 0 0 1 .77-1.67 4.7 4.7 0 0 1 1.31-1.22 4.81 4.81 0 0 1 1.67-.64 4.61 4.61 0 0 1 3.51.82 4.84 4.84 0 0 1 1.22 1.31 4.68 4.68 0 0 1 .64 1.67 4.64 4.64 0 0 1-.84 3.54 4.82 4.82 0 0 1-1.32 1.21 4.7 4.7 0 0 1-1.67.63 4.49 4.49 0 0 1-1.83-.06 4.43 4.43 0 0 1-1.67-.78 4.76 4.76 0 0 1-1.85-3 4.43 4.43 0 0 1 .05-1.79zm5.06-1.14a2.27 2.27 0 0 0-2.73 1.69 2.29 2.29 0 0 0 .27 1.72 2.29 2.29 0 0 0 .59.64 2.26 2.26 0 0 0 .82.38 2.18 2.18 0 0 0 .9 0 2.32 2.32 0 0 0 1.46-.9 2.21 2.21 0 0 0 .4-1.71 2.38 2.38 0 0 0-.31-.81 2.32 2.32 0 0 0-.59-.64 2.18 2.18 0 0 0-.82-.35zm-10.07 12a3.71 3.71 0 1 1-.46-2.79 3.7 3.7 0 0 1 .52 1.35 3.66 3.66 0 0 1-.06 1.44zm-3-3.5a2.7 2.7 0 0 0-1.07 0 2.75 2.75 0 0 0-1 .38 2.72 2.72 0 0 0-.78.71 2.68 2.68 0 0 0-.43 1 2.72 2.72 0 1 0 3.27-2zm2.97 6.79l1.48-6.25a.49.49 0 0 1 .08-.18.48.48 0 0 1 .14-.13.48.48 0 0 1 .37-.06l4.17 1a.48.48 0 0 1 .31.22.49.49 0 0 1-.53.74l-3.69-.87-.51 2.17 2.65.63a.49.49 0 1 1-.23 1l-2.65-.63-.63 2.65a.49.49 0 1 1-1-.23zm5.76 1.37l1.48-6.25a.51.51 0 0 1 .08-.18.48.48 0 0 1 .51-.19l4.17 1a.49.49 0 1 1-.23 1l-3.69-.87-.51 2.17 2.65.63a.49.49 0 1 1-.23 1l-2.65-.62-.63 2.65a.49.49 0 1 1-1-.23z"/><circle class="cls-27" cx="232.56" cy="240.92" r="44.55" transform="rotate(-34.25 232.52 240.9)"/><path class="cls-16" d="M210.56 239.39l-9.35 6.36 3.8 5.59 3.84-2.62a9.7 9.7 0 0 1 3.67-1.53 10.68 10.68 0 0 1 3.91 0 10.27 10.27 0 0 1 3.66 1.43 10 10 0 0 1 4.46 6.54 10.39 10.39 0 0 1-1.44 7.56 10 10 0 0 1-6.52 4.44 10.39 10.39 0 0 1-7.56-1.44 9.75 9.75 0 0 1-2.89-2.81 2 2 0 0 1 .54-2.82 2 2 0 0 1 1.53-.34 1.94 1.94 0 0 1 1.31.87 6 6 0 0 0 1.74 1.7 6.11 6.11 0 0 0 4.52.86 6.13 6.13 0 0 0 3.92-2.67 6.21 6.21 0 0 0 .87-4.54 5.9 5.9 0 0 0-.94-2.23 5.82 5.82 0 0 0-1.73-1.68 6.24 6.24 0 0 0-4.53-.86 5.82 5.82 0 0 0-2.23.93l-5.52 3.76a2 2 0 0 1-1.53.33 2 2 0 0 1-1.3-.89l-6.09-8.94a2 2 0 0 1-.34-1.53 1.94 1.94 0 0 1 .87-1.31l11-7.51a2 2 0 0 1 1.54-.32 2 2 0 0 1 1.31.86 2 2 0 0 1-.55 2.83zm11.89 5.81a30.54 30.54 0 0 1-3.18-5.81 16.38 16.38 0 0 1-1.23-5.1 8.75 8.75 0 0 1 .74-4.22 7.76 7.76 0 0 1 2.76-3.17 7.65 7.65 0 0 1 4-1.39 9 9 0 0 1 4.23.88 16.16 16.16 0 0 1 4.3 3 33.92 33.92 0 0 1 7.35 10.8 16.15 16.15 0 0 1 1.24 5.11 9 9 0 0 1-.73 4.25 7.64 7.64 0 0 1-2.75 3.18 7.75 7.75 0 0 1-4 1.41 8.76 8.76 0 0 1-4.2-.85 16.22 16.22 0 0 1-4.3-3 30.66 30.66 0 0 1-4.23-5.09zm1.42-14.88a3.56 3.56 0 0 0-1.48 2.07 6.63 6.63 0 0 0-.05 2.94 14.62 14.62 0 0 0 1.22 3.58 29.55 29.55 0 0 0 2.3 4 29.88 29.88 0 0 0 2.87 3.63 14.32 14.32 0 0 0 2.89 2.44 6.59 6.59 0 0 0 2.75 1 3.74 3.74 0 0 0 4-2.71 6.52 6.52 0 0 0 0-2.94 15.11 15.11 0 0 0-1.23-3.57 29.48 29.48 0 0 0-2.3-4 28.53 28.53 0 0 0-2.84-3.57 15.57 15.57 0 0 0-2.89-2.45 6.51 6.51 0 0 0-2.76-1.05 3.56 3.56 0 0 0-2.47.63zm20.8-12.77a4.77 4.77 0 0 1 .75 1.8 5.1 5.1 0 0 1 0 1.91 5 5 0 0 1-.7 1.78 4.91 4.91 0 0 1-3.19 2.18 5 5 0 0 1-1.92 0 5.11 5.11 0 0 1-1.77-.71 4.9 4.9 0 0 1-2.16-3.17 5 5 0 0 1 .69-3.7 4.91 4.91 0 0 1 3.19-2.18 5 5 0 0 1 3.7.72 4.81 4.81 0 0 1 1.41 1.37zm-5.48.78a2.33 2.33 0 0 0-.68.7 2.47 2.47 0 0 0-.33 1.81 2.4 2.4 0 0 0 1.05 1.55 2.5 2.5 0 0 0 .86.35 2.42 2.42 0 0 0 .93 0 2.36 2.36 0 0 0 .9-.38 2.33 2.33 0 0 0 .67-.69 2.5 2.5 0 0 0 .35-.87 2.43 2.43 0 0 0 0-.93 2.34 2.34 0 0 0-.37-.88 2.29 2.29 0 0 0-.69-.66 2.57 2.57 0 0 0-.88-.33 2.47 2.47 0 0 0-.93 0 2.29 2.29 0 0 0-.89.34zm8.31 14.85a1.28 1.28 0 0 1-.47.2 1.18 1.18 0 0 1-.49 0 1.32 1.32 0 0 1-.45-.19 1.34 1.34 0 0 1-.59-1.24l1.37-21.33a1.32 1.32 0 0 1 .56-1 1.21 1.21 0 0 1 .47-.2 1.31 1.31 0 0 1 .94.18 1.27 1.27 0 0 1 .59 1.13L248 232.32a1.23 1.23 0 0 1-.51.86zm2.71-7.87a4.81 4.81 0 0 1-.76-1.81 5 5 0 0 1 0-1.91 5.13 5.13 0 0 1 .7-1.78 4.92 4.92 0 0 1 3.18-2.17 5.2 5.2 0 0 1 1.91 0 5 5 0 0 1 1.78.7 4.81 4.81 0 0 1 1.42 1.38 4.76 4.76 0 0 1 .76 1.83 5.1 5.1 0 0 1 0 1.91 5 5 0 0 1-.71 1.77 4.8 4.8 0 0 1-1.37 1.4 4.74 4.74 0 0 1-1.82.76 5.1 5.1 0 0 1-3.68-.7 4.74 4.74 0 0 1-1.42-1.37zm2.75-4.81a2.43 2.43 0 0 0-1 1.55 2.43 2.43 0 0 0 .38 1.82 2.43 2.43 0 0 0 1.55 1 2.43 2.43 0 0 0 1.82-.38 2.32 2.32 0 0 0 .67-.69 2.5 2.5 0 0 0 .35-.87 2.53 2.53 0 0 0 0-.93 2.36 2.36 0 0 0-1.06-1.55 2.53 2.53 0 0 0-.87-.34 2.5 2.5 0 0 0-.94 0 2.34 2.34 0 0 0-.86.4zm2.18 16.57a4 4 0 1 1-2.53-1.65 4 4 0 0 1 1.39.58 3.91 3.91 0 0 1 1.14 1.07zm-4.91-.18a2.87 2.87 0 0 0-.81.81 3.09 3.09 0 0 0-.42 2.19 2.87 2.87 0 0 0 .46 1 2.9 2.9 0 1 0 .77-4zm7.48 2.58l-3.86-5.67a.54.54 0 0 1-.08-.19.51.51 0 0 1 .07-.39.53.53 0 0 1 .15-.15l3.78-2.57a.52.52 0 0 1 .81.53.5.5 0 0 1-.22.34l-3.36 2.28 1.34 2 2.4-1.64a.5.5 0 0 1 .39-.08.52.52 0 0 1 .2.95l-2.4 1.64 1.64 2.4a.52.52 0 1 1-.87.59zm5.23-3.56l-3.86-5.67a.53.53 0 0 1-.08-.19.5.5 0 0 1 0-.2.51.51 0 0 1 .07-.19.52.52 0 0 1 .15-.15l3.78-2.57a.52.52 0 0 1 .81.53.5.5 0 0 1-.22.33l-3.35 2.28 1.34 2 2.4-1.64a.52.52 0 1 1 .59.87l-2.4 1.64 1.64 2.4a.52.52 0 1 1-.87.59z"/><circle class="cls-15" cx="403.37" cy="251.16" r="51.2" transform="rotate(-59.36 403.4 251.16)"/><path class="cls-16" d="M377.46 222.9a9.12 9.12 0 0 1 2.49-2.77 9.63 9.63 0 0 1 3.21-1.54 9.22 9.22 0 0 1 3.52-.24 8.72 8.72 0 0 1 3.42 1.18 8.6 8.6 0 0 1 2.67 2.44 9.31 9.31 0 0 1 1.47 3.22 9.8 9.8 0 0 1 .19 3.56 9 9 0 0 1-1.21 3.48 9.33 9.33 0 0 1-5.75 4.29 11 11 0 0 1-.72 10 10.82 10.82 0 0 1-2.91 3.24 11.1 11.1 0 0 1-8 2.12 10.67 10.67 0 0 1-7.27-4.29 11 11 0 0 1-1.77-3.8 11.18 11.18 0 0 1-.22-4.21 10.89 10.89 0 0 1 1.46-4.13 2.34 2.34 0 0 1 1.44-1.13 2.25 2.25 0 0 1 1.78.27 2.32 2.32 0 0 1 .82 3.25 6.22 6.22 0 0 0 .27 6.89 6 6 0 0 0 1.83 1.66 5.85 5.85 0 0 0 2.33.79 6.25 6.25 0 0 0 2.38-.17 6.4 6.4 0 0 0 2.15-1 6.32 6.32 0 0 0 2.47-4.17 6.4 6.4 0 0 0-.11-2.39 6.3 6.3 0 0 0-1-2.17 5.88 5.88 0 0 0-1.82-1.66 2.26 2.26 0 0 1-1.1-1.45 2.48 2.48 0 0 1 1.73-2.92 2.28 2.28 0 0 1 1.79.28 4.21 4.21 0 0 0 1.66.57 4.49 4.49 0 0 0 1.72-.11 4.71 4.71 0 0 0 1.57-.75 4.36 4.36 0 0 0 1.2-1.32 4.43 4.43 0 0 0 .59-1.71 4.63 4.63 0 0 0-.1-1.74 4.87 4.87 0 0 0-.72-1.58 4 4 0 0 0-1.28-1.19 4.19 4.19 0 0 0-1.69-.57 4.67 4.67 0 0 0-1.73.12 4.72 4.72 0 0 0-1.57.75 4.17 4.17 0 0 0-1.19 1.35 2.29 2.29 0 0 1-1.43 1.08 2.26 2.26 0 0 1-1.79-.25 2.23 2.23 0 0 1-1.06-1.44 2.28 2.28 0 0 1 .28-1.84zm15.76 19.37a35.09 35.09 0 0 1 4.5-6.14 18.8 18.8 0 0 1 4.71-3.77 10.05 10.05 0 0 1 4.76-1.29 8.9 8.9 0 0 1 4.64 1.33 8.78 8.78 0 0 1 3.38 3.45 10.32 10.32 0 0 1 1.15 4.83 18.58 18.58 0 0 1-1 6 39 39 0 0 1-7.65 12.92 18.55 18.55 0 0 1-4.72 3.78 10.33 10.33 0 0 1-4.78 1.32 8.78 8.78 0 0 1-4.65-1.31 8.92 8.92 0 0 1-3.39-3.43 10.08 10.08 0 0 1-1.16-4.78 18.65 18.65 0 0 1 1-5.94 35.24 35.24 0 0 1 3.21-6.97zm16.18-5.78a4.1 4.1 0 0 0-2.88-.53 7.6 7.6 0 0 0-3.09 1.38 16.8 16.8 0 0 0-3.13 3 34 34 0 0 0-3 4.33 34.38 34.38 0 0 0-2.38 4.76 16.48 16.48 0 0 0-1.13 4.2 7.56 7.56 0 0 0 .29 3.35 4.3 4.3 0 0 0 4.75 2.79 7.52 7.52 0 0 0 3.08-1.4 17.33 17.33 0 0 0 3.12-3 33.71 33.71 0 0 0 3-4.32 32.72 32.72 0 0 0 2.33-4.7 17.91 17.91 0 0 0 1.14-4.2 7.49 7.49 0 0 0-.25-3.38 4.1 4.1 0 0 0-1.85-2.28zm9.31 26.43a1.47 1.47 0 0 1-.44-.39 1.37 1.37 0 0 1-.27-.53 1.51 1.51 0 0 1 0-.56 1.54 1.54 0 0 1 1-1.22l22.86-9a1.51 1.51 0 0 1 1.31.09 1.4 1.4 0 0 1 .43.4 1.58 1.58 0 0 1 .24.51 1.55 1.55 0 0 1 0 .56A1.46 1.46 0 0 1 443 254l-23.11 9.1a1.41 1.41 0 0 1-1.18-.18zm14.89-10.56a5.51 5.51 0 0 1-1.51 1.67 5.81 5.81 0 0 1-4.18 1.08 5.65 5.65 0 0 1-3.82-2.26 5.81 5.81 0 0 1-1.06-4.19 5.47 5.47 0 0 1 .74-2.12 5.55 5.55 0 0 1 1.51-1.67 5.79 5.79 0 0 1 4.19-1.09 5.65 5.65 0 0 1 3.82 2.26 5.81 5.81 0 0 1 .94 2 5.87 5.87 0 0 1 .12 2.2 5.53 5.53 0 0 1-.75 2.11zm-3.49-5.36a2.65 2.65 0 0 0-1.05-.36 2.85 2.85 0 0 0-1.07.07 2.88 2.88 0 0 0-1 .47 2.77 2.77 0 0 0-1.1 1.85 2.84 2.84 0 0 0 .06 1.06 2.8 2.8 0 0 0 .45 1 2.72 2.72 0 0 0 .83.75 2.66 2.66 0 0 0 1 .36 2.9 2.9 0 0 0 1.07-.06 2.8 2.8 0 0 0 1-.46 2.7 2.7 0 0 0 .74-.82 2.65 2.65 0 0 0 .35-1 3 3 0 0 0-.06-1.08 2.85 2.85 0 0 0-.45-1 2.61 2.61 0 0 0-.77-.78zm-1.89 14.87a5.54 5.54 0 0 1 1.51-1.67 5.75 5.75 0 0 1 2-.94 5.88 5.88 0 0 1 2.19-.14 5.65 5.65 0 0 1 3.81 2.25 5.94 5.94 0 0 1 .95 2 5.74 5.74 0 0 1 .14 2.19 5.54 5.54 0 0 1-.75 2.16 5.49 5.49 0 0 1-1.53 1.69 5.91 5.91 0 0 1-2 .93 5.77 5.77 0 0 1-2.19.13 5.53 5.53 0 0 1-2.13-.74 5.43 5.43 0 0 1-1.67-1.52 5.85 5.85 0 0 1-1.07-4.17 5.45 5.45 0 0 1 .74-2.14zm6.34.51a2.77 2.77 0 0 0-3.08.16 2.82 2.82 0 0 0-1.11 1.87 2.75 2.75 0 0 0 .52 2 2.75 2.75 0 0 0 .82.74 2.65 2.65 0 0 0 1 .36 2.85 2.85 0 0 0 1.07-.06 2.91 2.91 0 0 0 1-.45 2.71 2.71 0 0 0 1.1-1.86 2.87 2.87 0 0 0-.53-2 2.68 2.68 0 0 0-.79-.72zm-16.16 10.39a4.56 4.56 0 1 1 .49-3.44 4.54 4.54 0 0 1 .12 1.77 4.48 4.48 0 0 1-.61 1.67zm-2.21-5.19a3.31 3.31 0 0 0-1.23-.45 3.54 3.54 0 0 0-2.48.64 3.3 3.3 0 0 0-.86 1 3.34 3.34 0 1 0 4.58-1.17zm.96 9.04l4-6.78a.61.61 0 0 1 .16-.18.58.58 0 0 1 .21-.1.6.6 0 0 1 .23 0 .63.63 0 0 1 .23.08l4.52 2.68a.6.6 0 0 1-.61 1l-4-2.37-1.4 2.36 2.87 1.7a.6.6 0 1 1-.61 1l-2.87-1.7-1.7 2.87a.6.6 0 1 1-1-.61zm6.26 3.7l4-6.78a.61.61 0 0 1 .16-.18.58.58 0 0 1 .21-.1.6.6 0 0 1 .23 0 .62.62 0 0 1 .23.08l4.52 2.68a.6.6 0 0 1 .21.82.6.6 0 0 1-.83.21l-4-2.37-1.4 2.36 2.87 1.7a.6.6 0 0 1-.16 1.1.58.58 0 0 1-.46-.07l-2.87-1.7-1.7 2.87a.6.6 0 1 1-1-.61z"/><circle class="cls-18" cx="576.44" cy="186.24" r="67.23" transform="rotate(-10.85 576.55 186.29)"/><path class="cls-16" d="M530.36 210.7l13-39.15-16.87 3.24a3 3 0 0 1-3.59-2.43 3 3 0 0 1 .44-2.32 2.92 2.92 0 0 1 2-1.3l22-4.21a2.92 2.92 0 0 1 1.23 0 3.17 3.17 0 0 1 1.91 1.3 3 3 0 0 1 .47 1.14 3.58 3.58 0 0 1-.12 1.7l-14.56 44.23a3.35 3.35 0 0 1-.43.89 3 3 0 0 1-2 1.31 3.07 3.07 0 0 1-3.59-2.43 3.82 3.82 0 0 1 .11-1.97zm28.38-24.41a46.07 46.07 0 0 1-.92-10 24.71 24.71 0 0 1 1.35-7.81 13.19 13.19 0 0 1 3.55-5.41 11.69 11.69 0 0 1 5.72-2.73 11.52 11.52 0 0 1 6.33.45 13.53 13.53 0 0 1 5.32 3.75 24.38 24.38 0 0 1 4.15 6.76 51.18 51.18 0 0 1 3.76 19.43 24.4 24.4 0 0 1-1.35 7.82A13.57 13.57 0 0 1 583 204a11.53 11.53 0 0 1-5.71 2.76 11.7 11.7 0 0 1-6.32-.42 13.23 13.23 0 0 1-5.3-3.7 24.5 24.5 0 0 1-4.15-6.75 46.27 46.27 0 0 1-2.78-9.6zm10.88-19.76a5.37 5.37 0 0 0-3.29 2 10 10 0 0 0-1.84 4 22.1 22.1 0 0 0-.46 5.68 48.25 48.25 0 0 0 2.61 13.63 21.61 21.61 0 0 0 2.54 5.11 9.94 9.94 0 0 0 3.19 3 5.64 5.64 0 0 0 7.1-1.39 9.84 9.84 0 0 0 1.82-4.05 22.81 22.81 0 0 0 .44-5.68 44.42 44.42 0 0 0-.81-6.87 43.15 43.15 0 0 0-1.8-6.65 23.52 23.52 0 0 0-2.53-5.13 9.82 9.82 0 0 0-3.19-3.11 5.38 5.38 0 0 0-3.78-.54zm37.6-5.44a7.2 7.2 0 0 1 0 2.95 7.7 7.7 0 0 1-1.13 2.65 7.61 7.61 0 0 1-2 2.05 7.42 7.42 0 0 1-5.73 1.1 7.64 7.64 0 0 1-4.69-3.2 7.4 7.4 0 0 1-1.09-5.68 7.6 7.6 0 0 1 3.17-4.71 7.4 7.4 0 0 1 5.73-1.1 7.6 7.6 0 0 1 4.69 3.2 7.26 7.26 0 0 1 1.05 2.74zm-8.06-2.2a3.51 3.51 0 0 0-1.35.56 3.73 3.73 0 0 0-1.53 2.31 3.64 3.64 0 0 0 .53 2.77 3.74 3.74 0 0 0 1 1 3.67 3.67 0 0 0 1.29.56 3.56 3.56 0 0 0 1.47 0 3.5 3.5 0 0 0 1.34-.56 3.77 3.77 0 0 0 1-1 3.7 3.7 0 0 0 .55-1.29 3.54 3.54 0 0 0 0-1.44 3.47 3.47 0 0 0-.55-1.33 3.88 3.88 0 0 0-1-1 3.74 3.74 0 0 0-1.29-.57 3.45 3.45 0 0 0-1.46-.01zm2.61 25.54a1.9 1.9 0 0 1-.77 0 1.79 1.79 0 0 1-.67-.29 2 2 0 0 1-.51-.53 2 2 0 0 1-.08-2.07l14.67-28.72a2 2 0 0 1 1.37-1 1.81 1.81 0 0 1 .77 0 2 2 0 0 1 1.19.81 1.92 1.92 0 0 1 .13 1.92l-14.81 29a1.85 1.85 0 0 1-1.29.87zm8.47-9.27a7.24 7.24 0 0 1 0-3 7.54 7.54 0 0 1 1.13-2.65 7.72 7.72 0 0 1 2-2 7.41 7.41 0 0 1 5.71-1.1 7.8 7.8 0 0 1 2.65 1.12 7.51 7.51 0 0 1 2 2 7.48 7.48 0 0 1 1.1 5.75 7.73 7.73 0 0 1-1.03 2.72 7.57 7.57 0 0 1-2 2 7.27 7.27 0 0 1-2.74 1.12 7.15 7.15 0 0 1-3 0 7.69 7.69 0 0 1-4.68-3.18 7.13 7.13 0 0 1-1.14-2.78zm6.68-5a3.6 3.6 0 0 0-1.35.55A3.61 3.61 0 0 0 614 173a3.72 3.72 0 0 0 .54 2.8 3.65 3.65 0 0 0 3.74 1.56 3.52 3.52 0 0 0 1.34-.56 3.76 3.76 0 0 0 1.56-2.28 3.55 3.55 0 0 0-.53-2.78 3.82 3.82 0 0 0-1-1 3.77 3.77 0 0 0-1.3-.56 3.51 3.51 0 0 0-1.43-.03zM610 194.39a6 6 0 1 1-2.51-3.81 6 6 0 0 1 1.66 1.64 5.91 5.91 0 0 1 .85 2.17zm-6.69-3.18a4.33 4.33 0 0 0-1.6.63 4.44 4.44 0 0 0-1.21 1.22 4.16 4.16 0 0 0-.68 3.28 4.38 4.38 0 1 0 3.48-5.13zm8.84 8.04l-1.95-10.17a.81.81 0 0 1 0-.31.8.8 0 0 1 .12-.28.78.78 0 0 1 .51-.33l6.78-1.3a.79.79 0 1 1 .3 1.55l-6 1.15.68 3.53 4.31-.83a.75.75 0 0 1 .59.12.76.76 0 0 1 .33.5.79.79 0 0 1-.63.93l-4.31.83.83 4.31a.79.79 0 1 1-1.55.3zm9.37-1.79l-1.95-10.17a.79.79 0 0 1 0-.31.76.76 0 0 1 .12-.28.8.8 0 0 1 .21-.21.79.79 0 0 1 .3-.12l6.78-1.3a.79.79 0 1 1 .3 1.55l-6 1.15.68 3.53 4.31-.83a.79.79 0 1 1 .3 1.55l-4.31.83.83 4.31a.79.79 0 1 1-1.55.3z"/></g></g></svg>