<svg xmlns="http://www.w3.org/2000/svg" viewBox="0 -1 48 40"><path fill="#757575" fill-rule="nonzero" d="M48 14.4V4.8C47.994 2.15 45.85.006 43.2 0H4.8C2.15 0 0 2.15 0 4.8v9.6c2.65 0 4.8 2.15 4.8 4.8S2.65 24 0 24v9.6c.006 2.65 2.15 4.794 4.8 4.8h38.4c2.65-.006 4.794-2.15 4.8-4.8V24c-2.65 0-4.8-2.15-4.8-4.8s2.15-4.8 4.8-4.8zm-14.46-2.82l-5 5 2.71 11.75-1.79 1.77-5-9.49-5 5 .54 3.13-1.38 1.36-2.26-4.07-4.06-2.25 1.35-1.36 3.16.45 5-5-9.49-5 1.81-1.81 11.75 2.71 5-5c.502-.475 1.22-.646 1.882-.45.662.198 1.17.733 1.33 1.406.16.672-.05 1.38-.552 1.854z"/></svg>